<svg width="43" height="26" viewBox="0 0 43 26" fill="none" xmlns="http://www.w3.org/2000/svg">
<g clip-path="url(#clip0_1193_740)">
<path d="M0.79541 0.74939H42.5568V25.2497H0.79541V0.74939Z" fill="white"/>
<path d="M0.79541 0.74939H42.5568V7.25092H0.79541V0.74939Z" fill="black"/>
<path d="M0.79541 18.7485H42.5568V25.2493H0.79541V18.7485Z" fill="#496E2D"/>
<path d="M0.79541 8.88037H42.5568V17.1203H0.79541V8.88037Z" fill="#A2001D"/>
<path d="M27.1619 4.65975L25.0752 3.81213L21.6754 10.5866L18.2756 3.81213L16.189 4.65975L20.4099 12.9996L16.189 21.3396L18.2756 22.1871L21.6754 15.4127L25.0752 22.1871L27.1619 21.3396L22.941 12.9996L27.1619 4.65975Z" fill="white"/>
<path d="M23.0929 5.45842C22.285 4.68208 21.6756 4.23584 21.6756 4.23584C21.6756 4.23584 21.0661 4.68201 20.2583 5.45835V20.5407C21.0661 21.3171 21.6756 21.7634 21.6756 21.7634C21.6756 21.7634 22.285 21.3172 23.0929 20.5408V5.45842Z" fill="white"/>
<path d="M17.8457 8.35059V17.6483C18.6993 18.9792 19.7441 20.0702 20.5269 20.7934V5.20544C19.744 5.92867 18.6992 7.01962 17.8457 8.35059V8.35059ZM25.5063 8.35059C24.6527 7.01962 23.608 5.92867 22.8251 5.20544V20.7935C23.608 20.0702 24.6527 18.9792 25.5063 17.6483V8.35059Z" fill="#A2001D"/>
<path d="M25.5067 8.35071V17.6484C26.3708 16.3008 27.0388 14.7075 27.0388 12.9996C27.0388 11.2917 26.3708 9.69833 25.5067 8.35071V8.35071ZM17.8461 8.35071V17.6484C16.982 16.3008 16.314 14.7075 16.314 12.9996C16.314 11.2917 16.982 9.69833 17.8461 8.35071V8.35071Z" fill="black"/>
</g>
<defs>
<clipPath id="clip0_1193_740">
<rect width="41.7614" height="24.5" fill="white" transform="translate(0.79541 0.75)"/>
</clipPath>
</defs>
</svg>
