<svg width="42" height="24" viewBox="0 0 42 24" fill="none" xmlns="http://www.w3.org/2000/svg">
<g clip-path="url(#clip0_241_162)">
<path d="M-2.01855 0.0585938H43.9699V23.5948H-2.01855V0.0585938Z" fill="#008751"/>
<path d="M13.3105 0.0585938H28.64V23.5948H13.3105V0.0585938Z" fill="white"/>
</g>
<path d="M0.536133 0.0585938V-1.18015H-0.702613V0.0585938H0.536133ZM41.4147 0.0585938H42.6535V-1.18015H41.4147V0.0585938ZM41.4147 23.5948V24.8335H42.6535V23.5948H41.4147ZM0.536133 23.5948H-0.702613V24.8335H0.536133V23.5948ZM0.536133 1.29734H41.4147V-1.18015H0.536133V1.29734ZM40.176 0.0585938V23.5948H42.6535V0.0585938H40.176ZM41.4147 22.356H0.536133V24.8335H41.4147V22.356ZM1.77488 23.5948V0.0585938H-0.702613V23.5948H1.77488Z" fill="#F2F2F2"/>
<defs>
<clipPath id="clip0_241_162">
<path d="M0.536133 0.0585938H41.4147V23.5948H0.536133V0.0585938Z" fill="white"/>
</clipPath>
</defs>
</svg>
