<svg width="42" height="26" viewBox="0 0 42 26" fill="none" xmlns="http://www.w3.org/2000/svg">
<g clip-path="url(#clip0_1193_747)">
<path d="M0.977051 0.75H41.068V25.25H0.977051V0.75Z" fill="#232323"/>
<path d="M0.977051 4.83459H41.068V8.91912H0.977051V4.83459Z" fill="#FFDA44"/>
<path d="M0.977051 8.91919H41.068V13.0037H0.977051V8.91919Z" fill="#D32300"/>
<path d="M0.977051 17.0881H41.068V21.1727H0.977051V17.0881Z" fill="#FFDA44"/>
<path d="M0.977051 21.1655H41.068V25.2501H0.977051V21.1655Z" fill="#D32300"/>
<path d="M21.0226 18.7966C24.5125 18.7966 27.3416 16.203 27.3416 13.0036C27.3416 9.80418 24.5125 7.21057 21.0226 7.21057C17.5327 7.21057 14.7036 9.80418 14.7036 13.0036C14.7036 16.203 17.5327 18.7966 21.0226 18.7966Z" fill="white"/>
<path d="M19.3392 9.90247C19.4097 9.80197 17.8045 9.7589 17.8045 9.7589C17.9376 9.57944 19.2452 9.00517 19.2452 9.00517C19.2452 9.00517 19.1748 8.57446 19.4567 8.30168L19.1043 7.59819C19.1043 7.59819 19.6524 7.35413 20.5451 7.35413C21.4377 7.35413 22.1033 7.85662 22.1894 8.2945L21.6883 8.53857C21.6805 8.87595 21.8214 9.37127 21.3516 9.78044C20.8896 10.1896 20.7017 10.2757 20.686 11.13C20.686 11.4099 20.8661 11.7186 21.3751 11.9699C22.7375 12.6375 24.3976 13.9942 24.8674 14.4033C25.345 14.8125 25.2667 15.7816 25.071 16.2123C24.8752 16.643 24.1235 17.2388 23.9512 17.1886C23.779 17.1455 24.0452 16.5282 23.6772 16.3559C23.6772 16.3559 22.9803 15.8103 22.3617 16.399C21.7431 16.9876 22.346 18.2079 22.6671 18.4089C22.9881 18.6099 22.8002 18.7678 22.5183 18.7678H20.318C20.0204 18.7678 19.8952 18.6027 20.1692 18.4089C20.7643 18.1361 21.1402 17.3106 20.7487 16.9517C20.365 16.6 19.3157 17.0594 19.0652 17.4039C18.8459 17.6049 18.3761 17.6624 18.055 17.3034C17.734 16.9445 17.734 16.5569 17.9689 16.4061C18.517 16.0616 17.9689 16.4061 17.9767 16.399C17.9767 16.399 18.9085 15.7816 20.318 15.7529C20.6234 15.7529 20.6938 15.595 20.4903 15.4083C20.4903 15.4083 18.0707 13.4414 18.29 12.2355C18.5249 10.9218 19.856 10.3475 19.3392 9.90247C19.2374 9.77326 19.3392 9.90247 19.3392 9.90247V9.90247Z" fill="black"/>
</g>
<defs>
<clipPath id="clip0_1193_747">
<rect width="40.0909" height="24.5" fill="white" transform="translate(0.977051 0.75)"/>
</clipPath>
</defs>
</svg>
