<svg width="41" height="26" viewBox="0 0 41 26" fill="none" xmlns="http://www.w3.org/2000/svg">
<g clip-path="url(#clip0_1193_725)">
<path d="M0.70459 0.750244H40.7955V25.2497H0.70459V0.750244Z" fill="white"/>
<path d="M9.63296 13.0001L0.70459 4.81213V21.1896L9.63296 13.0001Z" fill="black"/>
<path d="M13.3263 12.9999L0.70459 1.42224V4.812L9.63296 13L0.70459 21.1895V24.5729L13.3263 12.9999Z" fill="#FFB915"/>
<path d="M40.6258 15.3967C40.6304 15.3651 40.6888 15.3337 40.7955 15.3021V10.6033H18.1349L7.38615 0.750244H0.70459V1.4223L13.3263 13L0.70459 24.573V25.2497H7.38615L18.1349 15.3967H40.6258Z" fill="#007847"/>
<path d="M40.1052 17.7935H19.2181L11.084 25.2497H40.7957V17.7935H40.1052Z" fill="#000C8A"/>
<path d="M40.1052 8.20648H40.7957V0.750244H11.084L19.2181 8.20648H40.1052Z" fill="#E1392D"/>
</g>
<defs>
<clipPath id="clip0_1193_725">
<rect width="40.0909" height="24.5" fill="white" transform="translate(0.70459 0.75)"/>
</clipPath>
</defs>
</svg>
