<svg xmlns="http://www.w3.org/2000/svg" viewBox="0 0 412.42 481.02"><defs><style>.cls-1{fill:gray;}</style></defs><g id="Layer_2" data-name="Layer 2"><g id="Layer_1-2" data-name="Layer 1"><path class="cls-1" d="M72.76,145.2h33.78v30.21q0,27.61-13.64,42.39T53.27,232.58q-26,0-39.63-14.78T0,175.41V57.17q0-27.6,13.64-42.39T53.27,0q26,0,39.63,14.78t13.64,42.39V79.26H72.76V54.9q0-22.42-18.52-22.42T35.73,54.9V177.69q0,22.08,18.51,22.09t18.52-22.09Zm94.52-12.67V230H131.54V2.6h35.74v97.45h40.6V2.6h36.39V230H207.88V132.53ZM384.59,230H348.21Q345,220.24,345,202.05V166.32q0-15.6-5.52-22.25t-17.86-6.66H309.23V230H273.49V2.6h53.93Q355,2.6,367.7,15.43T380.37,54.9V72.76q0,35.08-23.39,46.13,23.72,10.08,23.71,48.4v35.08Q380.69,220.9,384.59,230ZM326.45,35.08H309.23v69.84h14q10.73,0,16.08-5.52t5.36-18.52V58.47Q344.64,35.09,326.45,35.08ZM0,423.85V305.61q0-27.28,14-42.23t40.27-14.94q26.31,0,40.28,14.94t14,42.23V423.85q0,27.3-14,42.23T54.24,481Q27.95,481,14,466.08T0,423.85ZM35.73,303.34V426.13q0,22.41,18.51,22.41t18.52-22.41V303.34q0-22.43-18.52-22.42T35.73,303.34ZM173.46,251l26.31,161.44L224.14,251h49.69V478.43H240.05V315.36L215.36,478.43H181.58L155,317.63v160.8H123.76V251Zm154.62,32.48v63.34h49.05v32.49H328.08v66.59H389.8v32.49H292.34V251H389.8v32.48Zm68-22v-8.8h-3.33V251h8.53v1.71h-3.34v8.8Zm6,0V251h2l3.2,5,3.19-5h2v10.51h-1.84V254L407.26,259h-.06L403.91,254v7.51Z"/></g></g></svg>