<svg xmlns="http://www.w3.org/2000/svg" viewBox="0 0 837.46 271.15"><defs><style>.cls-1{fill:gray;}</style></defs><g id="Layer_2" data-name="Layer 2"><g id="Layer_1-2" data-name="Layer 1"><path class="cls-1" d="M176.37,0C197.46,10.67,199.1,37.77,179,51.17c-3.24,2.17-8.57,1.18-12.94,1.66-.33-4.06-2.38-9.26-.62-11.95,3.48-5.31,9.1-9.19,13.76-13.75,2-2,5.86-5,5.41-6.07-1.38-3.15-4-6.89-7-7.91-3.36-1.15-8-.46-11.44,1-7.56,3.12-15.64,6.05-21.9,11.09-53.42,43-92.12,95.84-106.63,164.21A73.9,73.9,0,0,0,37.05,213c3,24.94,20.66,42.31,46.84,41,24.38-1.18,48.69-6.59,72.71-11.68,37-7.83,73.21-19.71,111.83-18.15,36.63,1.49,64.56,19.67,92.11,45.49-33.28-12.57-64.14-27.55-94.24,1.46-28.49-35.51-66.26-29.58-104-22-28,5.64-55.7,12.8-83.7,18.5-33.35,6.8-73.34-11.3-77-53.66-.08-.94-1-1.8-1.59-2.7V189.76c2.59-10.69,4.09-21.79,8-32C36.48,82.2,83.77,25,163.47,0Z"/><path class="cls-1" d="M762.87,142.13c8.22-9.11,18.34-3.76,30.08-5L734.47,241l3.15,3c3.18-1.37,7.25-1.93,9.39-4.26,9.89-10.77,19.18-22.09,28.85-33.07a18.67,18.67,0,0,1,9.55-6.07c-15.27,26-30.89,51.62-58.87,65.72-13.49,6.81-20,1.55-21.65-17.48-6.2,4.85-11.7,9.78-17.8,13.82-18.54,12.26-29.65,6.62-31-15.42a18.54,18.54,0,0,0-.84-3.15c-7.52,6.57-14.37,13.26-22,19-6.35,4.76-14.74,9.68-21.45,3.4-5-4.71-9.26-13.37-8.94-20,.58-11.93,4.78-23.69,7.62-35.49,1.07-4.44,2.57-8.78,4.06-13.79-10.06-1-16.29,1.91-21.25,10.7-11.53,20.43-25.43,39.23-45.35,52.4-9.2,6.09-19.45,13.57-30.5,5.63s-8.83-20.47-6-31.69c9.34-36.44,30.17-65.46,59.21-88.66,5.47-4.38,12.24-7.52,18.88-9.94,15.94-5.81,26.27,2.12,25.1,19.18-.41,6-2.17,12-3.91,17.77-1.63,5.44-4,10.65-6.39,16.66,9.47,2.26,14.64-1.54,18.59-9.64,23.38-48,51.14-93.16,89-131.11,13.85-13.87,29.5-26,45.09-38,7.28-5.59,16.57-10,25.82-3.91,5.12,3.34,2.59,20.9-3.63,29.23-1.25,1.67-3.6,2.51-7.49,5.09,2.94-10.38,5.21-18.36,7.47-26.34l-3.84-2.65c-6.63,5-13.68,9.45-19.82,15-32.15,28.89-55.19,64.85-77.3,101.45-7.28,12.06-13.82,24.57-20.7,36.87l2.24,1.83c3.57-2.69,7.57-5,10.64-8.13,24.15-25,48.09-50.14,72.19-75.16,2.57-2.67,5.68-4.82,8.55-7.2l2.29,2.35c-1.9,2.82-3.63,5.78-5.72,8.44-27.13,34.59-57,66.36-92.62,92.46a30.31,30.31,0,0,0-10,13.23,436.09,436.09,0,0,0-12.92,41.9c-.73,2.84,1.76,7.81,4.31,9.7,1.48,1.11,7.12-1,9-3.29a334,334,0,0,0,22.2-28.93c15.77-23.55,30.62-47.78,53.2-65.77a102.73,102.73,0,0,1,9.58-6.89C744.22,131.19,751.26,131.77,762.87,142.13Zm-74.28,92c-.4,8.69,3.79,11.62,9.93,7.89,3.59-2.18,7.32-5,9.51-8.47q24.59-38.93,48.41-78.34c1-1.68,1-5.38-.21-6.68s-4.79-1.79-6.61-1a36.76,36.76,0,0,0-9.64,6.57c-20.82,19.18-35.67,42.64-47.57,68.09C690.46,226.34,689.56,231,688.59,234.1ZM567.43,177.41c-11.07,15.28-22.31,31.07-25.81,50.61-.8,4.42,1,11.21,4.22,13.82,2.25,1.86,9.71-.15,13.19-2.7,14.69-10.79,24.14-25.85,31.91-41.22C583,191,575.79,184.69,567.43,177.41Zm31,12.41c3-12.85,6.65-24.25,8.12-35.92.92-7.34-4.19-11-12-8.3-9.56,3.35-17,13.31-16.6,22.65C578.42,179.31,584.92,185.45,598.38,189.82Z"/><path class="cls-1" d="M306.44,183.43c-5.83,4.59-11.08,9.32-16.91,13.15-7.66,5-16.18,9.25-24.94,3.09-8.47-6-7-14.86-4.83-23.52.43-1.69.47-3.48,1.11-8.56-5.36,5-8.37,8.72-12.15,11.24-11.47,7.68-22.45,16.95-35.08,21.8-17.82,6.85-32.21-3.29-32.25-22.41,0-11.7,4.43-23.54,7.68-35.08,1.62-5.76,5.07-11,8.07-17.28-8.61-.35-14.21,2.25-18.3,9.76-11.43,20.94-25.42,40-44.61,54.54A75.66,75.66,0,0,1,114.68,201c-12.9,4.69-22.8-2.13-24.32-15.81-1.86-16.72,3.11-32,10.65-46.48,13.45-25.89,31.26-48.14,56.28-63.67,10-6.23,21.56-13.11,32.88-4.64,11.58,8.67,7,21.33,3.89,32.8-1.27,4.71-3,9.3-4.49,14l2.49,2.82c9.41-7,19.1-13.63,28.17-21,8.3-6.78,15.9-14.42,23.89-21.6a36.4,36.4,0,0,1,5.3-3.66c14.76-9.1,29.61-8.87,36.07.51s1,30.09-10.67,38.38c-2.68,1.89-8.23,3.16-10.2,1.69-2.14-1.61-3.39-7.84-2-10.12,3.21-5.1,8.38-8.94,12.62-13.43,2-2.14,3.73-4.6,5.57-6.91-3-1.38-6-4-8.84-3.84-3.26.13-6.9,2.09-9.55,4.26-25.17,20.64-41.51,47.31-50.58,78.23-1.57,5.37.69,14.95,4.67,18,3.76,2.87,14.3,2.1,18.07-1.29,14.79-13.33,28.48-28,41.83-42.78,17-18.85,32.84-38.69,50-57.34,4.58-5,12.08-7.32,18.38-10.59,1.82-1,4.76-2,6.13-1.2,13.24,7.81,28,2,43.3,4.47-8.25,14.37-15.84,27.63-23.49,40.87-10.21,17.69-20.62,35.27-30.55,53.13-1.44,2.58-.66,6.4-.91,9.64,2.88-.81,6.67-.72,8.5-2.57,10-10.2,19.42-21,29.29-31.32A20.49,20.49,0,0,1,387,136c-13.59,23-29.42,43.58-50.8,59.29a42.81,42.81,0,0,1-6.42,3.88C315.27,206.29,308.94,202.21,306.44,183.43ZM363,83.83c-9.37-7.5-15-2.64-19.46,2.12-20,21.6-38.24,44.63-49.17,72.38-2.08,5.3-1,11.84-1.38,17.81,5.67-2.74,13.61-4,16.64-8.48C328,140.15,345.26,111.89,363,83.83ZM146.37,108.61c-7.87,17-16.37,34.05-23.48,51.69-1.54,3.84.46,11.74,3.57,14,2.72,2,10.39.23,14-2.43,15.38-11.42,25.26-27.35,33.57-43.29ZM190.73,88.9c-3.68-3.39-6.9-8.78-11.12-9.73-7.88-1.77-19.41,10.51-20.51,20-1,8.45,6.18,17.7,15.33,18.94,2.15.29,6-1.22,6.69-2.9C184.49,107.45,187,99.3,190.73,88.9Z"/><path class="cls-1" d="M714.33,37.35c-7,7.46-13.13,14-19.65,20.88-31-14-55.22-44.17-94.15-41.56,0,32.06-12.9,57.1-33.85,78.09-5.86,5.88-13.8,10.26-21.53,13.52-10.12,4.27-18-1.28-18.08-12.42a51.41,51.41,0,0,1,3.63-18.7c9.37-23.78,25.93-41.86,46.4-56.63,2.87-2.07,5.72-4.16,8.58-6.24-.28-1-.56-2.11-.85-3.16-6.83,1.61-14.22,2-20.41,5-25.67,12.33-46,31.48-64.34,52.91-30.26,35.37-57.28,72.84-70.85,118.13a126.24,126.24,0,0,0-5.41,37c.25,20.53,18.64,31.42,36.22,21,32.3-19.09,51.58-48,57.33-85.34C518,156,515.5,149,512.84,148c-3.71-1.32-11,.22-13.18,3.18-7.38,9.88-13.09,21-19.66,31.53-2.46,3.94-4.91,8.25-8.41,11.1-8,6.51-16.63,12.22-24.89,18.17-4-29.9,28.08-73.6,57.47-78,11.17-1.66,19.59,4.53,20.08,16.89a78.31,78.31,0,0,1-3.48,27.47c-11.56,34.48-32.16,62.73-63.71,81.11-9.92,5.77-23.11,9.14-34.49,8.43-21.15-1.3-35.76-20.92-34.47-47a153.74,153.74,0,0,1,11.09-50C423,113,460,64.52,511.16,28,525.75,17.62,543.12,10.66,560,4,570.55-.25,582.28-.21,593,6.57c2.37,1.49,6.79,1,9.77,0C626.6-1.6,649.28.55,671.09,13,685.09,20.91,699.14,28.78,714.33,37.35ZM592.19,22.22C574.11,24.77,538,65.75,533.64,90.63c-1.58,9.05,4.77,13.33,13.4,9.62C570.53,90.15,594.63,48.5,592.19,22.22Z"/><path class="cls-1" d="M724.3,70.28c9.12-12.78,15.94-23.88,34.4-23.16,24.46,1,45-12.28,64.31-26.29,4.91-3.56,9.51-7.56,14.45-11.51C826.39,44.84,768.46,76.57,724.3,70.28Z"/><path class="cls-1" d="M403,92c10.66-22.19,11.23-22.52,34-20.42C430.22,92.14,427.14,94,403,92Z"/></g></g></svg>