<svg xmlns="http://www.w3.org/2000/svg" viewBox="0 0 536.8 464.42"><defs><style>.cls-1{fill:gray;}</style></defs><g id="Layer_2" data-name="Layer 2"><g id="Layer_1-2" data-name="Layer 1"><path class="cls-1" d="M56.12,0V19c-1.41,0-2.45,0-3.49,0-5.54.14-11.13-.11-16.62.51C19.57,21.41,8.22,30,3.05,46a63.18,63.18,0,0,0-1,35.48c2,8,5.59,15.27,11.91,20.73,12.05,10.41,25.71,11.37,40.23,6.18.56-.2,1.1-.41,1.7-.64.19.64.34,1.17.47,1.6H80V0ZM54,87.11a26.91,26.91,0,0,1-14.88,2.48c-7.48-.91-12.35-5.15-14.42-12.35a41.62,41.62,0,0,1,0-23.74c2.45-8.25,7.88-13.33,16.57-14.34,4.82-.57,9.68-.74,14.87-1.11V40.5c0,14.41,0,28.81.05,43.21A3.2,3.2,0,0,1,54,87.11Zm122.87-5.63c-.24,0-.33-.08-.39,0-1.21.59-2.41,1.2-3.62,1.77-10.72,5-21.93,7.56-33.8,6.5-9.9-.89-17.83-9.12-18.09-18.82h58c-.45-8.17-.25-16-1.44-23.67-2.06-13.29-9.21-23.08-22.18-27.95a45.79,45.79,0,0,0-18.13-2.55c-17.64.69-30.32,8.88-37.38,25.19-4.27,9.85-5.25,20.22-4.07,30.84,2,17.73,13,31.42,29.91,36.13,17.29,4.83,34,2,50.16-5a3,3,0,0,0,1.14-2.28c.09-6.23.06-12.46,0-18.68A11.6,11.6,0,0,0,176.84,81.48ZM138.19,37.23c9-.14,15.74,5.52,16.3,14H121.54C122.43,43.76,129.52,37.37,138.19,37.23ZM275,107.57c0,.52-.05,1-.09,1.71H250.72v-2.61c0-17.33.06-34.67-.06-52a38,38,0,0,0-1.27-8.84c-.91-3.63-3.53-5.88-7.11-6.85A27.78,27.78,0,0,0,223,40.92c-1.42.65-1.42,1.7-1.42,2.93q0,31.18,0,62.36v3.13H197.7V19h2c6.53,0,13.05,0,19.58.05a3.61,3.61,0,0,1,2.52,1.47c4.27-1,8.5-2.3,12.81-3.05A41.65,41.65,0,0,1,258,19.86c9.69,4,14.27,12,15.95,21.83a68.56,68.56,0,0,1,.92,11.18C275,71.11,275,89.34,275,107.57ZM531,19.21v90.23H509.17c-1.17,0-2.45.2-2-1.84-3.34.92-6.34,1.82-9.37,2.57a46.78,46.78,0,0,1-21.82.11c-11.93-2.71-19.37-11-21.36-23.77a72.89,72.89,0,0,1-.85-10.74c-.08-17.93,0-35.85,0-53.78V19.17h24.16v2.66c0,17.18-.05,34.35.05,51.53A36,36,0,0,0,479.05,82c1.33,5.17,5.29,7.42,10.28,8a29.28,29.28,0,0,0,15.61-2.23,3.16,3.16,0,0,0,2.15-3.4c-.08-20.85,0-41.7,0-62.55V19.21Zm-109.36,87.5c-9.38,4.34-19.35,5.15-29.47,4.42A69.89,69.89,0,0,1,368,104.59a3,3,0,0,1-2.09-3.17c.11-6.67,0-13.34,0-20.35.88.35,1.55.62,2.22.87,11,4.18,22.23,7.27,34.14,6.9a27,27,0,0,0,6.19-.94c2.86-.77,4.59-2.74,4.55-4.91-.06-2.73-1.87-4.29-4.18-5-4-1.23-8.12-2-12.15-3.18-5.82-1.64-11.92-2.74-17.35-5.24-16.88-7.78-20.28-28.57-7.2-41.92,6.22-6.36,14.09-9.26,22.67-10.36a65.49,65.49,0,0,1,37,6.06,2.68,2.68,0,0,1,1.85,2.86c-.08,6.52,0,13,0,19.6C427.16,44,421,42.05,414.8,40.45S402.12,38,395.65,39.28a8.75,8.75,0,0,0-3.78,1.32A8.39,8.39,0,0,0,389,44.47c-.52,1.84.94,3.37,2.64,4,3.65,1.29,7.36,2.45,11.12,3.42,5.51,1.41,11.19,2.24,16.58,4,11.54,3.72,18.12,11.76,18.63,22C438.6,91.1,432.74,101.58,421.67,106.71ZM228.85,264.42v17.86H151.38v-79h77.45v17.92H177.7v13.44h30.51v14.92H177.67v14.88ZM533,269.59c-4.41,6.18-10.85,9.25-17.83,11.44-10.36,3.24-21,3.14-31.67,2.58a101.26,101.26,0,0,1-30.15-5.74c-2.05-.76-2.9-1.71-2.8-4,.21-4.86.06-9.73.06-14.93,1.52.85,2.78,1.6,4.07,2.27A66,66,0,0,0,479,267.87a175.24,175.24,0,0,0,19.72.49,15.87,15.87,0,0,0,6.84-1.94,10.67,10.67,0,0,0,4.18-4.14c1.65-3,.69-5.83-2.59-6.93a82,82,0,0,0-13.06-3.06c-9.25-1.44-18.64-2-27.59-5a44.49,44.49,0,0,1-5.79-2.42c-14.08-7.1-12.45-23.54-4.7-31.16,5.86-5.76,13.21-8.38,21-10.06,13.67-2.94,27.3-1.76,40.87.73,4.12.75,8.18,1.79,12.22,2.69v15.79c-6.23-1.52-12.39-3.4-18.7-4.49-8.72-1.51-17.57-2.41-26.34-.26a14.82,14.82,0,0,0-5.58,2.72c-3.92,3.16-3.38,8.8,1.3,10.53A83.33,83.33,0,0,0,495,234.64c8.32,1.49,16.73,2.57,25,4.17a23.28,23.28,0,0,1,11.33,5.7C537.91,250.56,538.66,261.63,533,269.59ZM120.7,282.47h-5.63c-7.65,0-15.3-.06-22.95,0a3.36,3.36,0,0,1-3.57-2.18q-13.42-27.31-27-54.56c-.39-.79-.82-1.57-1.44-2.78-1.86,3.52-3.55,6.7-5.21,9.89q-12.42,23.93-24.8,47.86c-.56,1.08-1.09,1.77-2.5,1.75-8.62-.06-17.25,0-25.87,0a11.37,11.37,0,0,1-1.26-.14c.37-.74.64-1.34,1-1.91q21-37.68,41.94-75.39a3.05,3.05,0,0,1,3.09-1.91q13.85.13,27.67,0a2.92,2.92,0,0,1,3,1.76q21.19,37.69,42.49,75.35C119.93,280.85,120.23,281.52,120.7,282.47Zm227.68-6.09a2.23,2.23,0,0,1-1.95,2.61A134.19,134.19,0,0,1,312,283.86c-10.63.24-20.94-1.12-30.68-5.52-11.36-5.11-19.45-13.22-22.12-25.73-4.36-20.35,4.81-37.25,24.41-45.31,11.75-4.84,24.08-6.26,36.6-5.23,7.89.65,15.69,2.26,23.54,3.43,1.75.26,2.42,1.07,2.36,3-.17,5-.06,10-.06,14.85-5.12-1.41-10.09-3.09-15.19-4.12-10-2-20.08-2.82-30,.67-8.51,3-15.08,8.22-17.36,17.34-2.81,11.3.95,25.78,18.9,29.33,7.36,1.46,14.78.71,22.17-.11,1.49-.17,1.92-.87,1.9-2.36-.08-6.15,0-12.3,0-18.45V243h21.68c.06.64.15,1.27.16,1.91C348.35,255.37,348.3,265.87,348.38,276.38Zm-1.45-170a2.25,2.25,0,0,1-1.16,1.73c-10.43,2.88-21,4.56-31.73,2.06-10.31-2.38-15.89-9.35-17.84-19.44a53.11,53.11,0,0,1-1-9.82q-.12-39.38,0-78.76c0-.66.06-1.32.11-2.14h23.83V18.9h27.72V40.09l-27.66-1.32V78.41c0,8.16,2.73,10.78,11,10.37a78.09,78.09,0,0,0,8.48-1c2.72-.43,5.42-1.08,8.4-1.69V98.28C347,101,347.06,103.68,346.93,106.37ZM323.64,391.25q-4.81,14.13-9.69,28.26c-4.31,12.53-8.57,25.07-13,37.57a8.74,8.74,0,0,1-3,4.23c-2.87,1.89-6.22.31-7.39-3.21-3.59-10.8-7.12-21.61-10.68-32.42-2.29-7-4.59-13.92-7.06-21.42-.45,1.2-.75,1.93-1,2.68-5.56,16.77-11.06,33.57-16.71,50.31a8.26,8.26,0,0,1-3.19,4.27c-2.77,1.6-5.74-.09-6.93-3.52q-5.3-15.28-10.55-30.57-6-17.42-12-34.83a12.08,12.08,0,0,1-.68-2.82c-.23-2.83,1.18-4.89,3.6-5.46a5,5,0,0,1,5.87,3.37c1.57,4.37,3,8.78,4.53,13.17q6.74,19.65,13.46,39.31c.17.48.39.95.74,1.81,1.82-5.52,3.53-10.67,5.22-15.83q6.1-18.57,12.2-37.14c1.26-3.84,2.79-4.94,6.08-4.62,2.86.29,3.77,2.4,4.53,4.66q5.7,17.06,11.38,34.12l6.35,19c1.17-3.38,2.13-6.13,3.07-8.88l14.87-43.82c.19-.56.36-1.14.59-1.69,1.2-2.93,3.73-4.15,6.51-3.15S324.64,388.32,323.64,391.25ZM162.37,421.93a68.88,68.88,0,0,0-.9-8.48c-2.9-17.22-14.16-29.05-30.51-31.28-16-2.17-29.73,4.08-37.28,19.13-4.87,9.7-6,20-4.17,30.65,3.21,18.54,16.1,33.34,37.72,32.4,11-.47,20-4.69,26.69-13.58a4.94,4.94,0,0,0-1-7.33c-2.42-1.76-5.33-1.19-7.27,1.36a17.22,17.22,0,0,1-2.78,3.22c-8.41,6.64-17.77,8.26-27.64,4.07-10.22-4.33-14.46-13.09-16.07-23.9h57.06C160.39,428.19,162.55,426.08,162.37,421.93ZM99.46,417.8a26.19,26.19,0,0,1,25.14-25.92c14.4-.53,25.71,10.15,27.29,25.92Zm304.46-13.92c-5.84-14.37-17.68-22.07-33.14-22.06-15.1,0-26.92,7.68-32.77,21.62a48.7,48.7,0,0,0,.07,39.35c5.15,12,14.18,19.58,27.41,21.26,16.18,2,29.91-4.27,37.21-19.22C409.25,431.45,409.52,417.63,403.92,403.88Zm-10.63,37.23c-4.9,8.74-12.52,13.17-22.46,13.14s-17.57-4.5-22.2-13.22c-6-11.28-6.13-23.07-.8-34.62,4.61-10,13-14.76,23.84-14.47s18.63,5.87,23,15.89a34.31,34.31,0,0,1,2.14,7.07c.51,2.71.62,5.49.9,8.25A37.21,37.21,0,0,1,393.29,441.11Zm141.45,12.57c1.92,3,1.57,5.48-1,7.22s-5.74,1-7.57-1.8q-10.86-16.82-21.65-33.66c-.2-.32-.43-.61-1.16-1.64a26.16,26.16,0,0,1-2.19,3c-3.14,3.23-6.3,6.43-9.56,9.54a4.4,4.4,0,0,0-1.43,3.55c.07,5.63.1,11.25,0,16.88-.07,4-3.78,6.45-7.16,4.64a8,8,0,0,1-2.77-3.51,7.39,7.39,0,0,1-.23-3.11q0-44.68,0-89.36a18.8,18.8,0,0,1,.17-2.91,5,5,0,0,1,9.95.18,24.28,24.28,0,0,1,.08,2.7v57.32l.76.4a16,16,0,0,1,1.49-2Q509.66,404,526.85,386.8c.48-.48.93-1,1.45-1.41a5.14,5.14,0,0,1,7,.29,4.87,4.87,0,0,1,.17,6.9c-3,3.18-6.11,6.19-9.17,9.28l-15,15.12,14.37,22.49Q530.19,446.56,534.74,453.68ZM414.12,203.25v79.06H388.19V203.25Zm-341.38,253c0,3.5-1.87,5.71-4.89,5.79s-5.3-2.19-5.31-5.68c0-13.58,0-27.16,0-40.73a23.34,23.34,0,1,0-46.67-.07q0,19.58,0,39.16a20.53,20.53,0,0,1-.18,3.14A4.89,4.89,0,0,1,10.62,462a5,5,0,0,1-4.9-4.39,15.39,15.39,0,0,1-.07-1.8q0-32.73,0-65.49A10.27,10.27,0,0,1,6,387.45a5,5,0,0,1,5.34-3.24,4.86,4.86,0,0,1,4.38,4.16c.12.73.19,1.46.33,2.64a35,35,0,0,1,18.18-8.9c17.69-2.92,36,10.64,38.17,28.45a45.76,45.76,0,0,1,.35,5.6Q72.77,436.2,72.74,456.22Zm137.83.7c0,3-2.18,5-5.65,5a70.21,70.21,0,0,1-7.4-.3c-8.59-.95-13.67-6.18-13.9-14.82-.27-10-.12-20.09-.13-30.14,0-7.34,0-14.68,0-22.41-2,0-3.81,0-5.65,0-3.6-.07-5.6-1.86-5.6-5s2.06-5,5.61-5c1.78,0,3.57,0,5.64,0v-3.51c0-5.62,0-11.24,0-16.87,0-3.29,2-5.35,5-5.36s4.94,2,5,5.41c0,5.85,0,11.7,0,17.55v2.78c4.17,0,8.05,0,11.94,0a4.82,4.82,0,0,1,4.59,2.69c.91,1.85.95,3.88-.49,5.25a8.05,8.05,0,0,1-4.45,2c-3,.31-6.13.09-9.21.1h-2.38V397q0,23.83,0,47.69a20.37,20.37,0,0,0,.22,3.12,4.23,4.23,0,0,0,4.23,3.91c2.32.16,4.64.15,7,.21C208.37,452,210.55,453.92,210.57,456.92Zm254.72-68.83c0,2.77-2.18,4.89-5.22,5.08-14.31.89-23.41,10.58-23.41,24.94q0,19.33,0,38.69a4.75,4.75,0,0,1-3.26,4.85,4.6,4.6,0,0,1-5.5-1.37,5.48,5.48,0,0,1-1.24-3.22q-.11-34,0-67.94a5,5,0,0,1,10,0c0,.95,0,1.9,0,3.41,5.51-4.95,11.25-8,18-9a41.94,41.94,0,0,1,5.14-.46A5.25,5.25,0,0,1,465.29,388.09Z"/></g></g></svg>