<svg xmlns="http://www.w3.org/2000/svg" viewBox="0 0 850.82 425.41"><defs><style>.cls-1{fill:gray;}</style></defs><g id="Layer_2" data-name="Layer 2"><g id="Layer_1-2" data-name="Layer 1"><path class="cls-1" d="M425.41,0C190.46,0,0,95.23,0,212.7S190.46,425.41,425.41,425.41,850.82,330.18,850.82,212.7,660.36,0,425.41,0Zm0,391.83c-216.4,0-391.83-80.2-391.83-179.13S209,33.58,425.41,33.58s391.82,80.2,391.82,179.12S641.81,391.83,425.41,391.83ZM371.76,175.39V141.8h120v33.59H448.56V283.61H415V175.39ZM636.64,141.8V283.61H603.06l-60.91-84.42v84.42H508.57V141.8h33.58l60.91,84.42V141.8ZM213.18,283.61V141.8h33.58l37.31,57.39,37.31-57.39H355V283.61H321.38V203.39l-25.47,39.16H272.23l-25.47-39.16v80.22Z"/></g></g></svg>