<svg xmlns="http://www.w3.org/2000/svg" viewBox="0 0 496.96 496.89"><defs><style>.cls-1{fill:gray;}</style></defs><g id="Layer_2" data-name="Layer 2"><g id="Layer_1-2" data-name="Layer 1"><path class="cls-1" d="M497,246.33v4.4c-.16,2.1-.47,4.2-.48,6.3a206.64,206.64,0,0,1-4.63,41.19,245.08,245.08,0,0,1-50,106.1A248.34,248.34,0,0,1,200.38,492.2,244.39,244.39,0,0,1,108.9,454,248,248,0,0,1,.83,228.46a242.54,242.54,0,0,1,6.25-39C19.6,139.14,45.19,96.62,84,62.32,125.8,25.42,174.75,5.07,230.3.67a233.89,233.89,0,0,1,32-.24,251.55,251.55,0,0,1,37.47,4.92A248.75,248.75,0,0,1,476.54,150c12.38,28.62,19.32,58.5,19.93,89.76C496.52,242,496.79,244.15,497,246.33ZM92.39,258.28l6.44,5.57,5.9,5.13,6.09,5.29,6.08,5.29q3,2.64,6.08,5.29c2,1.71,3.91,3.45,5.91,5.11s3.81,3.68,6.18,5.08c.52-2.83.41-85-.09-86.79H108.67v23c0,2.48,0,5,0,8-14.53-12.58-28.51-24.83-42.69-37.11-.7,2.7-.62,85.27,0,87.08,3.86.48,24.55.28,26.47-.32Zm350.69,31c-.45-1.94-46.9-85.64-48.5-87.44-2,2.39-47.9,85.09-48.43,87.33.14.07.28.19.42.19,8.63,0,17.26,0,25.89.06a1.89,1.89,0,0,0,1.83-1.29c1-2,2-3.89,3-5.89a2.48,2.48,0,0,1,2.6-1.67q14.77.09,29.54,0a2.35,2.35,0,0,1,2.43,1.54c1.14,2.43,2.38,4.8,3.57,7.16ZM314,228.86h25c.59-2.36.57-18.57,0-20.55-3.43-.45-49.95-.28-51.66.18-.47,3.53-.3,79,.21,80.84H339c.66-2.43.57-19.33-.14-21.31-4.08,0-8.23,0-12.38,0s-8.25.08-12.29-.07c-.55-2.91-.46-10.4.16-12.36h24.69c.62-2.84.51-13.65-.18-15.68H314ZM254.54,208.2c-6,11.81-11.82,23.75-18,36-.67-1.25-1.1-2-1.49-2.8-5.19-10.42-10.4-20.83-15.52-31.28a3,3,0,0,0-3.14-2c-8.06.09-16.12,0-24.18.05a21.28,21.28,0,0,0-2.15.23l46.26,86.87c2.11-2.52,46-85.05,46.27-87Zm-95.31,81.08H185.5c.54-2.65.45-79.16-.07-81-4.36-.49-24.56-.3-26.2.26Zm244.83-22.86-9.47-19.78-9.71,19.93C387.77,267.12,402.14,267,404.06,266.42Z"/></g></g></svg>