<svg xmlns="http://www.w3.org/2000/svg" viewBox="0 0 739.32 357.83"><defs><style>.cls-1{fill:gray;}</style></defs><g id="Layer_2" data-name="Layer 2"><g id="Layer_1-2" data-name="Layer 1"><path class="cls-1" d="M732.92,89.78h-3.41q-35,0-70,0a6.55,6.55,0,0,1-5.24-2.28C641,73.83,624.75,67.15,605.71,68.27a61.86,61.86,0,0,0-57.59,52.36c-5,33.56,16.9,64.78,50.44,70.47,25.24,4.29,45.79-4.67,61.32-25a14.42,14.42,0,0,0,1-1.73c.07-.14,0-.36-.08-.84h-52c-.7-2.34-1-43.25-.39-48.89a1.37,1.37,0,0,1,.19-.22.54.54,0,0,1,.23-.15,12.59,12.59,0,0,1,1.72-.2l126.62,0a2.94,2.94,0,0,1,.8.24c5.32,32.92-4.69,85.61-51.08,120.14-28.24,21-60.13,29.22-95,24.66s-63.08-21.35-85.33-48.52l-.58.33v42.92H438.15V117.4l-.66-.22c-4.67,6.08-9,12.44-13.43,18.67S415,148.61,410.42,155L397,173.93l-13.64,19.15-13.65,19.16L301.86,117l-.64.19c-.3,7.5-.09,15-.13,22.5,0,7.65,0,15.29,0,22.94v90.78c-2.27.7-62,1-67.88.34-.1-7.07,0-14.19,0-21.31s0-14.29,0-22.06c-33.48,38.92-75,55.93-125.41,47.84C74.52,252.92,47.56,236,27,209.43-13.53,157.11-7.79,81.94,40,36.31A130.39,130.39,0,0,1,191.11,15.09a136.42,136.42,0,0,1,41.63,34.36,72.48,72.48,0,0,0,.41-10.67c0-3.58,0-7.17,0-10.75V6.45c1.05-.1,1.79-.24,2.53-.24,20.23,0,40.47,0,60.7-.07,2.18,0,3.06,1.06,4.09,2.54q33.47,48.33,67,96.63c.65.93,1.33,1.85,2.2,3,1-1.37,1.78-2.45,2.54-3.54q33.07-47.71,66.11-95.48a6.43,6.43,0,0,1,6.08-3.21c19.26.14,38.53.07,57.79.07H506V49.3l.53.34c30.2-35.75,68.41-52.91,115.18-49C651,3.14,676.48,15,698,35.1A128.85,128.85,0,0,1,732.92,89.78ZM68.21,129.71a61.94,61.94,0,0,0,60.23,62.37c34.8.81,63.28-26.26,63.7-61.2a62,62,0,1,0-123.93-1.17ZM328.64,346.1c0-6.86.22-13.73-.05-20.58-.19-4.88-2.56-8.78-7.36-10.52-5-1.82-9.88-1.6-14.11,2.19-.54.49-1.11.95-1.66,1.41-5.89-5.7-10.54-6.1-17.59-1.54l-.63-1.76h-6.3v31.43h7.25v-3.35c0-4.06-.08-8.12,0-12.18a28.23,28.23,0,0,1,.72-6,5.23,5.23,0,0,1,5.12-4.35,5.66,5.66,0,0,1,6,3.6,14.67,14.67,0,0,1,.89,4.79c.11,5,0,10,0,15.08,0,.83.12,1.66.18,2.39h7.23v-3.43c0-4.35-.1-8.7.05-13.05a18.65,18.65,0,0,1,1-5.65,6,6,0,0,1,6.27-3.73c2.56.19,4.27,1.62,5,4.47a16.73,16.73,0,0,1,.5,4c.06,4.83,0,9.67,0,14.5,0,.94.09,1.89.14,3h6.88C328.49,346.44,328.64,346.27,328.64,346.1ZM118,317l-.67-1.89h-6.3v31.65h7.24v-3.05c0-4.74,0-9.48.07-14.22a17.43,17.43,0,0,1,.54-4c.79-3.1,2.61-4.57,5.48-4.65a5.71,5.71,0,0,1,6,4.14,17.11,17.11,0,0,1,.69,4.84c.09,4.64,0,9.29,0,13.93,0,1,.15,2,.22,3h7.33v-3.1c0-4.84-.09-9.68.05-14.51a13.62,13.62,0,0,1,1.1-5,6,6,0,0,1,6.3-3.23c2.64.32,4.1,2,4.79,4.41a10.23,10.23,0,0,1,.36,2.58c.08,5.12.11,10.25.18,15.37,0,1.14.09,2.27.15,3.56h7a3.61,3.61,0,0,0,.31-1c-.08-7,.13-13.94-.37-20.87-.48-6.73-5.3-10.73-12-10.95a12.56,12.56,0,0,0-10.8,4.76C130.25,312.88,124.38,312.42,118,317ZM107,325.63a22.28,22.28,0,1,1-22.44-22.11A22.1,22.1,0,0,1,107,325.63Zm-36.8,0a14.81,14.81,0,0,0,14.45,15.09,15,15,0,0,0,.22-29.93A14.72,14.72,0,0,0,70.16,325.59Zm308.83-21c-1.06-.06-1.91-.15-2.77-.16-3.44,0-3.44,0-4.83,3.2q-6.39,14.92-12.8,29.85c-.39.91-.87,1.79-1.55,3.19-.72-1.57-1.18-2.51-1.59-3.48q-5-11.6-9.9-23.2c-1.14-2.67-2.3-5.32-3.42-8-.36-.86-.81-1.54-1.86-1.53h-5v42.32h3.8V328.34c0-3.09-.05-6.19,0-9.28s-.26-6,.74-9.11c5.16,12.34,10.33,24.67,15.44,36.88h3.61c2.61-6.2,5.16-12.36,7.78-18.49s5-12.38,7.87-18.45l.72.16v36.72H379ZM260.45,348a17,17,0,1,1,17-16.85A16.67,16.67,0,0,1,260.45,348ZM270,331.25c.08-5.51-4.15-10.28-9.25-10.43S251,325.4,250.93,331a9.93,9.93,0,0,0,9.41,10.22C265.51,341.32,269.89,336.79,270,331.25Zm-98.71,15.5c0-1.13,0-2.08,0-3V329.5a9.78,9.78,0,0,1,1.72-6,6.1,6.1,0,0,1,5.81-2.6,5.28,5.28,0,0,1,4.86,4,27,27,0,0,1,1,6.25c.15,4.35,0,8.71.06,13.07,0,.84.12,1.68.18,2.58H192c0-7.25.32-14.31-.1-21.33-.36-6-4.16-9.88-9.77-11.14a11.31,11.31,0,0,0-9.6,2.11c-.44.33-.95.57-1.55.93l-.54-2H164v31.47Zm374-10.18a18.8,18.8,0,0,1-21,6.53c-7.16-2.32-13.11-9.35-12.82-17.78a18.64,18.64,0,0,1,12.41-16.94c7.12-2.56,15.52-.6,20.07,5.15,1.81,2.29,3.62,2.16,6.13,1.74a22.78,22.78,0,0,0-1.09-2,17.24,17.24,0,0,0-1.81-2.26c-6.12-6.15-13.46-8.53-22-6.84-13.52,2.69-21.44,17.25-16.21,29.7,6.11,14.54,25.87,18.56,37.15,7.54a20.86,20.86,0,0,0,6.53-13.69H524.18v3.48h23.4A10.58,10.58,0,0,1,545.27,336.57ZM222.93,314.14A17,17,0,0,0,226.11,348c7.16-.13,14.38-5.57,14.66-11.29-1.54,0-3.08.09-4.6,0a5.07,5.07,0,0,0-4.77,1.93c-2.11,2.52-5,3.13-8.18,2.18a9.46,9.46,0,0,1-7.06-8.34c-.56-4.11.7-7.69,4.27-10.13,3.34-2.29,8-2.27,10.39.61,2,2.37,4.17,2.69,6.83,2.52,1-.07,2.11,0,3.43,0C239.36,318,231,312.84,222.93,314.14Zm227.42,5.74V304.65H454v42.06h-3.49c-.13-1.45-.26-2.92-.44-5a15.63,15.63,0,0,1-14.79,5.82,16.1,16.1,0,0,1-10.11-5.16,16.39,16.39,0,0,1-.25-21.94,16.76,16.76,0,0,1,12.56-5.71c4.89-.12,8.91,2,12.29,5.51Zm-12.74,24.38a13,13,0,1,0-13-13.06A12.8,12.8,0,0,0,437.61,344.26Zm206.31-28.45h3.38c.11,1.58.21,3,.35,4.93,4.24-4.64,9-6.73,15-5.8a16.44,16.44,0,0,1-2.86,32.72c-4.62-.11-6.57-1-12-5.53-.66,2.65-.26,5.22-.33,7.74s0,5.19,0,8h-3.37C643.51,355.84,643.33,319.87,643.92,315.81Zm16,28.45a13,13,0,0,0,.24-26.08,13,13,0,0,0-13,13.1A12.86,12.86,0,0,0,660,344.26ZM417.12,332.59H389c-1.06,3.77,3.44,9.47,8,11,5.81,2,10.82-.1,15.69-6.76h3.08c-.45,6.22-8.74,11.42-16.86,10.69-8.67-.78-15.12-8.95-14.26-18,.83-8.71,9.32-15.76,17.76-14.75C411.3,315.84,418.22,324,417.12,332.59ZM388.86,329H413c0-5.55-5.31-10.5-11.48-10.78A12.16,12.16,0,0,0,388.86,329Zm109.89-8.89c.08-1.34.16-2.68.25-4.23h3.1c.69,2.19.78,27.9.07,31l-3.09.15c-.13-1.6-.25-3.07-.37-4.67-2.18,1.46-4.13,3-6.25,4.15a11.53,11.53,0,0,1-7.34,1.13,31.36,31.36,0,0,1-6.93-1.84,13.32,13.32,0,0,1-5.7-4.8,16.43,16.43,0,0,1,1.83-21.45,16.8,16.8,0,0,1,12.39-4.75,14.32,14.32,0,0,1,11.53,5.77Zm-12.61,24.18a13,13,0,1,0-12.92-13A12.61,12.61,0,0,0,486.14,344.26Zm102.46,3.39c-8.71.4-16.53-7.54-16.49-16,0-9.25,7.33-16.9,16.35-16.91A16.75,16.75,0,0,1,605,331.16,16.53,16.53,0,0,1,588.6,347.65ZM576,331.24a12.68,12.68,0,0,0,12.4,13,12.85,12.85,0,0,0,12.82-13,13,13,0,0,0-12.47-13.09C581.79,318.06,576,324,576,331.24Zm60.74-15.41h-3.35v3q0,7.11,0,14.22a12.16,12.16,0,0,1-2,7.15c-2.31,3.34-6.44,4.78-10.82,3.81-3.75-.83-6.14-3.57-6.68-7.81a48.06,48.06,0,0,1-.36-5.5c-.05-4.06,0-8.12,0-12.19,0-.92-.12-1.85-.19-2.93l-3.45.17c0,2.19,0,4.19,0,6.2,0,4.84-.16,9.69.2,14.5.39,5.18,3.17,9,8.29,10.42s10,1.39,13.89-3a13.5,13.5,0,0,1,1.33-1.12c.15,1.53.27,2.74.4,4,.76,0,1.33.09,1.9.08a6.63,6.63,0,0,0,1-.18C637.46,343.15,637.31,317.82,636.71,315.83Zm-439.5,30.94h6.9c.66-3.72.48-29.56-.17-31.51h-6.73Zm364.6-27.27c-.13-1.5-.21-2.52-.32-3.7H558v31h3.47c0-1.08.13-2,.13-3,0-5,0-10,0-15.06.05-5.24,2.43-8.31,7.38-9.71.53-.15,1.05-.37,1.59-.57V315C566.7,314.64,564.2,316.61,561.81,319.5ZM461.09,346.75h3c.63-4,.43-29-.25-31h-3C460.31,319.92,460.49,344.79,461.09,346.75ZM204.28,304.63h-7V311h7Zm260.16,2.71c0-.84-.1-1.68-.17-2.7h-3.42v6.67h3.59C464.44,309.79,464.46,308.57,464.44,307.34Z"/></g></g></svg>