<svg xmlns="http://www.w3.org/2000/svg" viewBox="0 0 574.41 676.01"><defs><style>.cls-1{fill:gray;}</style></defs><g id="Layer_2" data-name="Layer 2"><g id="Layer_1-2" data-name="Layer 1"><path class="cls-1" d="M19.61,334.29h0c.1-.22.19-.44.29-.67Zm551.21,226C557.06,547.92,542.36,536.81,525,530c-19.06-7.47-36.44-17.65-51.54-31.29-4.92-4.46-8.8-5.7-14.71-3.4a216.85,216.85,0,0,1-70.39,14.75c-19.55.71-39.19-1.32-58.8-2-6.31-.22-9.13-3.66-8.83-9.49.7-13.45,1.68-26.87,2.72-40.3.34-4.24,2.8-6.51,7.17-7.73,16.64-4.64,33.67-8.46,49.61-14.93,22.12-9,43.55-19.72,64.95-30.35,24.65-12.24,46.62-28.53,67.64-46.2,4.49-3.78,5.85-7.69,5.82-13.31a293,293,0,0,0-10.2-74c-6.54-24.78-16.93-47.74-29.94-69.55-25.87-43.34-61.43-76.7-105.82-100.64a110.14,110.14,0,0,1-43.82-42.72c-2.58-4.45-1.9-7,2.32-10,4.73-3.36,8.71-7.78,13.08-11.66,3.27-2.89,6.58-5.77,10-8.48,4.93-3.9,10-7.65,15.9-12.14-2.83-1.37-3.76-2-4.78-2.31-12-3.56-24-7.07-35.94-10.64-1.94-.57-3.77-1.81-5.73-2-6.43-.56-12.93-4.23-19.15,1.52C282.44,23.7,281.18,56,298.68,79.82c13.07,17.77,30.67,29.77,49.56,39.79,23.76,12.59,42.82,29.19,54.64,53.78,9.08,18.92,11.77,38.68,9.95,59.29-.64,7.23-2.12,7.95-8.25,4.45-2.73-1.55-5.16-3.61-7.9-5.11-39.29-21.41-80.82-34.58-125.92-36.68a277.45,277.45,0,0,0-112.61,17.74A265.44,265.44,0,0,0,57,281.41a412.13,412.13,0,0,0-28,32.72A35.51,35.51,0,0,0,25.5,320c-1,2.09-1.87,4.27-2.73,6.46-.34.88-.67,1.76-1,2.63s-.68,1.75-1,2.62c-.27.64-.53,1.28-.81,1.91l-.3.67h0l0,0a.29.29,0,0,0,0,.08,23.85,23.85,0,0,0,4.08-1.92c10.59-7.71,21.11-15.5,31.65-23.25h0l.16.08-.22.06c-.17.32-.35.63-.53,1v0c-.32.65-.65,1.33-1,2A20.88,20.88,0,0,1,51,317.09c-5.74,6.68-12.65,12.52-17.57,19.71C26.17,347.44,19.31,358.55,14,370.24c-4.7,10.29-7.85,21.47-10.33,32.56a144.21,144.21,0,0,0,.15,65.12c3.45,14.61,9,28.74,13.59,43.09l2.19-.56a12.25,12.25,0,0,0,.48-2.5,312.74,312.74,0,0,1,10-85c1.82-6.93,4.32-5.7,8.75-4,22.11,8.56,43.95,18,66.49,25.27,23.75,7.65,48.21,13,73.26,14.94,8.51.64,17,1.95,25.36,2.95,1.52,17.24-42.4,47.54-75.78,52.22C123.67,581.31,87.57,631.84,41.91,676c17.52-3.62,35.31-7.31,53.23-11,1.06-4.45,2.16-9.27,3.36-14.06,8.92-35.29,27.05-64.71,55.38-87.8,6.16-5,13.52-9.89,17.11-16.56,20.16-37.43,49.1-64.94,88.39-81.14,8.72-3.6,18.31-5,27.92-7.56,5.85,32.38,3.38,62.74-2,94.08,3-.71,4.66-1.05,6.29-1.51,8-2.24,15.78-5.29,23.88-6.65,22.61-3.77,45.25-8.62,68-9.77,27.63-1.38,55.43.87,83.17.88,7.43,0,11,3.26,13.84,9.27,5.05,10.81,16.3,14.38,28.3,8.4L497,541.65c3,0,5,1.17,7.07,2.34,9.91,5.72,19.5,12.54,32,7.41a9.63,9.63,0,0,1,6.61,0c7,2.84,13.93,6,20.77,9.34,3.76,1.82,7.31,4.09,11,6.14A12.34,12.34,0,0,0,570.82,560.27ZM109.66,290.49c-3.43,2.32-8.78,2-13.29,2.43-1.14.12-2.45-1.53-4.52-2.93l45.81-23.87,1.15,2C129.15,275.64,119.79,283.62,109.66,290.49Zm-90,43.91c-.12.1-.24.23-.37.35.1-.15.21-.29.3-.45h0l0,0A.29.29,0,0,0,19.68,334.4Zm35.75-25.18.16.08-.22.06a.47.47,0,0,1,0-.09s0,0,0,0Zm.77.37-.61-.29a.59.59,0,0,1,.29,0C56,309.3,56.09,309.48,56.2,309.59Z"/></g></g></svg>