<svg xmlns="http://www.w3.org/2000/svg" viewBox="0 0 1022.66 225.45"><defs><style>.cls-1{fill:gray;}</style></defs><g id="Layer_2" data-name="Layer 2"><g id="Layer_1-2" data-name="Layer 1"><path class="cls-1" d="M.25,121c1-.14,1.75-.32,2.53-.35,8.23-.34,24.67-.12,28,.38a8.67,8.67,0,0,1,.47,1.82c.52,9.25,5.3,15.85,13,20.54a31.32,31.32,0,0,0,15.92,4.54,39.68,39.68,0,0,0,14.12-1.78c6.89-2.38,12.18-6.56,15-13.5,2.88-7.18,1.53-13.63-3.49-19.35a26.28,26.28,0,0,0-12-7.54c-4.52-1.48-9.14-2.69-13.73-3.91-5.4-1.44-10.84-2.69-16.22-4.16a78.57,78.57,0,0,1-19.58-8.06,49.41,49.41,0,0,1-13.9-11.89A41.33,41.33,0,0,1,1.64,53.89C.85,40,5.11,27.82,14.72,17.67A54.77,54.77,0,0,1,37.37,3.53,66.35,66.35,0,0,1,59.46,0C69.9.11,80,2,89.4,7c15.27,8.17,24.15,20.78,26.38,38,.34,2.69.37,5.43.48,8.15a5.12,5.12,0,0,1-.39,1.5,5.31,5.31,0,0,1-1.27.36q-13.5,0-27,0A11.85,11.85,0,0,1,86,54.76c-.88-1.55-.77-3.23-.93-4.81-.88-8.58-5.54-14.43-13.27-17.68-9.3-3.9-18.62-3.41-27.7,1a24.27,24.27,0,0,0-6.79,5.18C31.15,44.8,30.56,56.42,39,63a27.14,27.14,0,0,0,9,4.69c5.88,1.71,11.79,3.3,17.71,4.89,7.23,1.94,14.53,3.62,21.47,6.5a74.65,74.65,0,0,1,15.12,8.06c8.57,6.12,14.9,13.89,17.78,24.21a43.65,43.65,0,0,1,1.51,10.08c.36,9.85-1.36,19.28-6.21,28a50.09,50.09,0,0,1-22.79,21,68.35,68.35,0,0,1-21.93,6,72.18,72.18,0,0,1-33-3.57c-11.18-4-20.64-10.43-27.76-20A47.58,47.58,0,0,1,.38,128c-.11-1.35-.33-2.71-.38-4.06A25,25,0,0,1,.25,121ZM544.9,3a17.41,17.41,0,0,0-.19,2q0,84.21.12,168.43a.89.89,0,0,0,.09.39,5.27,5.27,0,0,0,.56.6c3.07.28,6.45.09,9.82.12s6.82,0,10.22,0,6.75.17,10.08-.14c.75-1.71.5-3.22.5-4.69q0-24.94,0-49.88c0-1.36,0-2.73,0-4.09a17.1,17.1,0,0,1,.52-2.44c1.67,0,3.15-.1,4.63-.1,10,0,19.9,0,29.84,0a90.19,90.19,0,0,0,13.45-.78c17.81-2.62,31-11.74,38.16-28.35,7.34-16.91,7.29-34.21.63-51.33C658.8,21,650.8,12.15,639.15,6.88a51.59,51.59,0,0,0-21.38-4.71q-34.75-.06-69.5,0c-.95,0-1.89.1-2.82.15C545.06,2.78,544.91,2.88,544.9,3Zm35.38,28.3h33.91c9.43,0,16.11,4.45,20,12.92a31.14,31.14,0,0,1,.8,25c-3.68,9.41-10.66,14.56-20.88,14.88-5,.16-10.08.08-15.11.09q-9.19,0-18.39,0c-1.33,0-2.65-.14-4.17-.23a19.91,19.91,0,0,1-.28-2.17c0-16.6,0-33.2,0-50.27C577.89,31.43,579.08,31.29,580.28,31.29ZM160.87,168c2.8,1.39,5.51,3,8.4,4.19a63.47,63.47,0,0,0,38.87,3.17c18.35-4.13,32.1-14.48,40.8-31.22,6.65-12.79,8.24-26.48,5.87-40.55C251.12,81.7,239,66.29,218.32,57.93c-12.6-5.11-25.76-5.72-39-3a57.15,57.15,0,0,0-34.17,20.88,58.45,58.45,0,0,0-12.92,36.71c-.13,16.22,0,32.45,0,48.67q0,29.46,0,58.9a16.37,16.37,0,0,0,.36,5.05c2.9.5,5.74.21,8.57.26s5.45.06,8.18,0,5.66.29,8.66-.34c.32-4,.13-7.81.16-11.6s0-7.64,0-11.45V190.15c0-3.81-.05-7.63,0-11.45s-.3-7.57.3-11.66C159.45,167.42,160.18,167.66,160.87,168Zm1.39-51.68a32.48,32.48,0,0,1,1.86-12.83c4.47-11.58,12.94-18.14,25.21-19.84a32.86,32.86,0,0,1,13.74,1C213,87.49,220,93.72,223.5,103.5a32.9,32.9,0,0,1-1.88,27.29C215.74,142,206,147,198.14,147.17,175.71,147.33,162.78,133.69,162.26,116.32Zm539.35,10c2.18,0,4.36,0,6.54,0q38,0,76.08,0c1.6,0,3.25.29,4.69-.35a5.43,5.43,0,0,0,.46-.87,9.67,9.67,0,0,0,.33-1.6c.66-7.35.79-14.71-.77-22-4.57-21.36-16.9-36.33-37.41-44a66,66,0,0,0-43.35-1.11c-17.89,5.48-30.5,17.1-37.35,34.57a64.31,64.31,0,0,0-2.51,39.37c4.82,19.84,16.56,34.15,35.57,41.94,16.39,6.72,33,6.48,49.34-.31,15.6-6.5,26.51-17.85,32.71-33.63.33-.85.94-1.7-.12-3-10.62,0-21.5,0-32.68,0-.58.71-1.13,1.5-1.79,2.18-8.94,9.19-19.86,11.49-31.93,8.52-8.94-2.2-15.44-7.83-19.48-16.16-.45-.93-1.2-1.9-.52-3.3A18.62,18.62,0,0,1,701.61,126.32Zm-.51-28.25a27,27,0,0,1,12.8-11.6c11.74-5,23.08-4.27,33.74,3a26.16,26.16,0,0,1,8.42,9.83,11.13,11.13,0,0,1,.57,1.68c-.64,1.13-1.52.93-2.29.93q-6.95,0-13.89,0-18,0-36,0c-1.45,0-3,.27-4.28-.35C699.57,100.06,700.52,99.07,701.1,98.07ZM1022.48,170q0-24.33,0-48.66c0-1.22-.06-2.45,0-3.67a59.94,59.94,0,0,0-1.26-16.64,57.81,57.81,0,0,0-17.64-31.57C993,59.63,980.33,54.56,966,53.67a68.62,68.62,0,0,0-25.05,2.64c-16.44,5.19-28.73,15.34-36,31-6.65,14.23-7.62,29.11-3.77,44.28a58.16,58.16,0,0,0,19.37,31c9.23,7.74,19.9,12,31.8,13.76a47.59,47.59,0,0,0,30-5.29c3.48-1.84,6.82-4,10.25-5.93.77-.45,1.61-.79,2.68-1.3,1,3.88-.1,7.6.76,11.07,3.38.57,21.89.63,26.38,0C1022.4,173.18,1022.48,171.56,1022.48,170Zm-35.75-35.69c-5.53,7.81-13.16,12-22.65,12.82A32.17,32.17,0,0,1,947,144.19c-10-4.83-15.45-13-17.24-23.75a32.17,32.17,0,0,1,2.55-19.52c4.84-10.15,13.06-15.73,24.11-17.23a32.22,32.22,0,0,1,19.43,3.06c9.89,5.06,15.13,13.32,16.45,24.22.15,1.21.19,2.43.25,3.35C992.47,121.71,990.88,128.38,986.73,134.26ZM310.86,55.48c-20.42,5.54-34.4,18.14-41.33,38.25a64.62,64.62,0,0,0-2.12,33.88c3.53,18.09,13.1,32.15,29.24,41.32,14.38,8.17,29.88,10,45.85,6.35,21.38-4.93,36.06-17.91,43.71-38.49a62.84,62.84,0,0,0,2.76-33c-3.89-22.55-16.51-38.11-37.88-46.37a59.87,59.87,0,0,0-23-3.86A60.65,60.65,0,0,0,310.86,55.48Zm-14.44,61.86A33.71,33.71,0,0,1,298,104.07c3.95-11.29,12-17.9,23.58-20.18a32.23,32.23,0,0,1,15.75.77c10.69,3.25,17.75,10.18,20.9,21A33.5,33.5,0,0,1,357.05,128c-5.25,13.08-17.32,19.33-29.15,19.17C309.93,147.42,297.35,133.93,296.42,117.34Zm569-60.21c-8.15-3.23-16.64-3.94-25.3-3.49a47.35,47.35,0,0,0-22.4,6.93,38.93,38.93,0,0,0-9.08,7.56c-7,7.92-9,17.21-7.58,27.43,1.31,9.52,6.29,16.71,14.26,21.87a61.3,61.3,0,0,0,7.16,3.91,73.81,73.81,0,0,0,14.71,4.88c4.63,1.1,9.27,2.18,13.89,3.36a24.72,24.72,0,0,1,8.49,3.89c4.56,3.31,4.53,9.08.62,12.71a14.31,14.31,0,0,1-6,3.29,31.86,31.86,0,0,1-15.76.25,17,17,0,0,1-3.48-1.18c-4.28-2-7.29-5.18-8.44-9.9-.25-1-.62-2-.91-2.92-3.13-.42-20-.65-25.57-.36a17,17,0,0,0-1.8.29,5.41,5.41,0,0,0-.46.94,4.92,4.92,0,0,0-.11,1.21,39.12,39.12,0,0,0,4.93,17.54c5.26,9,13.14,14.89,22.79,18.31,15.07,5.33,30,4.19,44.69-1.71a34.66,34.66,0,0,0,13-9.05c7.9-8.81,9.85-19.2,7.75-30.52-1.69-9.06-6.73-16-14.33-21a51.29,51.29,0,0,0-16.1-6.83c-6.33-1.61-12.67-3.2-19-4.84a26.26,26.26,0,0,1-7.84-3.39c-5.71-3.74-3.71-11.42.73-13.5A23.29,23.29,0,0,1,850.54,81c4.63,1.2,7.62,4.08,8.32,9a15,15,0,0,0,.52,1.93,13.18,13.18,0,0,0,2.15.36q12.47,0,24.94-.09a4.71,4.71,0,0,0,1.36-.5C888.19,74.62,878.72,62.39,865.46,57.13ZM476.8,7q0,60.94,0,121.89a89.9,89.9,0,0,0,.91,11.81,47.26,47.26,0,0,0,3.63,12.94,32.27,32.27,0,0,0,21.11,18.51A54.71,54.71,0,0,0,517,174.44c5,.15,10.09.1,15.13.11a12.26,12.26,0,0,0,1.82-.26c.59-3.35.82-16.72.46-25.54a15.79,15.79,0,0,0-.39-2.27c-1.74-.78-3.4-.42-5-.51-3.53-.2-7.1-.16-10.59-.64-5.34-.74-9.06-3.62-10.18-9.15a31.9,31.9,0,0,1-.76-6.06c-.06-15.13,0-30.27,0-45.4a20.38,20.38,0,0,1,.34-2.51c1.55-.08,2.89-.19,4.22-.19,6.14,0,12.27,0,18.41,0,1.05,0,2.1-.18,3.07-.26.72-3.17,1-14.49.56-23a18.06,18.06,0,0,0-.51-2.54c-1.64-.06-3.11-.17-4.59-.17-5.72,0-11.45,0-17.18,0-1.33,0-2.74.25-4.23-.9,0-1.25-.11-2.72-.11-4.2,0-14.73,0-29.46,0-44.18,0-1.44.46-3-.67-4.25-4.77-.5-26.37-.38-29.9.26ZM402,174.51q13.5,0,27,0a7.72,7.72,0,0,0,1.74-.5v-5c0-22.63,0-45.27,0-67.9a52.33,52.33,0,0,1,.81-9.35,10.85,10.85,0,0,1,8-8.94A21.1,21.1,0,0,1,446,82c5.73,0,11.45,0,17.18,0,.92,0,1.83-.17,2.83-.26a8.5,8.5,0,0,0,.4-1.73q0-11.25-.07-22.49a4.22,4.22,0,0,0-.52-1.28c-1-.08-2.1-.24-3.17-.25-7.09,0-14.18-.12-21.27,0a87,87,0,0,0-10.55,1,35.87,35.87,0,0,0-9.72,3c-8.54,3.9-14.09,10.49-17.28,19.2a62,62,0,0,0-3.48,21.28c-.06,23.31,0,46.63,0,69.94,0,1.19.18,2.38.29,3.69A9.24,9.24,0,0,0,402,174.51Z"/></g></g></svg>