<svg xmlns="http://www.w3.org/2000/svg" viewBox="0 0 1037.6 405.8"><defs><style>.cls-1{fill:gray;}</style></defs><g id="Layer_2" data-name="Layer 2"><g id="Layer_1-2" data-name="Layer 1"><path class="cls-1" d="M211,405.8c-16.63-5.91-30.08-17.21-44.64-26.56C120.1,349.55,74.1,319.48,28,289.5,8.61,276.85-1.57,259.48.7,235.72,2,221.91,7.21,209.63,14.77,198.2c.7-1.06,1.52-2.06,2.49-3.38,1.3.74,2.55,1.36,3.71,2.11,72,46.8,143.88,93.82,216.11,140.29,21.4,13.77,23.36,41.47,8.53,57.44-5.27,5.69-12,8.69-19.07,11.14Zm-166.88,0c2.72-1.13,5.67-1.9,8.14-3.44C69.11,391.74,85.89,381,103.13,370c-2.32-1.53-4.1-2.72-5.9-3.88-14.5-9.35-28.68-19.27-43.61-27.9-18.52-10.7-41.85-2.45-50.46,16.92a36.22,36.22,0,0,0,21.55,49.09c1.31.45,2.55,1.07,3.82,1.61Zm993.5-105.35a7.27,7.27,0,0,1-.82-2.29q0-46.89.12-93.8l-13.22-8.31v39.19C1008.07,218.7,988.87,215.57,972,227c-14.3,9.69-19.18,23.94-17.46,40.53,1.74,16.81,10.46,28.85,26.84,34,16,5,30.13,1.86,41.21-11.48.22-.25.64-.33,1.41-.72v12.83h13.61Zm-42-9.41c-16.17-.07-27.88-12.25-27.8-28.92.08-17,11.86-29.13,28.16-29.08s27.94,12.21,28,29.22S1012.09,291.11,995.56,291Zm42-86.44-.7-.24q-.08,46.9-.12,93.8a7.27,7.27,0,0,0,.82,2.29ZM98.13,114.66c23.76-15.46,47.56-30.85,71.27-46.39,13.85-9.07,20.3-24.17,17-39C180.57,3.38,152-8.22,129.43,6.4q-46.38,30-92.51,60.43a47.86,47.86,0,0,0-7.36,6c-14.27,14-19.77,31.28-18.45,51,1.35,20,9.7,36.44,26.57,47.48q99,64.76,198.28,129c.92.59,1.94,1,3.11,1.63,12.62-17.49,19.37-36.36,15.66-57.72-3-17-14.16-28.58-28.06-37.68-30.08-19.71-60.3-39.22-90.47-58.82L91.82,118.78Zm97.78,36.11c15,8.71,33.84,4.24,44.76-9.12a36.35,36.35,0,0,0-.27-46.11c-11-13.15-30-17.38-44.9-8.61-16.8,9.9-32.91,21-49.84,31.86C162.69,129.71,178.92,140.9,195.91,150.77ZM740.13,85.29a6.42,6.42,0,0,0-2.43,4.3c-.24,7.32-.11,14.66-.11,22v6.53c-17-21.79-43.1-17-55.66-6.1-16.81,14.55-19.11,43-4.73,60.13a37.78,37.78,0,0,0,25.25,13.46c14,1.73,25.64-2.7,35.23-14.8v13.51h13.26V78.63C746.86,81.09,743.33,83,740.13,85.29Zm-2.55,59.15c0,16.82-11.79,29-28.17,29-16.1,0-27.94-12.2-27.95-28.81,0-17,11.68-29.22,27.94-29.23S737.53,127.54,737.58,144.44Zm189.76-32.91c-16.72,13.62-19.77,41.63-6.32,59.34a37.13,37.13,0,0,0,24.64,14.54c14.49,2.26,26.85-1.84,37-14.78v13.64h13V78.7c-3.7,2.23-6.78,4.28-10,6-2.45,1.3-3.36,2.91-3.29,5.76.22,8.84.08,17.69.08,27.68C966.18,97.14,940.73,100.62,927.34,111.53Zm26.94,61.93c-16.09,0-28-12.18-28-28.77,0-17,11.66-29.25,27.93-29.27,16.56,0,28.23,12.17,28.15,29.41C982.29,161.45,970.52,173.45,954.28,173.46Zm-119.19-56c-18-18-40.84-19.48-57-4s-17.12,43.7-2.22,59.92c7.62,8.29,17.21,12.17,28.37,12.59,12.5.47,22.54-4.4,31.07-14.9v13.44h13.09v-80h-13.3Zm-27.86-2c16.44.1,28.14,12.43,28,29.55-.13,16.6-12.26,28.67-28.64,28.5-16-.17-27.6-12.45-27.5-29.13C779.19,127.41,791,115.33,807.23,115.42ZM562.6,104.64H549.27v12.62a10.21,10.21,0,0,1-1.41-1.1c-14.51-18.3-39.69-15.88-53.06-4.93C482.85,121,479,134,479.8,148.91a39.61,39.61,0,0,0,48.27,36.25c8.45-1.91,15.13-6.49,21.4-14.1v13.47H562.6Zm-40.74,10.8c16.45.29,27.9,12.83,27.45,30.08-.42,16.58-12.4,28.22-28.74,27.94-16-.28-27.5-12.71-27.17-29.46C493.73,126.84,505.38,115.16,521.86,115.44Zm16.52,116.24c-15.19,15.32-15.84,43.17-1.34,59,6.91,7.56,15.58,11.54,25.76,12.47,13.45,1.22,24.47-3.33,33.76-14.78v13.42h12.91V222H596.62v12.94C576.38,216.57,554.37,215.55,538.38,231.68Zm30.11,1.18c16.3.15,28,12.33,28,29.16,0,16.61-12,28.9-28.31,28.89s-27.9-12.22-27.81-29.19S552.18,232.71,568.49,232.86Zm216.42-10.15c-18.17-6.68-38.12-.16-47.64,15.58-10.59,17.48-7.73,41.81,6.38,54.33,14.59,12.95,42.06,14.53,57.66,3.25a4.19,4.19,0,0,0,1.76-2.61c.21-3.48.08-7,.08-10.16-5.84,2.27-11.15,4.95-16.77,6.38-11.26,2.86-22.35,2.65-32-5.13a24,24,0,0,1-9.15-17.45h62.91C811.81,247.71,801.78,228.91,784.91,222.71ZM745.6,256.05a25,25,0,0,1,25.49-23.68c13.06.18,23.19,10.24,23.41,23.68Zm190.55,28a49.49,49.49,0,0,1-28.53,6.88c-14.1-.74-25.68-11.37-26-24.27H944.4c4.28-28.34-17.07-52.58-48.24-45.1-29.55,7.08-34.8,43-23.75,62,13.65,23.43,47.26,24.19,65.4,12a3.49,3.49,0,0,0,1.27-2.44c.14-3.41.06-6.83.06-10.76C937.83,283.14,937,283.57,936.15,284.06Zm-28.58-51.68c13.07.38,22.66,10.13,23.09,23.68h-49C882.9,241.9,893.83,232,907.57,232.38ZM514.06,250.62c-.61-13.33-6.43-24.19-20.16-28.8-13.37-4.49-26.67-.44-36.51,10.83a22.84,22.84,0,0,1-1.87,1.6c0-9.31,0-17.92,0-26.53,0-1.32-.23-3.24-1.08-3.85-3.69-2.63-7.65-4.87-12-7.58V301.76h13.16v-5c0-12.37-.09-24.75.12-37.12.13-7.91,2.81-15,8.78-20.43,7.32-6.63,15.92-7.81,25-4.37,8.44,3.21,10.76,10.56,11.34,18.73.15,2.15.13,4.31.14,6.47q0,18.56,0,37.12v4.76h13.39C514.25,284.53,514.84,267.54,514.06,250.62Zm82.59-106.77c.06-8.18,2.35-15.67,8.35-21.52,7.07-6.91,15.61-8.32,24.77-5.28,8.36,2.79,11.68,9.65,12,17.76.48,14.79.37,29.61.5,44.41,0,1.68,0,3.35,0,5.2H655.1c0-18.14,1.32-36.19-.35-54-2-20.69-18.3-31.19-38.17-26.8-8.17,1.81-14.42,6.6-20.08,14.24V104.62H583.83v79.83h12.79C596.62,170.59,596.55,157.22,596.65,143.85ZM359,175.4a4.76,4.76,0,0,0,1.36,3.28c11.36,8.25,35,10.82,47.6.57,9.41-7.66,13.56-27.13-3.49-35.58-2.18-1.08-4.43-2-6.69-3-6.1-2.52-12.27-4.9-18.33-7.54-4.25-1.85-6.4-5.17-6-10a8.72,8.72,0,0,1,7.19-8.16c4.26-.87,9.07-1.52,13.12-.4,6.34,1.76,12.24,5.1,18.49,7.84,0-3.17.14-6.86-.08-10.53a4.82,4.82,0,0,0-1.85-3c-9.89-7.41-29.25-8.07-40-1.83-12.76,7.42-14.74,28.66.25,36.33,2.3,1.17,4.62,2.32,7,3.32,6.23,2.61,12.54,5,18.72,7.73,4.18,1.84,6.63,5.17,6.33,9.86a9.47,9.47,0,0,1-7.39,9.08,42.08,42.08,0,0,1-12.71,1.37c-8.89-.54-16.34-4.88-23.66-11.13C358.9,168.21,358.79,171.81,359,175.4Zm67.67,55.78a6.7,6.7,0,0,0-2.45-4.42c-14.58-9.9-37.81-8.43-51.28,3.07-16.43,14-19,41.26-5.44,58.62,14.78,19,43.32,17.74,58.15,8.48a4,4,0,0,0,1.81-2.6c.2-3.68.08-7.38.08-11.87a41.1,41.1,0,0,1-27.28,8.4c-16.5-.69-27.8-12.89-27.62-29.71.17-16.33,11.55-27.77,28-28.28,9.81-.3,18.31,2.8,26.15,10.21C426.75,238.53,427,234.83,426.63,231.18Zm289.72,59.33c-13,2.46-20.25-3.72-20.26-16.88,0-21.85,0-43.7-.05-65.55,0-1.45-.14-3.58-1.06-4.24-3.64-2.65-7.62-4.84-12-7.55v6c0,25.16-.1,50.31.15,75.47.1,9.43,2.71,18.29,12.08,22.68,10.93,5.13,22.07,4.33,32.82-1.06a4.69,4.69,0,0,0,2.34-3.13c.31-3.37.11-6.79.11-10.07C725.33,287.76,720.94,289.64,716.35,290.51Zm-248.81-119a41.75,41.75,0,0,1-8.42,1.76c-11.08,1.17-17.66-4.66-18-15.72,0-1.15,0-2.3,0-3.46V78.86a39.7,39.7,0,0,1-4.22,2.29c-7.42,2.84-9.42,8-9.15,15.91.69,20.69.1,41.42.31,62.13.15,14.78,6.6,24,19.05,25.85A59.5,59.5,0,0,0,467.55,184c8.12-1.72,8-2.39,8-10.5v-5.57A78.69,78.69,0,0,1,467.54,171.46Zm401.92,12.89h13c0-2,0-3.7,0-5.4.08-12.36-.16-24.74.35-37.09.48-11.4,7.58-20.45,17.57-23.12,3.53-.95,7.31-1,11.19-1.44V102.75c-6.16.08-11.86,1.25-16.54,4.76-4.44,3.34-8.26,7.5-12.68,11.61V104.51H869.46ZM823.61,301.79h13.2c0-1.85,0-3.41,0-5,0-12.23-.21-24.46.21-36.67.49-14,10-24,23.18-25,1.83-.14,3.68,0,5.74,0V220.2c-12.93.18-21.94,6.58-29.3,16.47V221.94h-13ZM643.54,236.54V222H630.59v79.89h12.95c0-1.91,0-3.6,0-5.29.18-12.92-.08-25.87.71-38.76a23.68,23.68,0,0,1,17.51-21.73c3.42-.88,7.06-.94,10.89-1.41V220.2C659.9,220.47,651,226.8,643.54,236.54ZM460.08,121.44a10.17,10.17,0,0,0,13.45-14.83,10.31,10.31,0,0,0-13.12-2.86c-4.59,2.61-8.94,5.62-13.91,8.79C451.46,115.8,455.68,118.77,460.08,121.44Zm259,100.27c-.72-.47-1.41-1-2.17-1.4a10.42,10.42,0,0,0-12.64,2,10.18,10.18,0,0,0-1,12.38c2.58,3.88,8,6.13,12.12,4.1,5.22-2.57,10-6,15.42-9.28Z"/></g></g></svg>