<svg xmlns="http://www.w3.org/2000/svg" viewBox="0 0 1072.01 269.62"><defs><style>.cls-1{fill:gray;}</style></defs><g id="Layer_2" data-name="Layer 2"><g id="Layer_1-2" data-name="Layer 1"><path class="cls-1" d="M148.76,68.81a47,47,0,0,1,5.2-25.3c7.29-14.53,18.66-24.39,34.21-29.39a8.92,8.92,0,0,1,7.51.52c40.23,21.67,64.85,54.76,72.06,100,10.61,66.51-30.48,130-94.17,149.25C98.08,286.7,18.44,239.33,2.78,162.17-11.76,90.55,32.06,21.27,103.19,3.89c27.84-6.8,55.25-4.62,81.92,6,.84.33,1.64.76,2.88,1.34-1.62,1.23-3.15.65-4.49.66C145.61,12.13,93,33.39,70.24,83.39c-10.49,23.08-13.76,46.93-5.94,71.35,8.78,27.44,27,45.9,55.28,53.07,38.48,9.77,77.65-14.54,86.78-53.21a75,75,0,0,0-.39-36.29c-4.36-17.1-14.63-29.8-29.8-38.55a104.39,104.39,0,0,0-13.38-6.37C158.37,71.63,153.72,70.41,148.76,68.81ZM952,185V144.13c0-6.81-.06-13.62.06-20.42,0-1.43.35-3.29,1.27-4.18,4.06-3.88,8.67-7,14.33-8.13,9.11-1.75,16.22,3.08,18,12.39a59.76,59.76,0,0,1,.9,10.61c.09,16.87,0,33.74,0,50.61v4.85h25.14c-.44-23.85.73-47.46-.81-71.05a37.81,37.81,0,0,1,14.86-7.26c10.46-2.33,18.15,2.52,20.19,13a54.62,54.62,0,0,1,.85,10.15c.08,16.71,0,33.43,0,50.14v4.94h25c.06-1.07.14-1.82.14-2.57,0-18.73.12-37.46-.09-56.18a84.71,84.71,0,0,0-1.76-16.11c-2.47-12-9.71-19.9-21.6-23a54,54,0,0,0-32.88,1.21c-4.76,1.75-9.33,4-14.39,6.17-6.9-6.24-15.51-8.81-24.85-9.21S958.9,93.83,951,99.28c-.5-2.62-.87-4.53-1.26-6.55H927.1V189.9H952ZM615.89,54.89h-25.1V92.6c-2.36-.57-4.14-1-5.94-1.43-24.94-5.66-47.25,7.38-54.51,31.94a65.13,65.13,0,0,0,1.72,42.34,43.09,43.09,0,0,0,16.45,21.34c13.27,8.88,29.51,8.11,41.72-2a13.42,13.42,0,0,1,1.59-1l1.38,6.71h22.69ZM591,136.59c0,7.73-.1,15.47.06,23.19a7.06,7.06,0,0,1-2.71,6c-10.54,8.71-23.73,6.94-30.79-4.31-4.27-6.8-5.4-14.46-5-22.27A43,43,0,0,1,554.9,127c4.2-11.74,14.43-17.61,26.73-15.62,3.14.51,6.19,1.59,9.37,2.44Zm77.88-7.73c-8.43,1.33-16.5,3.73-23.91,8.26-18.64,11.43-17,38.44-.83,49.55a35.83,35.83,0,0,0,42-1.26,24.79,24.79,0,0,1,2.17-1.36c.48,2.3.88,4.25,1.31,6.28h22.75c.08-1.07.2-1.83.2-2.59,0-20.58,0-41.16-.05-61.73a45.29,45.29,0,0,0-.94-9.22c-2.8-13.25-10.3-22.42-23.86-25.45-17.23-3.86-33.1-.11-47.68,9.58a6.55,6.55,0,0,0-1.15,1.48c2.4,5.13,4.75,10.17,7.13,15.19a11.2,11.2,0,0,0,1.11,1.62c2.43-1.47,4.75-3,7.15-4.31a34,34,0,0,1,18.65-4.61c10,.5,14.67,6,13.78,16.36C680.8,127.37,674.81,127.92,668.88,128.86Zm18.49,34.53c0,1-1.1,2.14-2,2.81a25.26,25.26,0,0,1-17.23,5.42c-6.33-.39-10.58-3.4-11.74-8.52a12.64,12.64,0,0,1,6.49-13.63,42.65,42.65,0,0,1,10.5-3.24c4.46-.88,9-1.23,14.06-1.88C687.46,151.15,687.55,157.27,687.37,163.39ZM421.08,147.58a44.67,44.67,0,0,0,.84,5.49c4.15,20.89,18.12,36.67,38.9,39.39,21.88,2.86,39.66-6.91,48.41-25.58,7.31-15.6,7.93-31.75,1.57-47.73-6.56-16.48-18.66-26.7-36.61-28.89-22.09-2.69-40.3,7.69-48.71,27.37a52.68,52.68,0,0,0-4.43,23.46C421.05,143.25,420.94,145.42,421.08,147.58ZM485.75,160C481.21,168,474.4,171.83,465,170.78a17,17,0,0,1-12.23-6.71,32.26,32.26,0,0,1-4.84-8.86,44.34,44.34,0,0,1,0-28.65c2.17-6.6,6.21-11.91,12.92-14.26,9.59-3.36,19.43-.21,25.09,10.09,2.73,5,4.07,11.35,4,20.23A34.78,34.78,0,0,1,485.75,160Zm422,4a59.48,59.48,0,0,0,3.66-33.66c-4-22.73-20-38.57-41.74-40.08-19.86-1.39-36.47,7.34-44.9,24.86-7.83,16.26-8.1,33-1,49.43,7.76,18.14,21.86,27.41,41.68,27.71C885.11,192.68,900.57,181.47,907.75,164Zm-26.42-1.34a19.21,19.21,0,0,1-21.8,7.08,18.36,18.36,0,0,1-11.37-9.6c-6.14-12.36-6.39-25-.52-37.47,3.47-7.33,9.62-11.52,18.11-11.45s14.2,4.43,18,11.65A35.63,35.63,0,0,1,887.51,140C887.58,148.64,886.17,156.13,881.33,162.61ZM356.4,190.73c6.07,0,11.94,0,17.8,0,4.2,0,4.22,0,5.74-3.76q18.35-45.12,36.67-90.24c.51-1.26.93-2.56,1.47-4.07H392.62c-8.18,21.38-16.31,42.65-24.79,64.83-4.63-11.75-8.81-22.39-13-33s-8.41-21.22-12.68-32c-8.15,0-16,0-23.9,0-.74,0-1.47.16-2.84.32C329.13,125.59,342.72,158,356.4,190.73Zm446.77-28.95c-3.45,2-6.36,4.05-9.58,5.39A44.08,44.08,0,0,1,783,170.22c-15.69,2.23-25.92-4.3-28.67-20.23a53.35,53.35,0,0,1,.27-20.27,28.86,28.86,0,0,1,3.12-8.66c7.35-12.49,22.26-12.89,29.8-3,1.86,2.41,3.76,4.78,5.77,7.33l18.22-12.28A38.6,38.6,0,0,0,795.1,95.39c-19.27-10.69-53.4-7.21-63.83,25.67a66.49,66.49,0,0,0-.61,38.88c4.48,15.67,14.46,26.33,30.49,30.77,6.83,1.9,13.81,1.9,20.74,1.16,10.09-1.06,19.64-3.88,28.28-10.22C807.74,174.75,805.46,168.27,803.17,161.78ZM189.84,12.31l-.79-.14Z"/></g></g></svg>