<svg width="50" height="58" viewBox="0 0 50 58" fill="none" xmlns="http://www.w3.org/2000/svg">
<g clip-path="url(#clip0_592_4011)">
<path d="M49.8988 12.4245C49.794 10.6613 48.5439 9.2087 46.7736 9.00119L46.0438 8.89328C43.0233 8.47826 40.0017 7.75256 37.1896 6.61066C33.6308 5.04451 30.2732 3.05919 27.1888 0.697177C25.9388 -0.237216 24.1684 -0.237216 22.8135 0.700735C19.6883 2.98336 16.3547 5.05847 12.8128 6.61421C10.0007 7.75612 6.97907 8.48181 3.95743 8.89328L3.2288 8.99763C2.39713 9.13623 1.63654 9.54968 1.06959 10.1714C0.502637 10.793 0.162355 11.5867 0.103581 12.4245C-0.424784 20.5385 1.04106 28.6584 4.37412 36.0808C8.33393 44.9006 14.7915 52.371 23.0207 57.4545C23.6188 57.8112 24.3029 57.9996 25 57.9996C25.6971 57.9996 26.3812 57.8112 26.9793 57.4545C35.1559 52.2949 41.6377 44.8651 45.6259 36.0808C48.9588 28.6583 50.425 20.5385 49.8976 12.4245H49.8988ZM25.0018 51.3323C18.543 46.8714 13.3343 40.7492 10.1055 33.4863C7.91723 28.5061 6.56357 23.1108 6.35522 17.6111L36.2526 40.0223C33.2411 44.4563 29.4256 48.2919 25.0018 51.3323ZM39.8981 33.5907C39.6897 34.0057 39.585 34.3176 39.3766 34.7326L11.3532 13.6708C12.7081 13.2558 13.9581 12.8407 15.2082 12.3214C18.6349 10.8576 21.8847 9.01308 24.8958 6.82291C27.9074 9.01306 31.1575 10.8576 34.5846 12.3214C37.5095 13.4655 40.547 14.3002 43.6472 14.8115C43.8555 21.2444 42.5018 27.6772 39.8969 33.5919L39.8981 33.5907Z" fill="#FF8C00"/>
</g>
<defs>
<clipPath id="clip0_592_4011">
<rect width="50" height="58" fill="white"/>
</clipPath>
</defs>
</svg>
