<svg width="106" height="34" viewBox="0 0 106 34" fill="none" xmlns="http://www.w3.org/2000/svg">
<g clip-path="url(#clip0_710_594)">
<path d="M22.3234 0C24.9927 1.352 25.2001 4.73739 22.6537 6.41657C22.2443 6.68697 21.5619 6.56529 21.016 6.62478C20.9751 6.11643 20.7158 5.46477 20.9369 5.12677C21.3763 4.46159 22.0887 3.97216 22.6782 3.40162C22.9348 3.15286 23.4206 2.77159 23.3633 2.6418C23.1995 2.24431 22.8665 1.77652 22.4872 1.64944C22.0048 1.52837 21.4954 1.57122 21.0406 1.77112C20.0853 2.16319 19.0618 2.53094 18.2703 3.16097C11.507 8.55002 6.60777 15.1802 4.77091 23.7546C4.58532 24.7283 4.55768 25.725 4.68903 26.7073C5.06296 29.8359 7.30376 32.0153 10.6172 31.8449C13.7041 31.6962 16.7801 31.0175 19.8206 30.3794C24.5069 29.3978 29.1004 27.9079 33.9778 28.1026C38.6177 28.2892 42.1494 30.5686 45.6348 33.808C41.4234 32.2316 37.5177 30.3523 33.7076 33.9892C30.1021 29.5492 25.3202 30.2847 20.5384 31.2473C16.9902 31.9531 13.4885 32.8508 9.94304 33.5674C5.73165 34.4191 0.660504 32.1505 0.201972 26.8371C0.191055 26.7209 0.0709633 26.6127 0 26.4991V23.7951C0.327523 22.4431 0.518578 21.0614 1.00713 19.7824C4.61807 10.3076 10.6035 3.13122 20.6912 0H22.3234Z" fill="#696871"/>
<path d="M96.5591 17.822C97.599 16.6809 98.8818 17.3515 100.38 17.1974L92.9782 30.2225L93.3767 30.6011C93.7806 30.428 94.2938 30.3604 94.5667 30.0603C95.8167 28.7083 96.9931 27.2914 98.2158 25.9151C98.5264 25.5448 98.9434 25.277 99.4113 25.1471C97.4816 28.4081 95.5029 31.6205 91.9602 33.3889C90.2543 34.2434 89.43 33.5836 89.2308 31.196C88.4475 31.8044 87.7515 32.4236 86.9791 32.9292C84.6318 34.4678 83.2262 33.762 83.0515 30.9959C83.0293 30.8611 82.9936 30.7289 82.9451 30.6011C81.9953 31.4258 81.1273 32.264 80.1666 32.9779C79.3642 33.5755 78.3025 34.192 77.4509 33.4051C76.815 32.8157 76.28 31.7286 76.3209 30.8931C76.3919 29.3978 76.9241 27.9187 77.2844 26.4423C77.4181 25.8853 77.6092 25.3418 77.7975 24.7145C76.5256 24.582 75.7369 24.9524 75.1091 26.0665C73.6489 28.6272 71.8885 30.985 69.3775 32.6372C68.212 33.3997 66.921 34.3407 65.5154 33.3429C64.1098 32.3452 64.3991 30.7768 64.7621 29.3681C65.9467 24.801 68.5832 21.1614 72.2569 18.2519C72.9816 17.7127 73.7888 17.2918 74.6479 17.0054C76.6648 16.278 77.9722 17.2758 77.8248 19.4093C77.7364 20.1668 77.5634 20.9122 77.309 21.6319C77.1043 22.316 76.7986 22.9839 76.4902 23.7221C77.6884 23.9925 78.3434 23.5301 78.8429 22.5134C81.8042 16.4971 85.3169 10.8322 90.1151 6.07317C91.8674 4.33179 93.8489 2.80674 95.8195 1.30603C96.742 0.608398 97.9183 0.0594873 99.0947 0.816605C99.7416 1.23572 99.4222 3.43948 98.6362 4.48322C98.4779 4.69143 98.1804 4.79688 97.6863 5.12136C98.0603 3.82074 98.3468 2.82026 98.6334 1.81708L98.1476 1.4872C97.307 2.10911 96.4145 2.67154 95.6393 3.36377C91.5699 6.98441 88.6522 11.4947 85.8546 16.0861C84.9375 17.603 84.1105 19.1713 83.2453 20.7126L83.5183 20.9424C83.9983 20.637 84.4545 20.2962 84.8829 19.923C87.9398 16.7918 90.9694 13.6362 94.0208 10.4969C94.3684 10.177 94.7328 9.87549 95.1126 9.59376L95.4046 9.8912C95.1644 10.2454 94.9433 10.6132 94.6786 10.9485C91.2451 15.2749 87.4622 19.2687 82.956 22.5432C82.386 22.9678 81.9473 23.542 81.6896 24.2007C81.055 25.9246 80.5084 27.679 80.052 29.4573C79.9592 29.8115 80.273 30.4361 80.5978 30.6741C80.7862 30.812 81.5013 30.5443 81.7414 30.2604C82.7443 29.1022 83.6828 27.8909 84.5527 26.6316C86.5205 23.6789 88.4038 20.6396 91.2614 18.3871C91.6491 18.077 92.0537 17.7882 92.4733 17.5219C94.1982 16.4511 95.0907 16.5241 96.5591 17.822ZM87.1565 29.3572C87.1074 30.4388 87.6369 30.812 88.4147 30.3442C88.8902 30.0835 89.3013 29.7215 89.6184 29.2842C91.6927 26.0286 93.7351 22.7568 95.7458 19.4687C95.8107 19.3374 95.8421 19.1924 95.8374 19.0463C95.8326 18.9001 95.7918 18.7574 95.7185 18.6305C95.6 18.5439 95.462 18.4874 95.3165 18.4657C95.1709 18.444 95.0222 18.4579 94.8833 18.5061C94.4351 18.7095 94.0231 18.9834 93.6633 19.3173C91.0267 21.7239 89.1462 24.6631 87.6396 27.8565C87.4412 28.3442 87.2797 28.8458 87.1565 29.3572ZM71.823 22.2457C70.4201 24.1629 68.9981 26.1422 68.5477 28.592C68.4468 29.149 68.6815 29.9981 69.08 30.328C69.3665 30.5605 70.3109 30.3063 70.7503 29.9873C72.609 28.6353 73.8045 26.7425 74.7898 24.8172L71.823 22.2457ZM75.7396 23.7951C76.1217 22.1727 76.5802 20.7531 76.7658 19.2903C76.8832 18.3709 76.2363 17.9085 75.2538 18.2492C74.0447 18.6711 73.103 19.9176 73.1549 21.0911C73.2122 22.4837 74.0365 23.2543 75.7396 23.7951Z" fill="#696871"/>
<path d="M38.787 23.0029C38.0501 23.5761 37.3841 24.171 36.6472 24.6496C35.6782 25.2796 34.5974 25.8123 33.492 25.039C32.3866 24.2656 32.5995 23.1759 32.8779 22.0889C32.9325 21.878 32.938 21.6536 33.0199 21.0073C32.343 21.6373 31.9609 22.0889 31.4832 22.4161C30.023 23.3868 28.6392 24.5495 27.0426 25.1471C24.7854 26.007 22.9649 24.7361 22.9485 22.3377C22.9485 20.8694 23.4944 19.3849 23.9202 17.9383C24.1249 17.2163 24.5616 16.5592 24.941 15.7751C23.8492 15.7318 23.145 16.0455 22.6265 16.9973C21.1799 19.6229 19.4086 22.0159 16.9794 23.8384C16.2254 24.4065 15.3913 24.862 14.5039 25.1904C12.8663 25.7772 11.619 24.92 11.4252 23.2057C11.1905 21.1101 11.8209 19.1956 12.7735 17.3786C14.4875 14.1473 16.742 11.3568 19.9244 9.40989C21.1936 8.62844 22.6538 7.76586 24.0839 8.82853C25.5141 9.8912 24.9519 11.5028 24.5643 12.9413C24.4033 13.5308 24.1849 14.1067 23.9939 14.6908L24.3105 15.045C25.5005 14.1689 26.7287 13.3361 27.875 12.4059C28.9258 11.5542 29.8893 10.5969 30.8991 9.70192C31.1088 9.53009 31.3335 9.37716 31.5706 9.24495C33.4374 8.10386 35.318 8.1309 36.134 9.30714C36.9501 10.4834 36.2651 13.0927 34.7857 14.1202C34.4473 14.3582 33.7431 14.5177 33.4948 14.3312C33.2464 14.1446 33.0662 13.3496 33.2464 13.063C33.6531 12.4221 34.3081 11.9408 34.8431 11.3784C35.0996 11.108 35.3152 10.8024 35.55 10.5131C35.176 10.3401 34.7967 10.0156 34.4282 10.0318C33.9794 10.0874 33.558 10.2759 33.2191 10.5726C30.0367 13.1468 27.9651 16.4944 26.8188 20.3692C26.6195 21.0425 26.9061 22.2457 27.411 22.6243C27.916 23.0029 29.2206 22.8947 29.6955 22.4648C31.5538 20.7684 33.3212 18.9768 34.9904 17.0973C37.1384 14.7368 39.15 12.2491 41.3225 9.91013C41.9012 9.28551 42.851 8.99077 43.648 8.57976C43.8772 8.46079 44.2511 8.331 44.4231 8.43104C46.0989 9.40989 47.9713 8.6744 49.9064 8.99077C48.861 10.7916 47.9003 12.4573 46.9314 14.1284C45.6377 16.3483 44.3221 18.5521 43.0639 20.791C42.881 21.1155 42.982 21.6022 42.9492 22.0024C43.315 21.8996 43.7953 21.9104 44.0246 21.6779C45.291 20.3989 46.481 19.0469 47.7311 17.7517C48.0753 17.4127 48.5082 17.1758 48.9811 17.0676C47.2616 19.9446 45.2583 22.5297 42.5508 24.5009C42.2934 24.6875 42.0193 24.8504 41.732 24.9876C39.9033 25.8691 39.1036 25.358 38.787 23.0029ZM45.9406 10.5104C44.7534 9.57213 44.0301 10.1805 43.4842 10.7808C40.9459 13.4848 38.6423 16.3781 37.2585 19.8581C36.9856 20.5206 37.133 21.3426 37.0839 22.0916C37.8017 21.7455 38.8061 21.5941 39.1909 21.0262C41.5136 17.5759 43.7026 14.031 45.9406 10.5104ZM18.527 13.62C17.5308 15.748 16.4554 17.8896 15.5547 20.1096C15.3609 20.5909 15.612 21.5806 16.0078 21.8699C16.3517 22.1214 17.3206 21.8969 17.7764 21.5643C19.7224 20.1231 20.9725 18.1167 22.026 16.1266L18.527 13.62ZM24.1413 11.1486C23.6773 10.724 23.2679 10.048 22.7329 9.92906C21.7367 9.70463 20.2765 11.2459 20.1373 12.4384C20.0145 13.501 20.9206 14.6583 22.0779 14.8152C22.3508 14.8503 22.8339 14.661 22.9267 14.4501C23.3525 13.474 23.6745 12.4519 24.1413 11.1486Z" fill="#696871"/>
<path d="M90.4153 4.68331L87.9289 7.30077C84.004 5.54047 80.939 1.763 76.0125 2.09018C76.0125 6.11102 74.3749 9.25035 71.7274 11.884C70.933 12.6138 70.0071 13.189 68.998 13.5794C67.718 14.1202 66.7218 13.4172 66.7108 12.0219C66.7157 11.2182 66.8711 10.4224 67.1694 9.67488C68.3566 6.70049 70.4446 4.42643 73.0429 2.57419L74.1347 1.79274L74.0282 1.39525C73.163 1.59805 72.2269 1.66565 71.4435 2.02528C68.1956 3.57197 65.6218 5.97311 63.2991 8.66088C59.478 13.0954 56.05 17.795 54.3332 23.4734C53.8697 24.9797 53.6378 26.5467 53.6454 28.1215C53.6754 30.6984 56.0036 32.0612 58.2307 30.7579C62.3248 28.3649 64.7593 24.7361 65.4854 20.0582C65.559 19.5769 65.2479 18.7062 64.9122 18.5737C64.4427 18.4088 63.523 18.6008 63.2446 18.9739C62.3111 20.2123 61.5878 21.6076 60.7554 22.9271C60.478 23.4447 60.1186 23.9149 59.6909 24.3197C58.6811 25.1309 57.5866 25.8502 56.5413 26.5992C56.0363 22.8487 60.0894 17.3677 63.815 16.8215C65.2288 16.6133 66.296 17.3894 66.356 18.9388C66.4178 20.1038 66.269 21.2704 65.9166 22.3836C64.4509 26.71 61.8444 30.2496 57.8514 32.5561C56.5234 33.3044 55.011 33.6706 53.4844 33.6133C50.8069 33.4484 48.9564 30.9905 49.1174 27.7159C49.2285 25.5646 49.7027 23.4468 50.5203 21.4508C53.5226 14.177 58.2253 8.10115 64.6938 3.5287C66.5471 2.20916 68.7442 1.35199 70.8758 0.497528C71.5472 0.211651 72.2788 0.0920465 73.0073 0.149052C73.7359 0.206057 74.4394 0.437957 75.0572 0.824711C75.3574 1.01129 75.917 0.951799 76.2963 0.824711C77.707 0.314984 79.2145 0.123308 80.7094 0.263636C82.2042 0.403964 83.6486 0.872765 84.9375 1.63591C86.7143 2.62287 88.4938 3.60982 90.4153 4.68331ZM74.9562 2.79051C72.6663 3.10418 68.0974 8.24447 67.546 11.3568C67.344 12.4924 68.1492 13.0278 69.241 12.5627C72.2132 11.3054 75.2646 6.08127 74.9562 2.78511V2.79051Z" fill="#696871"/>
<path d="M91.679 8.81231C92.8307 7.20884 93.6959 5.81899 96.0459 5.90822C99.141 6.0272 101.739 4.36965 104.185 2.61205C104.807 2.16589 105.389 1.66295 106.014 1.16812C104.6 5.6216 97.2659 9.60187 91.679 8.81231Z" fill="#696871"/>
<path d="M51.0117 11.5352C52.36 8.75282 52.4337 8.71226 55.3132 8.97455C54.4534 11.5542 54.0659 11.7921 51.0117 11.5352Z" fill="#696871"/>
</g>
<defs>
<clipPath id="clip0_710_594">
<rect width="106" height="34" fill="white"/>
</clipPath>
</defs>
</svg>
