<svg width="80" height="36" viewBox="0 0 80 36" fill="none" xmlns="http://www.w3.org/2000/svg">
<g clip-path="url(#clip0_710_555)">
<path d="M42.789 14.2286C43.358 13.9424 43.7216 13.7718 44.0729 13.581C47.6291 11.6481 51.7153 12.1861 54.5503 14.9636C55.8747 16.2578 56.7398 17.9407 57.0164 19.761C57.293 21.5812 56.9663 23.441 56.085 25.0625C54.2607 28.3619 50.4416 30.1648 46.8546 29.4217C42.8259 28.5872 39.9087 25.5275 39.7793 21.5399C39.6149 16.5514 39.7361 11.5547 39.7156 6.56207C39.7156 5.73775 40.0833 5.39665 40.8928 5.37838C41.7022 5.36011 42.2733 5.54893 42.3164 6.48289C42.4123 8.51323 42.5198 10.5436 42.639 12.5739C42.6575 13.0592 42.7314 13.5404 42.789 14.2286ZM42.8547 21.1156C42.8611 21.8446 43.0133 22.5653 43.3026 23.236C43.5919 23.9067 44.0124 24.5143 44.5402 25.0237C45.0679 25.5332 45.6924 25.9345 46.3776 26.2046C47.0629 26.4747 47.7954 26.6082 48.533 26.5975C51.4872 26.5691 54.0224 24.0068 54.0224 21.0445C54.0224 17.999 51.5037 15.4489 48.4529 15.4286C45.3282 15.4001 42.828 17.9421 42.8547 21.1156Z" fill="#696871"/>
<path d="M3.42899 22.5551C4.27129 25.7143 7.36931 27.1964 10.7344 26.2544C11.4967 26.0329 12.2191 25.6945 12.8751 25.2514C13.9023 24.559 14.9418 24.6301 16.3264 24.9874C15.858 25.6777 15.5417 26.2747 15.0938 26.764C12.493 29.6755 8.05136 30.4186 4.5589 28.5669C2.86697 27.6834 1.52296 26.2656 0.741085 24.5395C-0.040793 22.8134 -0.215545 20.8783 0.244681 19.0426C1.23284 15.1058 4.53014 12.5008 8.57318 12.4826C13.5304 12.4602 17.4071 16.2732 17.3475 21.0445C17.3475 22.2099 16.8852 22.5815 15.7635 22.5693C12.2505 22.5307 8.73753 22.5551 5.22452 22.5551H3.42899ZM13.8078 19.335C13.5032 18.2022 12.8241 17.2027 11.8786 16.4952C10.9331 15.7878 9.7754 15.413 8.58961 15.4306C6.17571 15.4814 4.00627 17.128 3.5543 19.3431L13.8078 19.335Z" fill="#696871"/>
<path d="M34.2241 27.8969C32.7984 28.4248 31.4959 29.0806 30.1153 29.3872C25.5751 30.4024 20.9774 27.3 20.0488 22.7338C19.8191 21.6217 19.8148 20.4757 20.0362 19.362C20.2576 18.2483 20.7002 17.189 21.3385 16.2455C21.9769 15.302 22.7982 14.4929 23.7549 13.8651C24.7117 13.2373 25.7849 12.8033 26.9125 12.5881C31.5719 11.711 36.3196 14.6814 36.9544 19.2416C37.3817 22.3297 37.2071 25.5011 37.2153 28.636C37.2153 28.9507 36.6236 29.5252 36.3114 29.5212C35.7154 29.4799 35.1444 29.2683 34.6679 28.9121C34.3823 28.7172 34.3412 28.1933 34.2241 27.8969ZM34.1173 21.0201C34.1173 17.8934 31.6808 15.4408 28.5704 15.4184C25.5361 15.3981 22.9537 17.9503 22.9414 20.9816C22.9471 22.4524 23.5353 23.8626 24.5802 24.91C25.625 25.9574 27.0434 26.5588 28.5314 26.5853C31.5452 26.632 34.1214 24.0657 34.1173 21.0201Z" fill="#696871"/>
<path d="M59.6226 14.1982C59.6226 11.8856 59.6062 9.57307 59.6226 7.26051C59.6329 6.44837 59.2939 5.42102 60.7526 5.35808C62.244 5.29108 62.1187 6.35092 62.1557 7.22803C62.3262 11.4308 62.4762 15.6357 62.581 19.8425C62.6796 23.7875 63.7314 25.2636 67.5629 26.5021C68.9126 26.9386 68.4298 27.9883 68.3846 28.8167C68.323 29.7912 67.5033 29.5801 66.8705 29.4725C64.8635 29.1486 63.0368 28.1346 61.7126 26.6093C60.3884 25.084 59.6518 23.1455 59.6329 21.1359C59.5918 18.8233 59.6329 16.5108 59.6329 14.1982H59.6226Z" fill="#696871"/>
<path d="M69.6891 7.13731e-06C71.7086 -0.0527818 74.4142 2.5156 74.5066 4.56016C74.5477 5.55299 73.8554 6.2027 72.8241 6.13976C70.7882 6.01591 68.4133 3.66478 68.2818 1.64255C68.2058 0.572564 68.6783 0.0284319 69.6891 7.13731e-06Z" fill="#696871"/>
<path d="M79.9981 5.48194C80.0248 7.48182 77.3377 10.1274 75.3038 10.1071C74.2027 10.0949 73.6336 9.39644 73.8 8.26554C74.0815 6.36311 76.3475 4.19267 78.2765 3.98151C79.3325 3.87188 79.9858 4.44037 79.9981 5.48194Z" fill="#696871"/>
<path d="M79.9858 13.6216C80.0454 15.7697 77.3767 18.4578 75.347 18.4355C74.2438 18.4233 73.724 17.8264 73.8185 16.7503C73.9911 14.7626 76.214 12.5577 78.256 12.3221C79.3613 12.1922 79.916 12.7059 79.9858 13.6216Z" fill="#696871"/>
<path d="M78.6524 20.6486C79.5255 20.7217 80.0411 21.2333 79.998 22.2566C79.9179 24.2321 77.3273 26.7619 75.3592 26.7741C74.3197 26.7741 73.7917 26.2402 73.7999 25.2433C73.8143 23.2028 76.4973 20.61 78.6524 20.6486Z" fill="#696871"/>
<path d="M69.8495 16.6752C71.8196 16.7219 74.4205 19.2416 74.5109 21.211C74.5561 22.2262 74.0014 22.7804 73.0071 22.8109C70.9075 22.8738 68.2388 20.1268 68.3477 18.0599C68.3929 17.0691 68.8469 16.6488 69.8495 16.6752Z" fill="#696871"/>
<path d="M74.4615 13.0287C74.406 13.9769 73.8308 14.523 72.7481 14.45C70.7472 14.318 68.4462 12.0014 68.2942 10.0279C68.2162 9.0127 68.6394 8.42593 69.683 8.34675C71.5915 8.20259 74.5046 10.9862 74.4615 13.0287Z" fill="#696871"/>
<path d="M39.0848 35.8944C38.8938 35.9707 38.6888 36.0066 38.4829 36C37.8399 36 37.3571 35.5939 37.3571 34.861C37.3479 34.704 37.3724 34.5468 37.4288 34.3997C37.4853 34.2526 37.5725 34.119 37.6847 34.0075C37.797 33.896 37.9317 33.8091 38.0802 33.7526C38.2288 33.696 38.3877 33.6711 38.5466 33.6793C38.7327 33.6711 38.9182 33.7052 39.089 33.7788L39.0171 34.0164C38.8727 33.9513 38.7154 33.9194 38.5569 33.923C38.0227 33.923 37.6673 34.26 37.6673 34.8508C37.6673 35.4031 37.9899 35.7564 38.5445 35.7564C38.709 35.7589 38.8721 35.7271 39.0232 35.663L39.0848 35.8944Z" fill="#696871"/>
<path d="M40.9729 34.9219H40.0875V35.734H41.0736V35.9777H39.7937V33.7159H41.0263V33.9595H40.0895V34.6701H40.975L40.9729 34.9219Z" fill="#696871"/>
<path d="M41.7947 33.7159H42.0885V35.734H43.0622V35.9777H41.7947V33.7159Z" fill="#696871"/>
<path d="M44.9092 34.9219H44.0238V35.734H45.0119V35.9777H43.73V33.7159H44.9626V33.9595H44.0258V34.6701H44.9113L44.9092 34.9219Z" fill="#696871"/>
<path d="M45.7329 33.7443C45.9098 33.7121 46.0893 33.6965 46.2691 33.6976C46.4911 33.6773 46.7131 33.7356 46.8957 33.8621C46.9584 33.9093 47.0083 33.9711 47.0413 34.0419C47.0742 34.1126 47.0891 34.1903 47.0847 34.2681C47.0811 34.3801 47.0418 34.488 46.9724 34.5766C46.9031 34.6652 46.8072 34.7299 46.6985 34.7615C46.831 34.7877 46.9503 34.8585 47.036 34.9617C47.1218 35.065 47.1687 35.1944 47.1689 35.328C47.17 35.4122 47.1534 35.4958 47.1202 35.5733C47.087 35.6509 47.0378 35.7209 46.9758 35.7787C46.7478 35.9398 46.4676 36.0121 46.189 35.9817C46.0365 35.9829 45.8841 35.9734 45.7329 35.9533V33.7443ZM46.0267 34.6681H46.2938C46.604 34.6681 46.7868 34.5077 46.7868 34.2905C46.7868 34.0265 46.5814 33.923 46.2876 33.923C46.2001 33.9207 46.1127 33.9275 46.0267 33.9433V34.6681ZM46.0267 35.7462C46.1083 35.7575 46.1908 35.7622 46.2732 35.7604C46.5773 35.7604 46.8587 35.6488 46.8587 35.3219C46.8587 34.995 46.5916 34.8874 46.2691 34.8874H46.0185L46.0267 35.7462Z" fill="#696871"/>
<path d="M47.9044 33.7443C48.091 33.7123 48.28 33.6967 48.4694 33.6976C48.705 33.674 48.9408 33.7401 49.1288 33.8824C49.1878 33.9374 49.2341 34.0043 49.2646 34.0786C49.2951 34.1528 49.309 34.2327 49.3055 34.3128C49.3069 34.4417 49.2657 34.5675 49.1882 34.6712C49.1107 34.7748 49.0012 34.8507 48.8761 34.8874C48.9671 34.928 49.0457 34.9912 49.1045 35.071C49.1632 35.1507 49.1999 35.2442 49.211 35.3422C49.2504 35.5533 49.3089 35.7606 49.3856 35.9614H49.0816C49.0138 35.7872 48.9629 35.6071 48.9295 35.4234C48.8617 35.1127 48.7405 34.995 48.4735 34.9848H48.1961V35.9614H47.9023L47.9044 33.7443ZM48.1982 34.7716H48.4981C48.8124 34.7716 49.0138 34.6011 49.0138 34.3432C49.0138 34.0529 48.8083 33.925 48.4899 33.923C48.3919 33.9196 48.2939 33.9285 48.1982 33.9494V34.7716Z" fill="#696871"/>
<path d="M50.4478 35.2589L50.2115 35.9675H49.9075L50.6799 33.7159H51.0353L51.8139 35.9675H51.4996L51.2552 35.2589H50.4478ZM51.1956 35.0315L50.9716 34.3839C50.9203 34.2356 50.8874 34.1016 50.8525 33.9778C50.8196 34.1118 50.7806 34.2498 50.7374 34.3839L50.5135 35.0356L51.1956 35.0315Z" fill="#696871"/>
<path d="M52.6602 33.9615H51.9761V33.7159H53.6648V33.9615H52.9683V35.9675H52.6705L52.6602 33.9615Z" fill="#696871"/>
<path d="M54.5401 33.7159V35.9675H54.2463V33.7159H54.5401Z" fill="#696871"/>
<path d="M55.3926 35.9675V33.7159H55.7131L56.4444 34.8549C56.5967 35.0898 56.734 35.3339 56.8553 35.5858C56.8286 35.2853 56.8224 35.0112 56.8224 34.662V33.7199H57.1121V35.9716H56.8142L56.0849 34.8244C55.9275 34.5826 55.7848 34.3318 55.6576 34.0732H55.6473C55.6658 34.3575 55.672 34.6295 55.672 35.0031V35.9655L55.3926 35.9675Z" fill="#696871"/>
<path d="M59.6903 35.866C59.4662 35.9458 59.2301 35.9877 58.9919 35.9899C58.8363 36.0049 58.6792 35.986 58.5318 35.9346C58.3844 35.8832 58.2501 35.8005 58.1385 35.6923C58.0269 35.5841 57.9406 35.4531 57.8857 35.3084C57.8309 35.1637 57.8087 35.0089 57.8209 34.8549C57.8209 34.1829 58.2913 33.6915 59.0535 33.6915C59.2477 33.6868 59.4408 33.7221 59.6205 33.7951L59.5507 34.0326C59.3921 33.9642 59.2203 33.931 59.0473 33.9352C58.9252 33.9269 58.8028 33.9448 58.6883 33.9875C58.5738 34.0302 58.4699 34.0968 58.3838 34.1827C58.2976 34.2686 58.2312 34.3718 58.189 34.4854C58.1468 34.5989 58.1299 34.7201 58.1393 34.8407C58.1393 35.4132 58.4865 35.7503 59.0186 35.7503C59.1523 35.7577 59.286 35.7369 59.411 35.6894V35.0173H58.9405V34.7838H59.6903V35.866Z" fill="#696871"/>
<path d="M61.5352 33.7159H61.8372V35.734H62.8109V35.9777H61.5434L61.5352 33.7159Z" fill="#696871"/>
<path d="M63.7642 33.7159V35.9675H63.4807V33.7159H63.7642Z" fill="#696871"/>
<path d="M64.6169 33.7159H65.8496V33.9595H64.9189V34.7067H65.7818V34.9483H64.9189V35.9635H64.6252L64.6169 33.7159Z" fill="#696871"/>
<path d="M67.7827 34.9219H66.8973V35.734H67.8834V35.9777H66.6035V33.7159H67.8361V33.9595H66.8993V34.6701H67.7848L67.7827 34.9219Z" fill="#696871"/>
<path d="M11.285 7.80261C11.4435 7.89807 11.6253 7.9493 11.8109 7.95082C12.1129 7.95082 12.2875 7.79246 12.2875 7.56506C12.2875 7.33766 12.1663 7.23614 11.8582 7.11838C11.4863 6.98844 11.2562 6.79759 11.2562 6.48086C11.2562 6.12961 11.5521 5.87175 11.9938 5.87175C12.1684 5.86606 12.3417 5.90449 12.4971 5.98342L12.417 6.22097C12.284 6.14956 12.1349 6.11255 11.9835 6.11336C11.6733 6.11336 11.5541 6.29609 11.5541 6.4504C11.5541 6.65343 11.6938 6.7651 12.0081 6.88489C12.3923 7.03108 12.5895 7.21584 12.5895 7.54678C12.5895 7.87773 12.3266 8.1904 11.7904 8.1904C11.5872 8.19274 11.3869 8.14308 11.209 8.04625L11.285 7.80261Z" fill="#696871"/>
<path d="M13.6248 5.90628V8.15793H13.3311V5.90628H13.6248Z" fill="#696871"/>
<path d="M14.4773 8.15793V5.90628H14.7916L15.523 7.0453C15.6753 7.2802 15.8125 7.52432 15.9339 7.77623C15.9071 7.47573 15.901 7.20164 15.901 6.85242V5.90628H16.1886V8.15793H15.8907L15.1676 7.01485C15.0098 6.77324 14.8671 6.52237 14.7403 6.26362C14.7567 6.54787 14.7649 6.8179 14.7649 7.19352V8.1559L14.4773 8.15793Z" fill="#696871"/>
<path d="M18.6334 8.08482C18.4424 8.16106 18.2374 8.19702 18.0315 8.1904C17.3885 8.1904 16.9057 7.78433 16.9057 7.05138C16.8965 6.89426 16.921 6.73701 16.9774 6.58984C17.0338 6.44268 17.121 6.30891 17.2332 6.19725C17.3454 6.08559 17.4802 5.99853 17.6287 5.94175C17.7772 5.88497 17.9361 5.85973 18.0952 5.86769C18.2815 5.85985 18.4671 5.89459 18.6375 5.96921L18.5656 6.20676C18.4214 6.14153 18.264 6.1096 18.1054 6.11336C17.5713 6.11336 17.2179 6.4504 17.2179 7.04123C17.2179 7.59348 17.5384 7.94676 18.0931 7.94676C18.2576 7.94931 18.4207 7.91748 18.5718 7.85337L18.6334 8.08482Z" fill="#696871"/>
<path d="M20.5214 7.10621H19.6359V7.91835H20.622V8.16199H19.3401V5.90628H20.5727V6.14992H19.6359V6.86054H20.5214V7.10621Z" fill="#696871"/>
<path d="M22.9394 6.25955L22.5573 6.46259L22.4998 6.23925L22.9805 5.98546H23.2332V8.15792H22.9456L22.9394 6.25955Z" fill="#696871"/>
<path d="M24.5398 7.95082C24.6198 7.95825 24.7003 7.95825 24.7802 7.95082C24.9512 7.93179 25.1119 7.86085 25.2404 7.74779C25.403 7.59475 25.5056 7.38977 25.5301 7.16914C25.443 7.27369 25.3251 7.34875 25.1928 7.38385C25.0605 7.41896 24.9205 7.41234 24.7921 7.36493C24.6638 7.31751 24.5537 7.23168 24.4772 7.11941C24.4006 7.00713 24.3615 6.87404 24.3652 6.73871C24.3616 6.639 24.3784 6.53959 24.4144 6.44639C24.4504 6.35319 24.505 6.26808 24.575 6.19613C24.6449 6.12417 24.7287 6.06683 24.8215 6.0275C24.9143 5.98817 25.0141 5.96766 25.1151 5.96718C25.565 5.96718 25.8423 6.32858 25.8423 6.88286C25.8519 7.06853 25.8234 7.25421 25.7584 7.42868C25.6935 7.60316 25.5934 7.76282 25.4643 7.89803C25.2888 8.06073 25.0646 8.16263 24.8254 8.18837C24.7344 8.2029 24.6422 8.20834 24.5501 8.20462L24.5398 7.95082ZM24.6528 6.70013C24.6469 6.75752 24.653 6.81551 24.6708 6.87045C24.6886 6.92539 24.7177 6.9761 24.7563 7.01938C24.7949 7.06267 24.8421 7.0976 24.895 7.12197C24.9479 7.14635 25.0054 7.15964 25.0637 7.16102C25.1495 7.16408 25.2346 7.14466 25.3104 7.10472C25.3862 7.06479 25.4499 7.00576 25.4951 6.93362C25.5136 6.90149 25.5228 6.86498 25.5218 6.82804C25.5218 6.45649 25.3842 6.17224 25.0719 6.17224C24.8275 6.17224 24.6528 6.39355 24.6528 6.70013Z" fill="#696871"/>
<path d="M26.4421 8.15792V7.97722L26.6743 7.75389C27.2351 7.226 27.496 6.94175 27.496 6.61689C27.5024 6.55911 27.4954 6.50066 27.4756 6.44592C27.4559 6.39117 27.4239 6.34155 27.382 6.30074C27.3401 6.25994 27.2895 6.22902 27.2338 6.21028C27.1781 6.19155 27.1189 6.18549 27.0605 6.19255C26.888 6.1983 26.7229 6.26368 26.5942 6.37731L26.4997 6.17428C26.6723 6.03111 26.8906 5.95274 27.116 5.95297C27.2034 5.94509 27.2915 5.95576 27.3744 5.98425C27.4573 6.01275 27.5331 6.05841 27.5967 6.11819C27.6603 6.17798 27.7103 6.2505 27.7432 6.3309C27.7762 6.4113 27.7913 6.49773 27.7878 6.58441C27.7878 6.99048 27.494 7.30924 27.0297 7.74983L26.8551 7.91022H27.8412V8.15386L26.4421 8.15792Z" fill="#696871"/>
<path d="M28.5151 8.15792V7.97722L28.7473 7.75389C29.3081 7.226 29.569 6.94175 29.569 6.61689C29.575 6.559 29.5677 6.50053 29.5477 6.4458C29.5277 6.39107 29.4955 6.34149 29.4535 6.30073C29.4115 6.25998 29.3607 6.22909 29.3049 6.21036C29.2492 6.19164 29.1899 6.18555 29.1315 6.19255C28.9589 6.1983 28.7939 6.26368 28.6651 6.37731L28.5706 6.17428C28.7433 6.03111 28.9615 5.95274 29.1869 5.95297C29.2743 5.94509 29.3624 5.95576 29.4453 5.98425C29.5283 6.01275 29.604 6.05841 29.6676 6.11819C29.7312 6.17798 29.7812 6.2505 29.8141 6.3309C29.8471 6.4113 29.8623 6.49773 29.8587 6.58441C29.8587 6.99048 29.5649 7.30924 29.1027 7.74983L28.926 7.91022H29.9142V8.15386L28.5151 8.15792Z" fill="#696871"/>
<path d="M37.5441 7.00063H31.0337V7.20975H37.5441V7.00063Z" fill="#696871"/>
<path d="M10.0646 7.00063H3.5542V7.20975H10.0646V7.00063Z" fill="#696871"/>
</g>
<defs>
<clipPath id="clip0_710_555">
<rect width="80" height="36" fill="white"/>
</clipPath>
</defs>
</svg>
