<svg width="56" height="55" viewBox="0 0 56 55" fill="none" xmlns="http://www.w3.org/2000/svg">
<g clip-path="url(#clip0_592_4015)">
<path d="M1.96972 54.9987C1.70693 55.0052 1.4455 54.9584 1.20084 54.8609C0.956169 54.7635 0.733206 54.6174 0.54507 54.4314C0.356934 54.2453 0.207427 54.0229 0.105349 53.7774C0.00327043 53.5319 -0.0493164 53.2682 -0.0493164 53.0017C-0.0493164 52.7353 0.00327043 52.4715 0.105349 52.226C0.207427 51.9805 0.356934 51.7582 0.54507 51.5721C0.733206 51.386 0.956169 51.2399 1.20084 51.1425C1.4455 51.0451 1.70693 50.9982 1.96972 51.0047H3.46965V34.0075C3.47058 32.9193 3.89717 31.876 4.6559 31.1061C5.41463 30.3362 6.44359 29.9026 7.51722 29.9004H13.7648C14.8394 29.9011 15.8699 30.3339 16.6299 31.104C17.3899 31.874 17.8173 32.9183 17.8182 34.0075V51.0059H20.8192V16.3091H15.8567C15.467 16.3091 15.0861 16.1921 14.7621 15.9727C14.4381 15.7534 14.1856 15.4416 14.0365 15.0767C13.8873 14.7119 13.8483 14.3104 13.9244 13.9231C14.0004 13.5358 14.1881 13.18 14.4636 12.9008L26.6075 0.585588C26.7902 0.399894 27.0072 0.25256 27.2461 0.152032C27.4851 0.0515031 27.7413 -0.000244141 28 -0.000244141C28.2587 -0.000244141 28.5149 0.0515031 28.7538 0.152032C28.9927 0.25256 29.2098 0.399894 29.3924 0.585588L41.5398 12.8972C41.8165 13.1762 42.0052 13.5321 42.082 13.9199C42.1588 14.3078 42.1202 14.71 41.9711 15.0755C41.8219 15.441 41.569 15.7534 41.2445 15.973C40.9199 16.1927 40.5382 16.3096 40.148 16.3091H35.176V51.0059H38.1735V26.9719C38.1744 25.883 38.6017 24.8389 39.3614 24.0688C40.1212 23.2988 41.1513 22.8658 42.2258 22.8649H48.4733C49.548 22.8655 50.5784 23.2984 51.3384 24.0684C52.0984 24.8385 52.5258 25.8827 52.5268 26.9719V51.0059H54.0302C54.2946 50.9967 54.5581 51.0415 54.8051 51.1376C55.052 51.2338 55.2774 51.3793 55.4676 51.5656C55.6579 51.7519 55.8092 51.9752 55.9126 52.222C56.0159 52.4688 56.0692 52.7342 56.0692 53.0023C56.0692 53.2704 56.0159 53.5358 55.9126 53.7827C55.8092 54.0295 55.6579 54.2527 55.4676 54.439C55.2774 54.6253 55.052 54.7708 54.8051 54.867C54.5581 54.9632 54.2946 55.008 54.0302 54.9987H1.96972ZM48.5896 51.0047V26.9719C48.5892 26.9417 48.5774 26.9127 48.5567 26.891C48.5351 26.8704 48.5065 26.8589 48.4768 26.8588H42.2293C42.2002 26.8603 42.1726 26.8727 42.152 26.8936C42.1314 26.9145 42.1191 26.9424 42.1177 26.9719V51.0059L48.5896 51.0047ZM31.2353 51.0047V14.3091C31.2353 13.7793 31.443 13.2712 31.8126 12.8966C32.1822 12.522 32.6835 12.3115 33.2063 12.3115H35.391L27.9994 4.82121L20.609 12.3115H22.7937C23.3164 12.3115 23.8177 12.522 24.1873 12.8966C24.557 13.2712 24.7646 13.7793 24.7646 14.3091V51.0059L31.2353 51.0047ZM13.8822 51.0047V34.0075C13.8822 33.9759 13.8698 33.9456 13.8478 33.9233C13.8258 33.901 13.7959 33.8884 13.7648 33.8884H7.52309C7.49194 33.8884 7.46207 33.901 7.44004 33.9233C7.41801 33.9456 7.40564 33.9759 7.40564 34.0075V51.0059L13.8822 51.0047Z" fill="#FF8C00"/>
</g>
<defs>
<clipPath id="clip0_592_4015">
<rect width="56" height="55" fill="white"/>
</clipPath>
</defs>
</svg>
