<svg width="101" height="48" viewBox="0 0 101 48" fill="none" xmlns="http://www.w3.org/2000/svg">
<path d="M0 28.6101H3V43.3201H0V28.6101Z" fill="#696871"/>
<path fill-rule="evenodd" clip-rule="evenodd" d="M8.02952 33.3394C6.03442 34.1691 4.73594 36.1194 4.73999 38.2801C4.72645 39.6995 5.28504 41.0646 6.28972 42.0675C7.29441 43.0703 8.66057 43.6263 10.08 43.6101C12.2407 43.6101 14.1885 42.3079 15.0145 40.3113C15.8404 38.3147 15.3817 36.017 13.8524 34.4906C12.3231 32.9642 10.0246 32.5098 8.02952 33.3394ZM10.041 36.0204C11.3142 35.9986 12.3671 37.0071 12.4 38.2801C12.4338 38.9106 12.2023 39.5264 11.7616 39.9785C11.3208 40.4306 10.7111 40.6778 10.08 40.6601C8.80659 40.6597 7.77154 39.6329 7.76084 38.3596C7.75015 37.0862 8.76781 36.0422 10.041 36.0204Z" fill="#696871"/>
<path fill-rule="evenodd" clip-rule="evenodd" d="M27.48 42.8201V33.24L24.53 33.27V34.27C23.8116 33.3939 22.7218 32.9083 21.59 32.96C18.7623 32.96 16.47 35.2524 16.47 38.08C16.47 40.9077 18.7623 43.2 21.59 43.2C22.7227 43.2566 23.8146 42.7701 24.53 41.89V42.8201C24.5881 43.4381 24.3559 44.0481 23.9016 44.471C23.4473 44.894 22.8223 45.0821 22.21 44.9801C21.2706 45.0578 20.3789 44.5544 19.96 43.71L17.38 45.2C18.3884 46.8415 20.2287 47.7829 22.15 47.64C24.83 47.64 27.48 46.2101 27.48 42.8201ZM23.0951 35.7558C24.0029 36.1651 24.5708 37.0851 24.53 38.08C24.5485 38.7239 24.2939 39.3455 23.829 39.7913C23.3642 40.2371 22.7324 40.4655 22.09 40.4201C21.0942 40.4192 20.1988 39.8133 19.8277 38.8892C19.4567 37.9651 19.6844 36.9083 20.4031 36.219C21.1219 35.5297 22.1873 35.3464 23.0951 35.7558Z" fill="#696871"/>
<path fill-rule="evenodd" clip-rule="evenodd" d="M32.4995 33.3394C30.5044 34.1691 29.2059 36.1194 29.21 38.2801C29.1964 39.6995 29.755 41.0646 30.7597 42.0675C31.7644 43.0703 33.1305 43.6263 34.55 43.6101C36.7107 43.6101 38.6585 42.3079 39.4844 40.3113C40.3104 38.3147 39.8517 36.017 38.3224 34.4906C36.7931 32.9642 34.4946 32.5098 32.4995 33.3394ZM34.511 36.0204C35.7842 35.9986 36.837 37.0071 36.87 38.2801H36.85C36.8834 38.907 36.6546 39.5196 36.2183 39.971C35.782 40.4225 35.1776 40.6721 34.55 40.6601C33.2766 40.6597 32.2415 39.6329 32.2308 38.3596C32.2201 37.0862 33.2378 36.0422 34.511 36.0204Z" fill="#696871"/>
<path fill-rule="evenodd" clip-rule="evenodd" d="M43.1 28.72C42.0949 28.72 41.28 29.5348 41.28 30.54C41.2855 31.5429 42.0971 32.3545 43.1 32.36C44.1052 32.36 44.92 31.5451 44.92 30.54C44.92 29.5348 44.1052 28.72 43.1 28.72ZM44.59 33.24H41.59V43.32H44.59V33.24Z" fill="#696871"/>
<path fill-rule="evenodd" clip-rule="evenodd" d="M56.374 41.9458C57.277 40.9452 57.7435 39.6258 57.67 38.28C57.7407 36.9359 57.273 35.619 56.3703 34.6206C55.4676 33.6222 54.2044 33.0246 52.86 32.96C51.7272 32.9056 50.6286 33.356 49.86 34.19V33.24H46.86V47.38H49.86V42.38C50.6286 43.2139 51.7272 43.6644 52.86 43.61C54.2062 43.5454 55.4711 42.9464 56.374 41.9458ZM52.2505 35.9408C53.5601 35.9298 54.6368 36.9707 54.67 38.28H54.65C54.6975 38.9423 54.4565 39.5929 53.9889 40.0643C53.5212 40.5358 52.8727 40.7821 52.21 40.74C50.9007 40.7068 49.8598 39.6301 49.8708 38.3205C49.8819 37.0108 50.9409 35.9519 52.2505 35.9408Z" fill="#696871"/>
<path d="M67.01 40.3001C67.01 42.6201 65.01 43.6101 62.81 43.6101C61.012 43.7692 59.2979 42.8192 58.48 41.2101L61.1 39.7201C61.3191 40.4696 62.031 40.965 62.81 40.9101C63.54 40.9101 63.9 40.6801 63.9 40.2801C63.9 39.1701 58.9 39.7601 58.9 36.2801C58.9 34.0801 60.76 32.9701 62.9 32.9701C64.5081 32.9212 66.0163 33.748 66.84 35.1301L64.21 36.5101C63.9726 35.9705 63.4395 35.6216 62.85 35.6201C62.33 35.6201 62.01 35.8201 62.01 36.1901C62.05 37.3401 67.01 36.5701 67.01 40.3001Z" fill="#696871"/>
<path d="M78.05 33.24V43.32H75.05V42.38C74.3421 43.2272 73.2715 43.6844 72.17 43.61C70.17 43.61 68.4 42.16 68.4 39.43V33.24H71.4V38.99C71.3466 39.4862 71.5193 39.9802 71.8703 40.335C72.2212 40.6899 72.7132 40.868 73.21 40.82C74.31 40.82 75.08 40.18 75.08 38.75V33.24H78.05Z" fill="#696871"/>
<path d="M95.39 37.14V43.32H92.39V37.4C92.39 36.4 91.9 35.74 90.94 35.74C89.98 35.74 89.36 36.45 89.36 37.64V43.32H86.36V37.4C86.36 36.4 85.88 35.74 84.91 35.74C83.94 35.74 83.34 36.45 83.34 37.64V43.32H80.34V33.24H83.34V34.17C83.977 33.3355 84.9931 32.8801 86.04 32.96C87.0925 32.909 88.0946 33.4138 88.68 34.29C89.3602 33.3746 90.4628 32.8724 91.6 32.96C93.88 32.96 95.39 34.62 95.39 37.14Z" fill="#696871"/>
<path d="M97.95 33.18C99.1871 33.18 100.19 32.1771 100.19 30.94C100.19 29.7028 99.1871 28.7 97.95 28.7C96.7128 28.7 95.71 29.7028 95.71 30.94C95.71 32.1771 96.7128 33.18 97.95 33.18Z" fill="#696871"/>
<path d="M33.95 20.98C39.7434 20.98 44.44 16.2835 44.44 10.49C44.44 4.69653 39.7434 0 33.95 0C28.1565 0 23.46 4.69653 23.46 10.49C23.46 16.2835 28.1565 20.98 33.95 20.98Z" fill="#696871"/>
<path d="M57.4 20.98C63.1935 20.98 67.89 16.2835 67.89 10.49C67.89 4.69653 63.1935 0 57.4 0C51.6066 0 46.91 4.69653 46.91 10.49C46.91 16.2835 51.6066 20.98 57.4 20.98Z" fill="#696871"/>
<rect x="0.0200195" width="20.97" height="20.97" fill="#696871"/>
</svg>
