<svg width="127" height="30" viewBox="0 0 127 30" fill="none" xmlns="http://www.w3.org/2000/svg">
<path fill-rule="evenodd" clip-rule="evenodd" d="M75.1924 8.28677C74.5824 8.56281 74.2014 9.18196 74.23 9.85091L74.25 9.86091C74.2552 10.2835 74.4295 10.6864 74.7339 10.9795C75.0383 11.2727 75.4475 11.4316 75.87 11.4209C76.5395 11.4203 77.1415 11.0127 77.3907 10.3913C77.6399 9.7698 77.4863 9.05926 77.0026 8.59625C76.5189 8.13323 75.8024 8.01073 75.1924 8.28677ZM39.2 9.03091H35.99V22.0309H39.2V9.03091ZM45.48 11.9909C42.48 11.9909 40.48 13.9209 40.48 17.1409C40.48 20.4309 42.41 22.3109 45.48 22.3109C48.55 22.3109 50.48 20.3609 50.48 17.1409C50.48 13.9209 48.48 11.9909 45.48 11.9909ZM47.3 17.1409C47.3 15.3709 46.61 14.3309 45.51 14.3309C44.41 14.3309 43.73 15.3309 43.73 17.1409C43.73 18.9509 44.41 19.9409 45.51 19.9409C46.61 19.9409 47.32 18.9509 47.32 17.1509L47.3 17.1409ZM54.86 22.7009H51.76L51.78 22.7109C51.96 24.5009 53.74 25.7709 56.52 25.7809C59.58 25.7809 61.66 24.3109 61.66 21.9609V12.2209H58.48V13.8337C57.937 12.7467 56.7969 12.0753 55.57 12.1409C53.06 12.1409 51.57 14.0609 51.57 17.1409C51.57 20.2209 53.13 22.0109 55.48 22.0109C56.7378 22.1031 57.9232 21.4167 58.47 20.2819V22.0609C58.47 23.0409 57.83 23.7009 56.6 23.7009C55.8613 23.7956 55.15 23.3868 54.86 22.7009ZM58.48 17.1409C58.48 15.5709 57.76 14.5809 56.62 14.5809C55.48 14.5809 54.78 15.5809 54.78 17.1409C54.78 18.7009 55.47 19.6209 56.62 19.6209C57.77 19.6209 58.48 18.7709 58.48 17.1409ZM67.93 11.9909C64.93 11.9909 62.93 13.9209 62.93 17.1409H62.95C62.95 20.4309 64.87 22.3109 67.93 22.3109C70.99 22.3109 72.93 20.3609 72.93 17.1409C72.93 13.9209 70.93 11.9909 67.93 11.9909ZM69.75 17.1409C69.75 15.3709 69.05 14.3309 67.96 14.3309C66.87 14.3309 66.18 15.3309 66.18 17.1409C66.18 18.9509 66.86 19.9409 67.96 19.9409C69.06 19.9409 69.77 18.9509 69.77 17.1509L69.75 17.1409ZM74.23 12.2109H77.48V22.0709H74.28L74.23 12.2109ZM85.28 22.2109C87.73 22.2109 89.17 20.3509 89.17 17.1409L89.23 17.1509C89.23 13.9309 87.78 12.0809 85.26 12.1009C83.9596 12.039 82.7599 12.7988 82.26 14.0009H82.2V12.2409H79.01V25.2409H82.22V20.3809H82.28C82.7975 21.5595 83.9952 22.2902 85.28 22.2109ZM85.9 17.1409C85.9 15.5809 85.17 14.5709 84.04 14.5709C82.91 14.5709 82.2 15.5709 82.19 17.1409C82.18 18.7109 82.91 19.7009 84.04 19.7009C85.17 19.7009 85.96 18.7709 85.96 17.1509L85.9 17.1409ZM99.03 15.2909C99.01 13.2509 97.34 11.9809 94.65 11.9809L94.71 11.9909C92 11.9909 90.32 13.2409 90.26 15.2009C90.26 16.7109 91.27 17.7209 93.2 18.1309L95.06 18.5209C95.83 18.6809 96.13 18.7709 96.13 19.3009C96.13 19.8309 95.69 20.1309 94.75 20.1309C93.81 20.1309 93.23 19.7009 93.14 18.9709H90.03C90.16 20.9809 91.95 22.3009 94.7 22.3009C97.45 22.3009 99.3 20.9409 99.3 18.9409C99.3 17.4509 98.5 16.6509 96.5 16.2309L94.44 15.8109C93.7 15.6609 93.33 15.5009 93.33 14.9909C93.33 14.4809 93.75 14.1409 94.63 14.1409C95.51 14.1409 96.1 14.5809 96.1 15.2909H99.03ZM110.05 22.0609H106.94V20.2109H106.88C106.521 21.482 105.329 22.3339 104.01 22.2609C103.032 22.2927 102.088 21.9057 101.413 21.1971C100.739 20.4885 100.4 19.5257 100.48 18.5509V12.2209H103.69V17.8609C103.69 19.0209 104.3 19.6509 105.3 19.6509C105.775 19.6473 106.225 19.4383 106.533 19.0777C106.842 18.7172 106.979 18.2405 106.91 17.7709V12.2209H110.11L110.05 22.0609ZM114.72 12.211H111.6L111.62 22.071H114.83V16.251C114.778 15.8417 114.905 15.4299 115.179 15.1213C115.453 14.8128 115.847 14.6377 116.26 14.641C117.14 14.641 117.63 15.171 117.63 16.171V22.071H120.69V16.231C120.634 15.8263 120.758 15.4176 121.03 15.1119C121.301 14.8063 121.692 14.6343 122.1 14.641C123.01 14.641 123.48 15.201 123.48 16.201V22.071H126.71V15.381C126.776 14.495 126.461 13.6228 125.845 12.9832C125.228 12.3436 124.368 11.9972 123.48 12.031C122.122 11.9674 120.891 12.8251 120.48 14.121H120.34C120.102 12.8219 118.916 11.9166 117.6 12.031C116.299 12.0045 115.145 12.8593 114.79 14.111H114.72V12.211Z" fill="#696871"/>
<path fill-rule="evenodd" clip-rule="evenodd" d="M29.64 9.88087C29.6402 5.80726 27.1402 2.15113 23.3441 0.673391C19.548 -0.804353 15.234 0.199264 12.48 3.20087H0V29.5409H26.35V17.2309C28.4417 15.36 29.6381 12.6872 29.64 9.88087ZM24.57 9.88087C24.574 11.8313 23.4023 13.5919 21.6015 14.3411C19.8007 15.0903 17.7259 14.6804 16.3453 13.3027C14.9647 11.9249 14.5505 9.85099 15.296 8.04865C16.0414 6.24631 17.7996 5.07087 19.75 5.07087C22.4081 5.07086 24.5645 7.22276 24.57 9.88087ZM5.06995 24.4708H21.2799V19.6408C20.7742 19.7246 20.2626 19.768 19.7499 19.7708C14.2901 19.7652 9.86546 15.3406 9.85995 9.88075C9.86434 9.34081 9.91452 8.80221 10.0099 8.27075H5.06995V24.4708Z" fill="#696871"/>
</svg>
