<svg width="119" height="28" viewBox="0 0 119 28" fill="none" xmlns="http://www.w3.org/2000/svg">
<path fill-rule="evenodd" clip-rule="evenodd" d="M70.879 6.95326C70.3125 7.20432 69.9533 7.7723 69.9694 8.39175V8.41175C69.9657 8.81867 70.1319 9.20868 70.4281 9.48776C70.7242 9.76683 71.1234 9.90964 71.5294 9.88175C72.149 9.8694 72.6999 9.48456 72.9247 8.90712C73.1495 8.32967 73.0038 7.67365 72.5557 7.24565C72.1076 6.81765 71.4455 6.7022 70.879 6.95326ZM37.3994 7.64175H34.3994V19.7718H37.3994V7.64175ZM43.2694 10.4018C40.4294 10.4018 38.5894 12.1918 38.5894 15.1918C38.5894 18.2418 40.3894 19.9918 43.2694 19.9918C46.1494 19.9918 47.9494 18.1918 47.9494 15.1918C47.9494 12.1918 46.1094 10.4018 43.2694 10.4018ZM44.9394 15.1918C44.9394 13.5418 44.2894 12.5718 43.2694 12.5718C42.2494 12.5718 41.6094 13.5718 41.6094 15.1918C41.6094 16.8118 42.2394 17.7918 43.2694 17.7918C44.2994 17.7918 44.9394 16.8718 44.9394 15.2018V15.1918ZM51.9594 20.3618H49.0794V20.3718C49.2494 22.0318 50.8994 23.2218 53.5494 23.2218C56.3994 23.2218 58.3294 21.8618 58.3294 19.6718V10.5718H55.3294V12.2418C54.867 11.1365 53.7666 10.4348 52.5694 10.4818C50.2694 10.4818 48.8894 12.2918 48.8894 15.1618C48.8894 18.0318 50.3394 19.7018 52.5294 19.7018C53.6892 19.7647 54.7704 19.1152 55.2594 18.0618H55.3194V19.7418C55.3194 20.6418 54.7194 21.2618 53.5794 21.2618C52.8998 21.3531 52.2409 20.9871 51.9594 20.3618ZM55.3294 15.1818C55.3294 13.7218 54.6594 12.8018 53.5994 12.8018C52.5394 12.8018 51.8894 13.7118 51.8894 15.1818C51.8894 16.6518 52.5294 17.4818 53.5994 17.4818C54.6694 17.4818 55.3294 16.6718 55.3294 15.1918V15.1818ZM64.1394 10.3918C61.2994 10.3918 59.4594 12.1818 59.4594 15.1818V15.1918C59.4594 18.2418 61.2494 19.9818 64.1394 19.9818C67.0294 19.9818 68.8294 18.1818 68.8294 15.1818C68.8294 12.1818 66.9794 10.3918 64.1394 10.3918ZM65.8094 15.1818C65.8094 13.5318 65.1594 12.5618 64.1394 12.5618C63.1194 12.5618 62.5294 13.5718 62.5294 15.2018C62.5294 16.8318 63.1594 17.8018 64.1794 17.8018C65.1994 17.8018 65.8094 16.8718 65.8094 15.2018V15.1818ZM69.9694 10.5918H72.9694V19.7718H69.9694V10.5918ZM80.2494 19.8918C82.5294 19.8918 83.8594 18.1818 83.8594 15.1818L83.8994 15.2018C83.8994 12.2018 82.5294 10.4818 80.2294 10.4418C79.0226 10.3879 77.9112 11.0955 77.4494 12.2118H77.3894V10.5718H74.3894V22.7118H77.3894V18.1918H77.4494C77.9337 19.2897 79.0519 19.9686 80.2494 19.8918ZM80.8594 15.1818C80.8594 13.7218 80.1894 12.7918 79.1394 12.7918C78.0894 12.7918 77.4194 13.7318 77.4094 15.1818C77.3994 16.6318 78.0894 17.5618 79.1394 17.5618C80.1894 17.5618 80.8594 16.6518 80.8594 15.2018V15.1818ZM93.0794 13.4518C93.0094 11.5618 91.4994 10.3818 89.0094 10.3818V10.4018C86.5294 10.4018 84.9194 11.5718 84.8994 13.3718C84.8994 14.7718 85.8394 15.7218 87.6294 16.0918L89.3594 16.4618C90.0794 16.6118 90.3594 16.7118 90.3594 17.1918C90.3594 17.6718 89.9594 17.9618 89.0794 17.9618C88.1994 17.9618 87.6594 17.5618 87.5694 16.8818H84.6794C84.8094 18.7518 86.4794 19.9718 89.0294 19.9718C91.5794 19.9718 93.3094 18.7518 93.3094 16.8518C93.3094 15.4618 92.5294 14.7218 90.6994 14.3318L88.7794 13.9418C88.1094 13.8018 87.7794 13.6518 87.7794 13.1818C87.7794 12.7118 88.1494 12.3918 88.9794 12.3918C89.8094 12.3918 90.3494 12.8018 90.3494 13.4518H93.0794ZM103.319 19.7519H100.429V18.0419H100.369C100.042 19.2248 98.9349 20.0198 97.7094 19.9519C96.7872 20.0043 95.8876 19.6544 95.2431 18.9927C94.5986 18.3309 94.2726 17.4224 94.3494 16.5019V10.5719H97.3494V15.8119C97.3494 16.9019 97.9094 17.4819 98.8394 17.4819C99.2806 17.4828 99.7007 17.2932 99.9919 16.9617C100.283 16.6303 100.417 16.1893 100.359 15.7519V10.5719H103.359L103.319 19.7519ZM107.669 10.5718H104.769L104.719 19.7718H107.719V14.3618C107.674 13.9813 107.793 13.5995 108.047 13.3128C108.301 13.026 108.666 12.8619 109.049 12.8618C109.869 12.8618 110.319 13.3618 110.319 14.2818V19.7718H113.169V14.3418C113.12 13.9659 113.236 13.5873 113.487 13.3034C113.739 13.0196 114.1 12.8585 114.479 12.8618C115.319 12.8618 115.769 13.3218 115.769 14.3218V19.7718H118.769V13.5218C118.829 12.6984 118.537 11.8883 117.965 11.2932C117.393 10.6981 116.595 10.374 115.769 10.4018C114.483 10.3465 113.323 11.1695 112.949 12.4018H112.889C112.69 11.1726 111.581 10.3024 110.339 10.4018C109.129 10.3794 108.057 11.1766 107.729 12.3418H107.669V10.5718Z" fill="#696871"/>
<path fill-rule="evenodd" clip-rule="evenodd" d="M24.0094 4.97168C24.8269 5.94361 25.5005 7.02804 26.0094 8.19168C26.7507 9.88829 27.132 11.7202 27.1294 13.5717C27.1239 21.0451 21.0727 27.1051 13.5994 27.1217C11.8605 27.1207 10.1384 26.7811 8.52939 26.1217C7.38174 25.6657 6.30439 25.0496 5.32939 24.2917C1.18237 21.1312 -0.77959 15.8691 0.286103 10.7651C1.35179 5.66115 5.25548 1.62372 10.3207 0.386755C15.3858 -0.850207 20.7111 0.933438 24.0094 4.97168ZM18.1094 3.76168C16.6936 3.10281 15.1509 2.76151 13.5894 2.76168L13.5994 2.74168C9.89642 2.73891 6.45021 4.63345 4.46836 7.76142C2.4865 10.8894 2.24534 14.8146 3.82939 18.1617C4.28108 17.6871 4.55943 17.0741 4.61939 16.4217C4.9831 13.9091 6.9568 11.9354 9.46939 11.5717C10.887 11.4431 12.0191 10.3361 12.1794 8.92168C12.5431 6.40909 14.5168 4.43539 17.0294 4.07168C17.4012 4.01503 17.7642 3.91084 18.1094 3.76168ZM5.31939 20.5717C5.35939 20.535 5.39939 20.4994 5.4394 20.4639L5.43946 20.4638C5.51943 20.3927 5.59941 20.3217 5.67939 20.2417C6.56904 19.3791 7.1401 18.2405 7.29939 17.0117C7.36397 16.3209 7.67239 15.6757 8.16939 15.1917C8.64763 14.6938 9.29136 14.388 9.97939 14.3317C12.492 13.968 14.4657 11.9943 14.8294 9.48168C14.8726 8.75919 15.1827 8.07852 15.6994 7.57168C16.1894 7.08353 16.8393 6.78878 17.5294 6.74168C18.6533 6.58704 19.7015 6.08739 20.5294 5.31168C21.472 6.09375 22.2707 7.03457 22.8894 8.09168C22.8514 8.14303 22.8078 8.18998 22.7594 8.23168C22.2821 8.73387 21.6392 9.04644 20.9494 9.11168C18.4337 9.46912 16.4568 11.446 16.0994 13.9617C15.9541 15.381 14.8293 16.5017 13.4094 16.6417C10.8898 17.0026 8.90579 18.9744 8.52939 21.4917C8.47557 21.9804 8.30773 22.4497 8.03939 22.8617C7.01338 22.2525 6.09447 21.4789 5.31939 20.5717ZM10.5894 24.0117C11.5648 24.2914 12.5747 24.4328 13.5894 24.4317V24.3817C16.9385 24.3687 20.0927 22.8055 22.1315 20.1484C24.1703 17.4914 24.8637 14.04 24.0094 10.8017C23.2502 11.3385 22.3714 11.6817 21.4494 11.8017C20.0334 11.9461 18.9139 13.0657 18.7694 14.4817C18.4046 16.9974 16.4259 18.972 13.9094 19.3317C12.4934 19.4761 11.3739 20.5957 11.2294 22.0117C11.14 22.7118 10.923 23.3897 10.5894 24.0117Z" fill="#696871"/>
</svg>
