<svg width="118" height="24" viewBox="0 0 118 24" fill="none" xmlns="http://www.w3.org/2000/svg">
<path d="M37.8301 19.2048C37.2353 19.237 36.647 19.0679 36.1601 18.7248C35.747 18.4186 35.5113 17.9286 35.5301 17.4148V8.14476C35.5202 8.06523 35.5476 7.9856 35.6042 7.92894C35.6609 7.87227 35.7405 7.8449 35.8201 7.85476H37.5001C37.6901 7.85476 37.7801 7.95476 37.7801 8.14476V16.6948C37.7801 17.0748 37.9501 17.2648 38.3001 17.2648C38.4484 17.2709 38.5968 17.254 38.7401 17.2148C38.9401 17.2148 39.0501 17.2748 39.0601 17.4548L39.2101 18.7048C39.2246 18.7785 39.2066 18.8549 39.1606 18.9144C39.1146 18.9738 39.0451 19.0104 38.9701 19.0148C38.6021 19.1363 38.2176 19.2004 37.8301 19.2048Z" fill="#696871"/>
<path fill-rule="evenodd" clip-rule="evenodd" d="M41.28 18.1347C43.0213 19.5734 45.5388 19.5734 47.28 18.1347V18.1247C48.7861 16.5541 48.7861 14.0754 47.28 12.5047C45.5359 11.0739 43.0241 11.0739 41.28 12.5047C39.7358 14.0637 39.7358 16.5758 41.28 18.1347ZM45.72 16.8147C44.9084 17.5499 43.6716 17.5499 42.86 16.8147C42.1269 15.9718 42.1269 14.7176 42.86 13.8747C43.6716 13.1396 44.9084 13.1396 45.72 13.8747C46.4531 14.7176 46.4531 15.9718 45.72 16.8147Z" fill="#696871"/>
<path fill-rule="evenodd" clip-rule="evenodd" d="M57.9401 11.9746C57.9401 11.7846 57.8501 11.6846 57.6601 11.6846L56.0001 11.6946C55.9222 11.6881 55.8455 11.7169 55.7912 11.7731C55.7369 11.8294 55.7108 11.907 55.7201 11.9846V12.1446C55.1098 11.6779 54.3581 11.4344 53.5901 11.4546C52.5365 11.4171 51.5124 11.8065 50.7501 12.5346C49.2514 14.085 49.2514 16.5443 50.7501 18.0946C51.5089 18.8294 52.5345 19.223 53.5901 19.1846C54.3365 19.2058 55.0685 18.9771 55.6701 18.5346V19.1646C55.6905 19.628 55.5207 20.0795 55.2001 20.4146C54.8492 20.7349 54.3844 20.9006 53.9101 20.8746C53.5209 20.8825 53.136 20.7931 52.7901 20.6146C52.5062 20.4612 52.289 20.2084 52.1801 19.9046C52.125 19.7697 51.9958 19.6796 51.8501 19.6746H50.1701C49.9001 19.6746 49.9001 19.7646 49.9001 19.9646C50.0407 20.784 50.5151 21.5083 51.2101 21.9646C52.0152 22.4865 52.9612 22.7483 53.9201 22.7146C54.9816 22.7614 56.0215 22.4041 56.8301 21.7146C57.5678 21.0685 57.9754 20.1247 57.9401 19.1446V11.9746ZM55.1501 16.8148C54.8035 17.2048 54.3016 17.4209 53.7801 17.4048C53.2529 17.42 52.7453 17.2045 52.3901 16.8148C52.0314 16.4029 51.842 15.8706 51.8601 15.3248C51.8381 14.7735 52.0318 14.2355 52.4001 13.8248C52.7545 13.4339 53.2627 13.2182 53.7901 13.2348C54.3068 13.2177 54.8047 13.43 55.1501 13.8148C55.8339 14.6979 55.8339 15.9317 55.1501 16.8148Z" fill="#696871"/>
<path fill-rule="evenodd" clip-rule="evenodd" d="M60.57 18.1347C62.3141 19.5656 64.8259 19.5656 66.57 18.1347V18.1247C68.076 16.5541 68.076 14.0754 66.57 12.5047C64.8245 11.0778 62.3154 11.0778 60.57 12.5047C59.0626 14.0787 59.0626 16.5608 60.57 18.1347ZM63.58 17.3647C63.0457 17.3812 62.5272 17.1831 62.14 16.8147C61.4196 15.9671 61.4196 14.7224 62.14 13.8747C62.5272 13.5064 63.0457 13.3083 63.58 13.3247C64.1107 13.311 64.6252 13.5089 65.01 13.8747C65.7303 14.7224 65.7303 15.9671 65.01 16.8147C64.6252 17.1806 64.1107 17.3785 63.58 17.3647Z" fill="#696871"/>
<path fill-rule="evenodd" clip-rule="evenodd" d="M69.4 9.98484C69.9468 10.4634 70.7633 10.4634 71.31 9.98484C71.5523 9.75624 71.6895 9.4379 71.6895 9.10484C71.6895 8.77177 71.5523 8.45343 71.31 8.22484C70.7586 7.75904 69.9515 7.75904 69.4 8.22484C69.1578 8.45343 69.0205 8.77177 69.0205 9.10484C69.0205 9.4379 69.1578 9.75624 69.4 9.98484ZM69.85 18.7248C70.3383 19.0652 70.9256 19.234 71.52 19.2048C71.9109 19.2012 72.2988 19.1371 72.67 19.0148C72.7451 19.0105 72.8145 18.9739 72.8606 18.9144C72.9066 18.855 72.9246 18.7786 72.91 18.7048L72.76 17.4548C72.75 17.2748 72.64 17.2148 72.44 17.2148C72.2933 17.2534 72.1417 17.2703 71.99 17.2648C71.65 17.2648 71.48 17.0748 71.48 16.6948V11.9748C71.48 11.7848 71.39 11.6848 71.2 11.6848H69.52C69.4405 11.675 69.3609 11.7023 69.3042 11.759C69.2475 11.8157 69.2202 11.8953 69.23 11.9748V17.4148C69.2124 17.9261 69.4435 18.4143 69.85 18.7248Z" fill="#696871"/>
<path fill-rule="evenodd" clip-rule="evenodd" d="M81.95 12.5247C81.1821 11.7925 80.1502 11.4028 79.09 11.4447C78.1642 11.4246 77.2709 11.7862 76.62 12.4447C76.2766 11.7739 75.5607 11.3783 74.81 11.4447C74.442 11.438 74.0759 11.499 73.73 11.6247C73.5851 11.6668 73.4893 11.8043 73.5 11.9547V13.1347C73.5 13.2947 73.61 13.3747 73.83 13.3747H74.16C74.3226 13.3509 74.4869 13.4053 74.6032 13.5215C74.7194 13.6378 74.7738 13.8021 74.75 13.9647V22.1647C74.7354 22.2426 74.7602 22.3225 74.8162 22.3785C74.8721 22.4345 74.9521 22.4593 75.03 22.4447H76.71C76.9 22.4447 77 22.3547 77 22.1647V18.5547C77.6073 18.9932 78.3411 19.2214 79.09 19.2047C80.1522 19.2475 81.1856 18.8536 81.95 18.1147C83.4171 16.5402 83.4171 14.0993 81.95 12.5247ZM78.91 17.4042C78.3888 17.4042 77.8903 17.1913 77.53 16.8147C77.1687 16.3887 76.9797 15.843 77 15.2847C76.9767 14.7261 77.1661 14.1793 77.53 13.7547C77.8903 13.3782 78.3888 13.1652 78.91 13.1652C79.4311 13.1652 79.9296 13.3782 80.29 13.7547C80.6684 14.172 80.8661 14.7221 80.84 15.2847C80.8629 15.8469 80.6656 16.3958 80.29 16.8147C79.9296 17.1913 79.4311 17.4042 78.91 17.4042Z" fill="#696871"/>
<path d="M87.77 19.2048C86.8723 19.2417 85.9822 19.027 85.2 18.5848C84.5643 18.2019 84.1374 17.5505 84.04 16.8148C84.04 16.6148 84.11 16.5148 84.33 16.5148H85.8C85.9426 16.5204 86.0701 16.6054 86.13 16.7348C86.34 17.2748 86.89 17.5448 87.77 17.5448C88.077 17.5589 88.3827 17.497 88.66 17.3648C88.8551 17.2767 88.9858 17.0884 89 16.8748C89 16.6148 88.84 16.4348 88.52 16.3148C88.1405 16.1885 87.7481 16.1047 87.35 16.0648C86.8785 16.0115 86.4109 15.928 85.95 15.8148C85.5019 15.7134 85.0944 15.48 84.78 15.1448C84.4059 14.6843 84.2397 14.0891 84.3212 13.5014C84.4028 12.9136 84.7247 12.3861 85.21 12.0448C85.9308 11.5857 86.7765 11.362 87.63 11.4048C88.4564 11.3769 89.274 11.5813 89.99 11.9948C90.5744 12.3258 90.9785 12.9026 91.09 13.5648C91.09 13.7648 91 13.8648 90.82 13.8648H89.34C89.2125 13.8724 89.0934 13.8009 89.04 13.6848C88.9411 13.448 88.755 13.2582 88.52 13.1548C88.255 13.0162 87.959 12.9473 87.66 12.9548C87.3669 12.9389 87.0745 12.9974 86.81 13.1248C86.6194 13.1984 86.4927 13.3805 86.49 13.5848C86.5031 13.8656 86.6979 14.1049 86.97 14.1748C87.3541 14.3196 87.7533 14.4202 88.16 14.4748C88.6277 14.5364 89.0917 14.6232 89.55 14.7348C89.9982 14.8363 90.4057 15.0696 90.72 15.4048C91.0597 15.7778 91.2361 16.2711 91.21 16.7748C91.2276 17.478 90.8745 18.1387 90.28 18.5148C89.5329 18.9945 88.6574 19.2352 87.77 19.2048Z" fill="#696871"/>
<path d="M101.78 18.7048C101.791 18.7765 101.773 18.8499 101.73 18.9082C101.687 18.9665 101.622 19.005 101.55 19.0148C101.185 19.134 100.804 19.1981 100.42 19.2048C99.647 19.2849 98.8884 18.9549 98.42 18.3348C97.7136 18.9421 96.8003 19.2537 95.87 19.2048C94.9966 19.2451 94.1468 18.9146 93.53 18.2948C92.918 17.6459 92.5966 16.7757 92.64 15.8848V11.9748C92.64 11.7848 92.73 11.6848 92.92 11.6848H94.6C94.79 11.6848 94.88 11.7848 94.88 11.9748V15.5848C94.8617 16.0346 95.0155 16.4744 95.31 16.8148C95.6074 17.1303 96.0267 17.3017 96.46 17.2848C96.9027 17.3042 97.3348 17.1458 97.66 16.8448C97.968 16.5274 98.1309 16.0966 98.11 15.6548V11.9748C98.11 11.7848 98.2 11.6848 98.39 11.6848H100.09C100.28 11.6848 100.37 11.7848 100.37 11.9748V16.6848C100.37 17.0748 100.54 17.2648 100.87 17.2648C101.025 17.2708 101.18 17.254 101.33 17.2148C101.407 17.1933 101.489 17.2081 101.553 17.2549C101.617 17.3017 101.657 17.3753 101.66 17.4548L101.78 18.7048Z" fill="#696871"/>
<path d="M117.67 18.7048C117.688 18.7773 117.673 18.8541 117.628 18.9141C117.584 18.9741 117.515 19.0111 117.44 19.0148C117.068 19.1357 116.681 19.1998 116.29 19.2048C115.695 19.2355 115.108 19.0666 114.62 18.7248C114.192 18.4275 113.94 17.936 113.95 17.4148V15.0648C113.971 14.6164 113.821 14.1767 113.53 13.8348C113.246 13.5183 112.835 13.3459 112.41 13.3648C112.027 13.3504 111.658 13.5125 111.41 13.8048C111.146 14.1399 111.011 14.5587 111.03 14.9848V18.6748C111.03 18.8648 110.94 18.9648 110.75 18.9648H109.06C108.98 18.9747 108.901 18.9473 108.844 18.8907C108.788 18.834 108.76 18.7544 108.77 18.6748V15.0648C108.792 14.6213 108.653 14.1847 108.38 13.8348C108.133 13.5373 107.767 13.365 107.38 13.3648C106.967 13.3482 106.567 13.5082 106.28 13.8048C105.994 14.1292 105.847 14.553 105.87 14.9848V18.6748C105.88 18.7544 105.852 18.834 105.796 18.8907C105.739 18.9473 105.66 18.9747 105.58 18.9648H103.95C103.76 18.9648 103.67 18.8648 103.67 18.6748V13.9648C103.694 13.8022 103.639 13.6379 103.523 13.5216C103.407 13.4054 103.243 13.351 103.08 13.3748H102.75C102.53 13.3748 102.42 13.2948 102.42 13.1348V11.9548C102.409 11.8044 102.505 11.6669 102.65 11.6248C102.996 11.4991 103.362 11.4381 103.73 11.4448C104.451 11.3834 105.143 11.7412 105.51 12.3648C106.192 11.7184 107.112 11.3851 108.05 11.4448C108.964 11.4002 109.844 11.7939 110.42 12.5048C111.09 11.7765 112.052 11.3874 113.04 11.4448C113.922 11.4035 114.782 11.7335 115.41 12.3548C116.024 13.0025 116.346 13.8735 116.3 14.7648V16.6948C116.3 17.0748 116.47 17.2648 116.79 17.2648C116.945 17.2721 117.1 17.2552 117.25 17.2148C117.457 17.2148 117.567 17.2948 117.58 17.4548L117.67 18.7048Z" fill="#696871"/>
<path fill-rule="evenodd" clip-rule="evenodd" d="M0.41 10.3847C1.92808 4.28306 7.40732 0 13.695 0C19.9827 0 25.4619 4.28306 26.98 10.3847H25.78C23.7557 10.3549 21.7729 10.9599 20.11 12.1147C20.014 12.1842 19.9138 12.2477 19.81 12.3047H19.67C19.5662 12.2477 19.466 12.1842 19.37 12.1147C15.9385 9.80724 11.4515 9.80724 8.02 12.1147C7.92403 12.1842 7.82384 12.2477 7.72 12.3047H7.58C7.47616 12.2477 7.37597 12.1842 7.28 12.1147C5.61713 10.9599 3.63432 10.3549 1.61 10.3847H0.41ZM23.62 16.6547C24.236 16.175 24.9995 15.924 25.78 15.9447H27.39V12.7347H25.78C24.4052 12.7181 23.0619 13.146 21.95 13.9547C20.6657 14.9016 18.9143 14.9016 17.63 13.9547C15.295 12.3293 12.195 12.3293 9.86 13.9547C8.57565 14.9016 6.82435 14.9016 5.54 13.9547C4.4144 13.1357 3.0518 12.7072 1.66 12.7347H0V15.9447H1.61C2.39051 15.924 3.15399 16.175 3.77 16.6547C6.10094 18.2813 9.19906 18.2813 11.53 16.6547C12.1468 16.1765 12.9097 15.9257 13.69 15.9447C14.4708 15.9223 15.2348 16.1735 15.85 16.6547C18.185 18.2801 21.285 18.2801 23.62 16.6547ZM25.78 21.6847C24.9995 21.664 24.236 21.915 23.62 22.3947C21.285 24.0201 18.185 24.0201 15.85 22.3947C15.2348 21.9135 14.4708 21.6623 13.69 21.6847C12.9097 21.6657 12.1468 21.9165 11.53 22.3947C9.19906 24.0213 6.10094 24.0213 3.77 22.3947C3.15399 21.915 2.39051 21.664 1.61 21.6847H0V18.4747H1.66C3.0518 18.4472 4.4144 18.8757 5.54 19.6947C6.82435 20.6416 8.57565 20.6416 9.86 19.6947C12.195 18.0693 15.295 18.0693 17.63 19.6947C18.9143 20.6416 20.6657 20.6416 21.95 19.6947C23.0619 18.886 24.4052 18.4581 25.78 18.4747H27.39V21.6847H25.78Z" fill="#696871"/>
</svg>
