<svg width="223" height="40" viewBox="0 0 223 40" fill="none" xmlns="http://www.w3.org/2000/svg">
<g clip-path="url(#clip0_592_4000)">
<path d="M80.3164 9.83859V9.67432H78.4997V9.81512V9.93246C78.479 10.027 78.4672 10.1232 78.4645 10.2199V15.371C78.3351 15.2419 78.2058 15.1246 78.0764 15.0073L78.0118 14.9486C77.1278 14.1985 76.0375 13.7322 74.8836 13.6108C73.7297 13.4894 72.5659 13.7185 71.5446 14.268C70.4523 14.8521 69.57 15.7619 69.0208 16.8704C68.4717 17.979 68.2832 19.231 68.4815 20.4517C68.6041 21.309 68.9195 22.1275 69.4041 22.8458C69.8888 23.5641 70.5301 24.1637 71.28 24.5995C72.157 25.161 73.1776 25.4584 74.2196 25.4561C74.7569 25.4541 75.2919 25.3871 75.8129 25.2566C77.0889 25.0202 78.2391 24.3386 79.0577 23.3336C79.8763 22.3286 80.3099 21.0659 80.2812 19.7711C80.3576 17.4596 80.3399 15.1129 80.3223 12.8365C80.3223 11.8392 80.3164 10.8418 80.3164 9.83859ZM78.5527 19.466C78.5618 20.0271 78.4577 20.5842 78.2466 21.1043C78.0355 21.6244 77.7217 22.0968 77.3239 22.4933C76.9382 22.8761 76.479 23.1773 75.9739 23.3789C75.4688 23.5806 74.9281 23.6784 74.3843 23.6667C73.2834 23.6543 72.2322 23.2072 71.4609 22.4232C70.6896 21.6392 70.2609 20.5823 70.2688 19.4836C70.2586 18.938 70.3576 18.3957 70.5598 17.8886C70.7621 17.3815 71.0637 16.9198 71.4468 16.5303C71.83 16.1408 72.2871 15.8315 72.7915 15.6203C73.2958 15.4092 73.8373 15.3005 74.3843 15.3006H74.4195C74.9696 15.2848 75.517 15.3822 76.0276 15.5866C76.5383 15.7911 77.0014 16.0982 77.388 16.489C77.7746 16.8797 78.0764 17.3457 78.2748 17.8578C78.4731 18.37 78.5637 18.9174 78.5409 19.466H78.5527Z" fill="white"/>
<path d="M119.514 9.67432H117.679V15.3945L117.573 15.2889C117.494 15.2004 117.409 15.1162 117.321 15.0366C116.585 14.3674 115.685 13.9058 114.711 13.6996C113.738 13.4933 112.727 13.5498 111.782 13.8632C110.691 14.2082 109.722 14.8599 108.992 15.7402C108.262 16.6205 107.802 17.692 107.667 18.8266C107.551 19.6919 107.632 20.5724 107.906 21.4016C108.18 22.2308 108.639 22.9872 109.248 23.6139C109.781 24.2008 110.433 24.6676 111.161 24.9832C111.889 25.2988 112.676 25.456 113.47 25.4443C113.796 25.4447 114.123 25.4192 114.446 25.3681C116.691 25.0454 118.232 23.9366 119.026 22.0768C119.322 21.4754 119.496 20.8213 119.537 20.1525C119.537 17.6063 119.537 15.0131 119.537 12.5256L119.514 9.67432ZM109.519 19.466C109.511 18.5461 109.81 17.6497 110.369 16.918C110.928 16.1862 111.715 15.6606 112.605 15.4238C112.96 15.3418 113.323 15.2985 113.687 15.2947C114.235 15.2947 114.777 15.4036 115.281 15.6151C115.786 15.8267 116.244 16.1366 116.627 16.5268C117.31 17.1943 117.714 18.0961 117.756 19.0495C117.83 19.6772 117.76 20.3134 117.551 20.9101C117.342 21.5067 117 22.0481 116.55 22.4933C116.116 22.9326 115.584 23.2647 114.999 23.4633C114.413 23.6619 113.789 23.7215 113.176 23.6374C112.248 23.5372 111.382 23.1256 110.72 22.4701C110.058 21.8145 109.638 20.9539 109.531 20.0293C109.519 19.9083 109.519 19.7865 109.531 19.6655C109.531 19.601 109.531 19.5364 109.531 19.4719L109.519 19.466Z" fill="white"/>
<path d="M133.236 18.3748C133.198 18.3257 133.175 18.2665 133.171 18.2047C132.848 16.7384 131.976 15.4504 130.734 14.6033C129.492 13.7563 127.973 13.4139 126.486 13.6462C125.78 13.7273 125.097 13.9481 124.477 14.2956C123.857 14.6431 123.313 15.1104 122.876 15.6702C122.119 16.5116 121.628 17.5579 121.466 18.6771C121.304 19.7964 121.478 20.9385 121.965 21.9595C122.397 23.0047 123.13 23.8978 124.073 24.5248C125.015 25.1518 126.124 25.4842 127.256 25.4796C127.921 25.4761 128.582 25.3793 129.22 25.1921C131.072 24.6582 132.366 23.3323 133.071 21.2496C133.092 21.1764 133.107 21.1019 133.118 21.0267C133.118 20.8976 133.153 20.8096 133.218 20.7509L133.271 20.704V18.4276L133.236 18.3748ZM131.443 19.5013C131.462 20.0484 131.372 20.594 131.177 21.1058C130.982 21.6176 130.687 22.0854 130.308 22.4816C129.921 22.8628 129.462 23.1629 128.957 23.3644C128.452 23.5659 127.912 23.6647 127.368 23.655C126.827 23.6674 126.29 23.5692 125.788 23.3664C125.287 23.1635 124.832 22.8604 124.453 22.4756C124.073 22.0909 123.777 21.6326 123.582 21.1292C123.386 20.6257 123.296 20.0877 123.317 19.5482C123.292 18.4678 123.694 17.421 124.437 16.6347C125.18 15.8483 126.204 15.3859 127.286 15.3476H127.374C128.41 15.3506 129.405 15.7543 130.149 16.474C130.556 16.8672 130.88 17.3375 131.102 17.8574C131.324 18.3772 131.44 18.9361 131.443 19.5013Z" fill="white"/>
<path d="M65.9829 17.4832C65.9283 16.5871 65.5575 15.7391 64.9364 15.0896C64.4709 14.6474 63.9135 14.313 63.3038 14.1102C62.6941 13.9074 62.0471 13.8412 61.4088 13.9162C60.6672 13.967 59.9493 14.1984 59.3179 14.5901C58.6866 14.9819 58.161 15.522 57.7872 16.1632C57.5643 15.6505 57.227 15.1954 56.8012 14.8324C56.3753 14.4694 55.872 14.2083 55.3297 14.0687C54.2809 13.7232 53.1387 13.7968 52.1431 14.2741C51.287 14.6947 50.569 15.3504 50.0732 16.1641C49.5775 16.9778 49.3248 17.9158 49.3446 18.8678C49.3446 19.5132 49.3446 20.1702 49.3446 20.8039C49.3446 21.0385 49.3446 21.2732 49.3446 21.5079V22.5522C49.3446 23.3501 49.3446 24.148 49.3446 24.9458C49.3383 25.0185 49.3464 25.0917 49.3686 25.1612C49.3908 25.2307 49.4266 25.2951 49.474 25.3506C49.563 25.4286 49.6791 25.4686 49.7973 25.4621H49.8737C50.0147 25.4533 50.1561 25.4533 50.2971 25.4621H50.5028C51.0143 25.4621 51.0907 25.3859 51.0907 24.8754C51.0907 24.365 51.0907 23.8077 51.0907 23.2679C51.0907 22.0066 51.0907 20.6983 51.0907 19.4134C51.0701 18.6771 51.2147 17.9454 51.5141 17.272C51.7121 16.7721 52.063 16.3472 52.5168 16.0576C52.9706 15.768 53.5043 15.6284 54.0421 15.6587C54.6482 15.6756 55.2316 15.8927 55.7008 16.276C56.17 16.6593 56.4985 17.187 56.6349 17.7766C56.7565 18.4206 56.8155 19.0749 56.8113 19.7302C56.8113 20.9036 56.8113 22.1474 56.8113 23.3266C56.8113 23.8135 56.8113 24.2946 56.8113 24.7757V24.852C56.8171 24.8968 56.8171 24.9421 56.8113 24.9869C56.7998 25.0511 56.8041 25.117 56.8237 25.1792C56.8433 25.2413 56.8777 25.2978 56.9238 25.3439C56.97 25.39 57.0266 25.4243 57.0889 25.4438C57.1512 25.4634 57.2173 25.4676 57.2816 25.4563C57.4462 25.4563 57.6167 25.4563 57.7872 25.4563H58.0518C58.5456 25.4563 58.6397 25.3506 58.6397 24.8696V20.7804C58.5999 20.0105 58.6512 19.2385 58.7926 18.4806V18.4043C58.8704 17.7983 59.1261 17.2288 59.5275 16.7675C60.474 15.8405 61.403 15.5061 62.4671 15.7173C62.8403 15.7704 63.189 15.9341 63.4678 16.1873C63.7467 16.4404 63.9429 16.7713 64.031 17.1371C64.142 17.6203 64.2011 18.114 64.2074 18.6097C64.2074 19.1083 64.2074 19.6129 64.2074 20.1057V24.7992C64.2074 25.3272 64.2897 25.3859 64.8306 25.3859H65.4714C66.0123 25.3859 66.0946 25.3037 66.0946 24.7992V24.013C66.0946 23.3853 66.0946 22.734 66.0946 22.0946C66.0946 21.6076 66.0946 21.1089 66.0946 20.6279C66.1364 19.5783 66.099 18.5272 65.9829 17.4832Z" fill="white"/>
<path d="M105.186 17.8527C104.998 15.8931 104.063 14.6963 102.299 14.0803C101.1 13.7011 99.812 13.7011 98.6127 14.0803C97.7947 14.3177 97.0619 14.7835 96.5004 15.4228C95.939 16.062 95.5724 16.8481 95.4437 17.6884C95.2958 18.5997 95.2347 19.523 95.2615 20.4458C95.2968 21.4549 95.2909 22.4874 95.2615 23.4789C95.2615 23.9189 95.2615 24.359 95.2615 24.7931C95.2615 25.2272 95.3555 25.3798 95.8494 25.3798H96.5196C97.0253 25.3798 97.1076 25.2859 97.1076 24.7931C97.1076 24.0246 97.1076 23.2501 97.1076 22.4992C97.1076 21.0853 97.1076 19.6244 97.2369 18.1812C97.2506 17.7026 97.4081 17.2391 97.6891 16.851C97.9701 16.4628 98.3615 16.1679 98.8126 16.0046C99.6712 15.6734 100.611 15.612 101.505 15.8286C101.863 15.8694 102.202 16.0092 102.485 16.232C102.767 16.4549 102.982 16.752 103.104 17.09C103.264 17.5444 103.345 18.0224 103.345 18.5039C103.345 19.2314 103.345 19.9764 103.345 20.6981C103.345 21.0031 103.345 21.2847 103.345 21.6016V21.7658V24.6992C103.345 25.2859 103.422 25.3798 104.016 25.3798H104.233C104.388 25.3709 104.543 25.3709 104.698 25.3798H104.756C104.881 25.3862 105.003 25.3441 105.097 25.2625C105.148 25.2062 105.185 25.14 105.207 25.0681C105.23 24.9963 105.236 24.9205 105.227 24.8459C105.227 23.9835 105.227 23.0859 105.227 22.2586C105.303 20.8506 105.321 19.3604 105.186 17.8527Z" fill="white"/>
<path d="M92.5864 16.6562V15.9815C92.5864 15.4417 92.5864 14.902 92.5864 14.3564C92.5931 14.2904 92.5855 14.2239 92.5642 14.1611C92.5429 14.0984 92.5084 14.0409 92.463 13.9926C92.4145 13.9498 92.3574 13.9178 92.2956 13.8986C92.2338 13.8793 92.1686 13.8734 92.1043 13.8811H91.2754C90.8403 13.8811 90.7462 13.9809 90.7404 14.4033C90.7404 15.1366 90.7404 15.8759 90.7404 16.5975C90.7404 18.0349 90.7404 19.5309 90.6404 20.9859C90.6275 21.4027 90.5171 21.8108 90.3181 22.1775C90.119 22.5442 89.8368 22.8594 89.494 23.0979C89.0733 23.3826 88.5937 23.569 88.0908 23.6431C87.588 23.7173 87.0748 23.6773 86.5896 23.5262C86.1665 23.4387 85.7721 23.2468 85.4425 22.968C85.1128 22.6893 84.8584 22.3325 84.7024 21.9304C84.5327 21.5129 84.4448 21.0668 84.4437 20.6163C84.4437 19.8946 84.4437 19.1613 84.4437 18.4514V16.6914C84.4437 15.9228 84.4437 15.1542 84.4437 14.3857C84.4504 14.3117 84.4418 14.237 84.4186 14.1664C84.3953 14.0958 84.3578 14.0307 84.3085 13.975C84.2547 13.929 84.1919 13.8948 84.124 13.8746C84.0561 13.8544 83.9848 13.8486 83.9145 13.8577H83.3795C83.2796 13.8577 83.1855 13.8577 83.0856 13.8577C82.6505 13.8577 82.5564 13.9515 82.5564 14.3798C82.5564 14.8081 82.5564 15.3889 82.5564 15.8935C82.5564 17.278 82.5564 18.7095 82.5564 20.1234C82.5537 20.8797 82.6687 21.6318 82.8974 22.3528C83.0753 22.9711 83.3962 23.539 83.8343 24.0108C84.2724 24.4826 84.8154 24.8451 85.4196 25.0692C86.0809 25.3267 86.7852 25.4562 87.495 25.4505C88.0277 25.4501 88.5586 25.3871 89.0765 25.2628C89.7887 25.1164 90.45 24.7865 90.9946 24.3058C91.5393 23.8251 91.9482 23.2104 92.1808 22.523C92.4573 21.6789 92.5885 20.7942 92.5688 19.9064C92.5688 19.1437 92.5688 18.3751 92.5688 17.6242L92.5864 16.6562Z" fill="white"/>
<path d="M39.0617 21.9009C39.0287 21.8557 39.011 21.8013 39.011 21.7454C39.011 21.6895 39.0287 21.6351 39.0617 21.5899C39.3759 21.1189 39.5436 20.5658 39.5436 20C39.5436 19.4342 39.3759 18.881 39.0617 18.4101C39.0287 18.3649 39.011 18.3105 39.011 18.2546C39.011 18.1987 39.0287 18.1443 39.0617 18.0991C39.2953 17.5951 39.3682 17.0317 39.2704 16.485C39.1726 15.9383 38.9089 15.4348 38.5149 15.0425C38.4769 15.0076 38.4499 14.9623 38.4374 14.9123C38.4249 14.8622 38.4273 14.8096 38.4444 14.7609C38.5643 14.3304 38.5733 13.8767 38.4706 13.4418C38.3678 13.0069 38.1565 12.605 37.8565 12.2734C37.7072 12.0949 37.533 11.9388 37.3391 11.8099C37.3039 11.7898 37.2758 11.7592 37.259 11.7223C37.2421 11.6855 37.2372 11.6443 37.245 11.6046C37.3054 11.0596 37.1968 10.5093 36.934 10.0278C36.6712 9.54626 36.2667 9.15674 35.7752 8.9117C35.7083 8.8856 35.6505 8.84064 35.6087 8.78231C35.567 8.72397 35.5431 8.65478 35.5401 8.58316C35.4968 8.14554 35.3467 7.72519 35.1027 7.359C34.8587 6.9928 34.5284 6.69195 34.1408 6.48284C33.9488 6.37116 33.7405 6.29001 33.5235 6.2423C33.4829 6.23327 33.446 6.21218 33.4176 6.1818C33.3893 6.15143 33.3709 6.11321 33.3647 6.07216C33.265 5.65456 33.0661 5.26703 32.7846 4.94231C32.5032 4.61759 32.1477 4.36522 31.7479 4.20651C31.5072 4.11197 31.2534 4.0546 30.9954 4.03637C30.9535 4.03495 30.9128 4.02145 30.8784 3.99751C30.844 3.97357 30.8172 3.94021 30.8014 3.90144C30.6269 3.50368 30.358 3.15429 30.0179 2.88342C29.6778 2.61256 29.2768 2.42836 28.8495 2.34673C28.5946 2.30294 28.3341 2.30294 28.0793 2.34673C28.0378 2.35453 27.9949 2.34975 27.9561 2.33303C27.9173 2.3163 27.8845 2.28838 27.8617 2.25286C27.605 1.87095 27.2533 1.56207 26.8411 1.3564C26.4289 1.15073 25.9703 1.05532 25.51 1.0795C25.3103 1.08432 25.1123 1.11792 24.9221 1.17923C24.8832 1.19829 24.8387 1.20285 24.7966 1.1921C24.7546 1.18134 24.7178 1.15598 24.6928 1.12056C24.3065 0.702092 23.7954 0.419021 23.2351 0.313339C22.6749 0.207658 22.0954 0.284996 21.5827 0.533881C21.5554 0.553895 21.5225 0.56469 21.4886 0.56469C21.4548 0.56469 21.4218 0.553895 21.3946 0.533881C21.0826 0.299768 20.7236 0.135666 20.3422 0.0528014C20.3015 0.0387892 20.2621 0.0211161 20.2246 0L19.3604 0C19.3247 0.0283884 19.2821 0.0466329 19.2369 0.0528014C18.8703 0.13297 18.5254 0.291055 18.2257 0.51628C18.1937 0.541018 18.1544 0.554445 18.1139 0.554445C18.0735 0.554445 18.0342 0.541018 18.0022 0.51628C17.5263 0.282615 16.9906 0.19846 16.4658 0.274922C15.941 0.351385 15.4517 0.584871 15.0626 0.944559C14.998 1.0156 14.9147 1.06704 14.8221 1.09298C14.7296 1.11893 14.6316 1.11832 14.5394 1.09123C14.019 0.966057 13.4727 1.00427 12.9749 1.20063C12.4772 1.397 12.0524 1.74194 11.7585 2.18833C11.727 2.23601 11.6828 2.27393 11.6309 2.29778C11.5789 2.32164 11.5213 2.33046 11.4645 2.32326C11.0405 2.28316 10.6131 2.3472 10.2196 2.5098C9.82605 2.67239 9.47838 2.92861 9.20689 3.25609C9.04558 3.45253 8.91477 3.67206 8.81886 3.9073C8.80694 3.94356 8.78425 3.97533 8.75379 3.99839C8.72333 4.02145 8.68655 4.0347 8.64836 4.03637C8.11642 4.06692 7.60644 4.25845 7.18631 4.58546C6.76619 4.91246 6.45586 5.35942 6.29666 5.86682C6.26218 5.97687 6.20048 6.07649 6.11725 6.15646C6.03402 6.23644 5.93194 6.29421 5.82044 6.32444C5.35154 6.48578 4.93754 6.77541 4.62568 7.16027C4.31381 7.54513 4.11664 8.00972 4.05666 8.50103C4.0538 8.544 4.0538 8.58712 4.05666 8.6301C4.05643 8.68657 4.03883 8.74161 4.00623 8.78778C3.97364 8.83395 3.92762 8.86901 3.87441 8.88824C3.52749 9.04841 3.21863 9.2803 2.96828 9.56855C2.71793 9.85681 2.5318 10.1948 2.42223 10.5603C2.32081 10.8925 2.28291 11.2408 2.31053 11.587C2.31976 11.6467 2.31066 11.7078 2.28442 11.7622C2.25819 11.8167 2.21605 11.862 2.16354 11.8921C1.72859 12.2085 1.3979 12.6469 1.21361 13.1516C1.02933 13.6563 0.999803 14.2043 1.1288 14.7257C1.15095 14.7879 1.15382 14.8553 1.13704 14.9191C1.12027 14.983 1.08461 15.0403 1.03473 15.0836C0.723759 15.3978 0.496351 15.7846 0.373147 16.2087C0.249942 16.6329 0.234843 17.081 0.329218 17.5125C0.376844 17.7314 0.449846 17.944 0.54675 18.1461C0.565207 18.1739 0.575049 18.2066 0.575049 18.24C0.575049 18.2733 0.565207 18.306 0.54675 18.3338C0.285814 18.7004 0.11282 19.1219 0.0411349 19.5659C0.0329098 19.604 0.0210991 19.6414 0.00585938 19.6773V20.3227C0.0210991 20.3586 0.0329098 20.396 0.0411349 20.4341C0.11282 20.8781 0.285814 21.2996 0.54675 21.6662C0.565207 21.694 0.575049 21.7267 0.575049 21.76C0.575049 21.7934 0.565207 21.8261 0.54675 21.8539C0.450705 22.0563 0.377737 22.2689 0.329218 22.4875C0.234843 22.919 0.249942 23.3671 0.373147 23.7913C0.496351 24.2154 0.723759 24.6022 1.03473 24.9164C1.08446 24.9611 1.11989 25.0195 1.13662 25.0841C1.15335 25.1488 1.15063 25.217 1.1288 25.2801C0.988765 25.8084 1.01271 26.3666 1.19748 26.8809C1.38224 27.3953 1.71911 27.8416 2.16354 28.1608C2.21496 28.192 2.2562 28.2374 2.28228 28.2916C2.30837 28.3457 2.31818 28.4062 2.31053 28.4658C2.28263 28.812 2.32053 29.1604 2.42223 29.4925C2.53642 29.8418 2.72103 30.1641 2.9647 30.4396C3.20837 30.715 3.50595 30.9378 3.83913 31.0942C3.89234 31.1134 3.93836 31.1485 3.97096 31.1946C4.00355 31.2408 4.02115 31.2958 4.02139 31.3523C4.01813 31.3953 4.01813 31.4384 4.02139 31.4814C4.08099 31.9735 4.27794 32.439 4.58978 32.8249C4.90162 33.2108 5.31581 33.5014 5.78516 33.6638C5.89741 33.6925 6.00028 33.7498 6.08375 33.83C6.16721 33.9102 6.22841 34.0106 6.26138 34.1214C6.42276 34.6276 6.73368 35.0732 7.15336 35.3998C7.57303 35.7265 8.08186 35.9189 8.61308 35.9519C8.651 35.9514 8.68806 35.9631 8.71877 35.9853C8.74948 36.0075 8.77221 36.039 8.78358 36.0751C8.8839 36.3133 9.02295 36.5333 9.19513 36.7263C9.46732 37.0533 9.81493 37.3095 10.2081 37.473C10.6013 37.6365 11.0284 37.7024 11.4528 37.665C11.5097 37.6547 11.5685 37.6621 11.621 37.6863C11.6736 37.7104 11.7175 37.7501 11.7467 37.7999C12.0415 38.2387 12.4634 38.5772 12.9562 38.7701C13.449 38.963 13.989 39.0012 14.5041 38.8794C14.5968 38.8523 14.6953 38.8523 14.7881 38.8793C14.8808 38.9063 14.9638 38.9593 15.0273 39.032C15.4175 39.39 15.907 39.6219 16.4316 39.6973C16.9562 39.7727 17.4914 39.688 17.967 39.4544C17.9997 39.4314 18.0387 39.4191 18.0787 39.4191C18.1187 39.4191 18.1577 39.4314 18.1904 39.4544C18.4936 39.6811 18.8427 39.8393 19.2134 39.9179C19.2585 39.924 19.3012 39.9423 19.3368 39.9707H20.2246C20.2621 39.9496 20.3015 39.9319 20.3422 39.9179C20.7231 39.8368 21.0821 39.6747 21.3946 39.4427C21.4218 39.4226 21.4548 39.4118 21.4886 39.4118C21.5225 39.4118 21.5554 39.4226 21.5827 39.4427C22.0888 39.6993 22.6642 39.7872 23.224 39.6932C23.7839 39.5992 24.2987 39.3283 24.6928 38.9205C24.7198 38.8876 24.7566 38.8642 24.7978 38.8537C24.8391 38.8431 24.8826 38.846 24.9221 38.8618C25.1123 38.9232 25.3103 38.9567 25.51 38.9616C25.9703 38.9858 26.4289 38.8903 26.8411 38.6847C27.2533 38.479 27.605 38.1701 27.8617 37.7882C27.8825 37.7508 27.9151 37.7213 27.9545 37.7043C27.9938 37.6873 28.0377 37.6838 28.0793 37.6943C28.3363 37.7235 28.5962 37.7116 28.8495 37.6591C29.274 37.5779 29.6721 37.3942 30.0092 37.1243C30.3464 36.8543 30.6123 36.5062 30.7837 36.1103C30.7996 36.0715 30.8263 36.0382 30.8608 36.0142C30.8952 35.9903 30.9358 35.9768 30.9777 35.9754C31.2433 35.9567 31.5037 35.8932 31.7479 35.7876C32.1542 35.6336 32.5169 35.3833 32.8047 35.0583C33.0925 34.7332 33.2968 34.3433 33.4 33.922C33.4056 33.8813 33.424 33.8435 33.4525 33.814C33.4811 33.7845 33.5183 33.7648 33.5587 33.7577C33.7742 33.7048 33.9817 33.6239 34.1761 33.5172C34.5631 33.3073 34.8928 33.0062 35.1367 32.6401C35.3806 32.2741 35.5311 31.8542 35.5753 31.4168C35.5768 31.3448 35.6001 31.2749 35.642 31.2163C35.684 31.1577 35.7427 31.1131 35.8105 31.0883C36.3019 30.8416 36.7061 30.4509 36.9688 29.9685C37.2315 29.4862 37.3402 28.9353 37.2803 28.3896C37.2725 28.3498 37.2774 28.3086 37.2942 28.2718C37.3111 28.235 37.3391 28.2043 37.3744 28.1842C37.5683 28.0554 37.7425 27.8993 37.8917 27.7207C38.1918 27.3891 38.4031 26.9872 38.5058 26.5523C38.6086 26.1174 38.5996 25.6637 38.4797 25.2332C38.4626 25.1845 38.4601 25.1319 38.4727 25.0819C38.4852 25.0318 38.5122 24.9865 38.5502 24.9516C38.9371 24.5558 39.1935 24.0515 39.2849 23.5062C39.3763 22.9609 39.2984 22.4007 39.0617 21.9009ZM8.00752 25.4209V29.9795C8.00752 30.2552 8.00752 30.2669 7.70768 30.2552C7.27932 30.2412 6.85787 30.1435 6.46715 29.9677C6.19079 29.8459 5.93181 29.6881 5.69697 29.4984C5.24349 29.1155 4.87846 28.6391 4.62695 28.1021C4.43855 27.6817 4.30042 27.2406 4.2154 26.7879C4.19199 26.6205 4.19199 26.4507 4.2154 26.2834C4.2154 25.6028 4.2154 24.9281 4.2154 24.2534C4.25908 23.816 4.36601 23.3872 4.53288 22.9803C4.64487 22.703 4.78473 22.4376 4.95031 22.1883C5.13893 21.9073 5.36657 21.6545 5.62642 21.4374C6.05869 21.0536 6.58003 20.7834 7.14327 20.6512C7.25491 20.6247 7.36955 20.6129 7.48427 20.616C7.60773 20.616 7.73119 20.616 7.84878 20.616C7.96636 20.616 8.01928 20.616 8.02516 20.7686V25.4209H8.00752ZM26.7682 28.7944C26.136 29.7971 25.2604 30.6245 24.2225 31.1998C23.4524 31.6317 22.6192 31.9405 21.7532 32.115C21.1726 32.2301 20.5812 32.2812 19.9894 32.2675C18.6344 32.2969 17.2926 31.9969 16.0797 31.3934C14.8677 30.811 13.8477 29.895 13.1401 28.7533C12.7684 28.1718 12.4999 27.5308 12.3464 26.8583C12.248 26.2771 12.2224 25.6858 12.27 25.0983C12.2852 24.8448 12.3246 24.5934 12.3876 24.3473C12.3876 24.3062 12.3876 24.2358 12.4522 24.2417C12.5169 24.2476 12.5051 24.3121 12.511 24.3591C12.6226 24.9099 12.7639 25.4544 12.9343 25.99C13.0171 26.2795 13.144 26.5546 13.3106 26.8055C13.627 27.2178 14.0901 27.4929 14.604 27.5741C14.937 27.6568 15.2781 27.702 15.6211 27.709C16.0439 27.7218 16.467 27.6963 16.8852 27.6327C17.324 27.5756 17.7377 27.3961 18.0788 27.1149C18.4199 26.8336 18.6746 26.462 18.8136 26.0428C18.9723 25.5852 19.1193 25.1217 19.278 24.6583C19.3337 24.474 19.4106 24.2968 19.5073 24.1302C19.549 24.0632 19.6065 24.0074 19.6749 23.9678C19.7432 23.9282 19.8203 23.906 19.8993 23.9031C19.9783 23.9002 20.0568 23.9167 20.1279 23.9512C20.1989 23.9857 20.2604 24.0371 20.3069 24.1009C20.4221 24.2832 20.5112 24.4807 20.5715 24.6876C20.7185 25.1217 20.8596 25.5559 21.0065 25.9842C21.1348 26.4146 21.3841 26.7992 21.7249 27.0925C22.0656 27.3857 22.4836 27.5753 22.9291 27.6386C23.4005 27.7215 23.8807 27.7432 24.3577 27.7031C24.9225 27.6945 25.4763 27.5453 25.9686 27.269C26.3307 27.0353 26.6023 26.6857 26.7388 26.2775C26.9455 25.7313 27.1029 25.1678 27.2092 24.5937C27.2092 24.4471 27.2797 24.3062 27.3209 24.1654C27.3209 24.1302 27.3209 24.0774 27.3796 24.0774C27.4384 24.0774 27.4326 24.1302 27.4443 24.1713C27.5503 24.5543 27.6134 24.9478 27.6325 25.3447C27.7172 26.5531 27.4146 27.7572 26.7682 28.7826V28.7944ZM26.4978 22.2705C26.4978 22.3174 26.4096 22.3057 26.3684 22.2998C25.855 22.2441 25.3386 22.2206 24.8222 22.2294C24.009 22.2167 23.1963 22.2776 22.394 22.4113C21.8699 22.5044 21.356 22.6478 20.8596 22.8395C20.6524 22.9169 20.4376 22.972 20.2187 23.0038C19.7965 23.0543 19.3684 22.9999 18.9723 22.8454C18.4972 22.665 18.0074 22.5256 17.5084 22.4289C17.0733 22.3526 16.6383 22.3115 16.1973 22.2705C15.6105 22.2265 15.0217 22.2147 14.4335 22.2353C14.1135 22.2333 13.7936 22.249 13.4752 22.2822C13.3929 22.2822 13.3812 22.2822 13.4223 22.1942C13.4836 22.0986 13.5504 22.0065 13.6222 21.9185C14.1352 21.2927 14.7516 20.7589 15.4448 20.3403C16.2154 19.8701 17.0572 19.5273 17.9376 19.3253C18.7576 19.1459 19.5979 19.0769 20.4363 19.12C21.4992 19.1628 22.5444 19.4056 23.517 19.8357C24.6788 20.3399 25.6912 21.1339 26.4566 22.1414C26.4566 22.1766 26.5272 22.2118 26.4978 22.2587V22.2705ZM26.633 23.8956C26.633 23.9894 26.633 24.0833 26.633 24.1772C26.6144 24.8873 26.4628 25.5877 26.1862 26.2423C26.1131 26.4197 26.0013 26.5787 25.8589 26.7076C25.7165 26.8364 25.5471 26.932 25.3631 26.9874C24.7809 27.1742 24.1678 27.2459 23.5581 27.1986C23.1692 27.1818 22.7875 27.0881 22.4352 26.9229C22.0472 26.7387 21.7398 26.4195 21.5709 26.0252C21.2788 25.386 21.1265 24.692 21.1241 23.9894C21.099 23.8015 21.1455 23.6111 21.2544 23.4557C21.3632 23.3004 21.5266 23.1914 21.7121 23.1505C22.1821 22.9795 22.6721 22.8691 23.1701 22.8219C23.5935 22.772 24.0196 22.7485 24.4459 22.7515C24.9235 22.7589 25.3988 22.8199 25.8628 22.9334C26.0838 22.974 26.2829 23.0921 26.4242 23.2664C26.5654 23.4407 26.6395 23.6597 26.633 23.8838V23.8956ZM13.6986 23.0331C13.9762 22.9263 14.2669 22.8572 14.5629 22.8278C14.8844 22.7839 15.2084 22.7604 15.533 22.7574C16.2951 22.7626 17.0535 22.8631 17.7906 23.0566C17.9836 23.1099 18.1678 23.1909 18.3374 23.2972C18.4381 23.3586 18.5212 23.4448 18.5789 23.5475C18.6366 23.6503 18.6668 23.7661 18.6666 23.8838C18.6637 24.4839 18.5583 25.0791 18.355 25.6439C18.3011 25.8139 18.2323 25.9788 18.1492 26.1367C18.0209 26.3742 17.8425 26.5812 17.6263 26.7432C17.4101 26.9053 17.1613 27.0186 16.8969 27.0754C16.062 27.2745 15.1876 27.2338 14.3747 26.9581C14.186 26.8931 14.0147 26.7858 13.8741 26.6444C13.7334 26.503 13.6271 26.3314 13.5634 26.1426C13.4505 25.8456 13.3639 25.5394 13.3047 25.2273C13.1873 24.7378 13.1516 24.2324 13.1989 23.7313C13.2083 23.5761 13.262 23.4267 13.3537 23.301C13.4454 23.1752 13.5712 23.0782 13.7163 23.0214L13.6986 23.0331ZM31.6715 19.5365C31.5744 19.6101 31.4968 19.7064 31.4455 19.8168C31.3943 19.9273 31.3709 20.0486 31.3775 20.1701C31.3775 23.4262 31.3775 26.6823 31.3775 29.9443C31.3775 30.2493 31.3775 30.2493 31.0777 30.2493H29.9842C29.9231 30.2451 29.8619 30.2544 29.8049 30.2768C29.748 30.2991 29.6967 30.3338 29.6549 30.3784C29.5869 30.4489 29.5044 30.5037 29.413 30.5392C29.3216 30.5746 29.2236 30.5898 29.1258 30.5837C28.9576 30.581 28.7967 30.5147 28.6755 30.3982C28.5544 30.2817 28.4821 30.1236 28.4732 29.956C28.4724 29.8497 28.4462 29.7451 28.3968 29.6509C28.3266 29.5214 28.2921 29.3757 28.2968 29.2285V21.6368C28.296 21.5031 28.3218 21.3705 28.3725 21.2466C28.4233 21.1228 28.4981 21.0102 28.5926 20.9154C28.6872 20.8205 28.7995 20.7452 28.9233 20.6938C29.0471 20.6425 29.1799 20.616 29.3139 20.616C29.6314 20.616 29.649 20.6571 29.6432 20.2875C29.6651 20.1487 29.6487 20.0066 29.5959 19.8764C29.5431 19.7462 29.4558 19.6327 29.3433 19.5483C29.1667 19.3979 29.0267 19.2093 28.934 18.9968C28.8413 18.7843 28.7983 18.5536 28.8083 18.3221C28.8083 18.0346 28.8083 17.7354 28.8083 17.4714C28.7865 17.2566 28.7531 17.0431 28.7084 16.8319C28.6208 16.3074 28.489 15.7913 28.3144 15.2889C28.1226 14.7398 27.8764 14.2112 27.5795 13.7108C27.3521 13.3185 27.0925 12.9456 26.8035 12.5961C26.3097 11.9948 25.7452 11.4551 25.122 10.9886C24.3601 10.4383 23.5198 10.0052 22.6292 9.70373C22.1675 9.55565 21.6932 9.44961 21.2123 9.38692C20.6585 9.31846 20.1004 9.291 19.5426 9.30478C18.888 9.30954 18.2364 9.39426 17.6025 9.55706C16.885 9.74429 16.1937 10.0202 15.5447 10.3784C14.9089 10.7301 14.3169 11.1555 13.7809 11.6456C13.2702 12.1157 12.8181 12.6456 12.4346 13.2238C12.0407 13.8057 11.7171 14.4319 11.4704 15.0895C11.3005 15.5402 11.1649 16.003 11.0647 16.474C10.9771 16.8395 10.9279 17.2131 10.9177 17.5887C10.9314 17.8888 10.9157 18.1894 10.8707 18.4864C10.7991 18.9533 10.5481 19.3741 10.1711 19.6597C10.1169 19.6964 10.0731 19.7465 10.0443 19.8051C10.0154 19.8638 10.0024 19.9289 10.0065 19.9941C10.0065 20.1408 10.0065 20.2933 10.0065 20.44C10.0065 20.5867 10.0476 20.6101 10.1593 20.6043C10.4162 20.5998 10.6661 20.6882 10.8628 20.8532C11.0594 21.0182 11.1896 21.2486 11.2293 21.5019C11.2382 21.5602 11.2382 21.6196 11.2293 21.6779C11.2293 24.1654 11.2293 26.6471 11.2293 29.1346C11.2273 29.2951 11.1849 29.4525 11.1059 29.5923C11.0422 29.7164 11.0042 29.8521 10.9942 29.9912C10.9887 30.106 10.9496 30.2167 10.8817 30.3095C10.8138 30.4024 10.72 30.4732 10.612 30.5133C10.4979 30.569 10.3697 30.5893 10.2439 30.5715C10.1182 30.5538 10.0006 30.4987 9.90652 30.4136C9.84135 30.349 9.76293 30.2993 9.67665 30.2679C9.59038 30.2365 9.4983 30.2242 9.40678 30.2317C9.1187 30.2317 8.81886 30.2317 8.53077 30.2317C8.34264 30.2317 8.33088 30.2317 8.33088 30.0264V21.2262C8.33088 20.7862 8.2956 20.3461 8.33088 19.9061C8.33048 19.8452 8.31396 19.7854 8.28299 19.7329C8.25202 19.6803 8.2077 19.6369 8.1545 19.6069C7.88959 19.4089 7.68586 19.1406 7.56658 18.8325C7.51407 18.6833 7.48435 18.5271 7.47839 18.369C7.4637 17.9561 7.47549 17.5426 7.51366 17.1311C7.51366 16.8436 7.59009 16.5444 7.62537 16.2687C7.75605 15.5215 7.95884 14.7886 8.23093 14.0804C8.46369 13.4174 8.75692 12.7772 9.10694 12.1678C9.46283 11.5216 9.88232 10.9123 10.3592 10.3491C10.8959 9.72416 11.486 9.14704 12.123 8.62423C12.725 8.11881 13.3817 7.68197 14.0808 7.32179C14.5733 7.0472 15.0887 6.81557 15.6211 6.62951C16.0562 6.48284 16.4972 6.33617 16.9381 6.21297C17.1622 6.15143 17.39 6.1044 17.6201 6.07216C17.8847 6.03109 18.1492 6.00763 18.4138 5.96069C18.637 5.91529 18.8628 5.88394 19.0899 5.86682C19.6778 5.86682 20.2658 5.86682 20.8537 5.86682C21.083 5.86682 21.3005 5.93722 21.5239 5.95483C22.3936 6.06057 23.248 6.26731 24.0696 6.57084C24.6641 6.77916 25.2387 7.0403 25.7864 7.35113C26.3317 7.65756 26.8544 8.00263 27.3503 8.38369C27.8656 8.79456 28.3527 9.23948 28.8083 9.71546C29.2387 10.1535 29.632 10.6264 29.9842 11.1294C30.4763 11.8303 30.8958 12.5792 31.2364 13.3646C31.4244 13.7833 31.5701 14.2196 31.6715 14.6671C31.8043 15.1022 31.9103 15.545 31.989 15.993C32.0231 16.3754 32.09 16.7542 32.1889 17.1253C32.1916 17.1467 32.1916 17.1684 32.1889 17.1898C32.1889 17.6357 32.2418 18.0874 32.1889 18.5333C32.1501 18.9211 31.9652 19.2796 31.6715 19.5365ZM35.3872 26.4359C35.3822 26.5716 35.3685 26.7068 35.346 26.8407C35.2811 27.2228 35.1685 27.5953 35.0109 27.9495C34.765 28.573 34.3596 29.1212 33.8351 29.5395C33.4393 29.8494 32.9794 30.0679 32.4887 30.1789C32.2945 30.2133 32.098 30.2329 31.9008 30.2376C31.886 30.2401 31.8708 30.2395 31.8563 30.2357C31.8417 30.2319 31.8282 30.225 31.8165 30.2156C31.8048 30.2061 31.7953 30.1943 31.7885 30.1809C31.7818 30.1675 31.778 30.1529 31.7773 30.1379C31.7773 30.0733 31.7773 30.0088 31.7773 29.9443V20.8566C31.7773 20.616 31.7773 20.616 32.0125 20.616C32.575 20.6212 33.1225 20.7972 33.5823 21.1206C34.0612 21.414 34.464 21.816 34.7581 22.2939C34.9887 22.6738 35.1685 23.082 35.2931 23.5084C35.3443 23.6771 35.3817 23.8498 35.4048 24.0246C35.4431 24.3144 35.4608 24.6065 35.4577 24.8988C35.3931 25.4033 35.4048 25.9196 35.3872 26.4359Z" fill="white"/>
<path d="M143.33 15.1718C143.223 15.166 143.115 15.166 143.007 15.1718C141.845 15.1749 140.731 15.637 139.909 16.4571C139.087 17.2773 138.624 18.3887 138.621 19.5485V20.5986H143.325V21.3261H138.621V27.7796H137.892V19.5661C137.895 18.2139 138.435 16.918 139.394 15.9624C140.353 15.0068 141.652 14.4694 143.007 14.4678H143.33V15.1718ZM146.188 23.1214C145.231 22.1655 144.694 20.8699 144.694 19.5192C144.694 18.1684 145.231 16.8728 146.188 15.9169C146.904 15.2067 147.814 14.7236 148.805 14.5282C149.795 14.3329 150.821 14.434 151.754 14.819C152.687 15.2039 153.485 15.8555 154.048 16.6918C154.611 17.528 154.914 18.5117 154.918 19.5192C154.917 20.5278 154.616 21.5134 154.053 22.3515C153.491 23.1896 152.692 23.8426 151.758 24.228C150.824 24.6134 149.796 24.714 148.805 24.517C147.813 24.3201 146.903 23.8344 146.188 23.1214ZM146.705 16.4273C145.885 17.2469 145.424 18.3579 145.424 19.5162C145.424 20.6746 145.885 21.7856 146.705 22.6051C147.317 23.2165 148.097 23.633 148.947 23.8021C149.796 23.9711 150.677 23.885 151.477 23.5548C152.278 23.2245 152.962 22.6648 153.444 21.9465C153.925 21.2282 154.183 20.3835 154.184 19.5192C154.184 18.6543 153.927 17.8088 153.446 17.0896C152.965 16.3704 152.281 15.8098 151.48 15.4788C150.679 15.1478 149.798 15.0612 148.948 15.2301C148.098 15.3989 147.318 15.8156 146.705 16.4273ZM160.657 14.4091C161.036 14.4084 161.413 14.4577 161.78 14.5558V15.3126C161.232 15.1359 160.651 15.0908 160.083 15.181C159.516 15.2712 158.977 15.4942 158.512 15.8318C158.047 16.1693 157.669 16.6119 157.408 17.1232C157.147 17.6346 157.011 18.2003 157.011 18.7741V24.2478H156.282V18.7741C156.282 17.6164 156.743 16.5062 157.564 15.6876C158.384 14.869 159.496 14.4091 160.657 14.4091ZM166.065 16.9025C166.509 16.1561 167.139 15.5374 167.894 15.1073C168.67 14.6669 169.548 14.437 170.441 14.4403C171.334 14.4436 172.21 14.6801 172.983 15.1262C173.756 15.5723 174.398 16.2126 174.846 16.9832C175.294 17.7539 175.533 18.6282 175.537 19.5192C175.56 20.2036 175.445 20.8857 175.199 21.5249C174.952 22.1641 174.58 22.7472 174.103 23.2396C173.626 23.732 173.054 24.1236 172.422 24.3911C171.791 24.6585 171.111 24.7963 170.425 24.7963C169.739 24.7963 169.059 24.6585 168.428 24.3911C167.796 24.1236 167.224 23.732 166.747 23.2396C166.27 22.7472 165.898 22.1641 165.651 21.5249C165.405 20.8857 165.29 20.2036 165.313 19.5192V12.127H166.042L166.065 16.9025ZM166.065 19.5192C166.066 20.2378 166.244 20.9452 166.584 21.5788C166.923 22.2124 167.414 22.7526 168.013 23.1517C168.612 23.5507 169.3 23.7963 170.017 23.8666C170.734 23.9369 171.457 23.8297 172.122 23.5547C172.787 23.2796 173.374 22.8451 173.831 22.2897C174.288 21.7342 174.601 21.0749 174.741 20.3701C174.882 19.6653 174.846 18.9368 174.637 18.2491C174.428 17.5614 174.053 16.9357 173.544 16.4273C172.931 15.8156 172.151 15.3989 171.301 15.2301C170.451 15.0612 169.57 15.1478 168.769 15.4788C167.968 15.8098 167.284 16.3704 166.803 17.0896C166.322 17.8088 166.065 18.6543 166.065 19.5192ZM181.293 14.4091C181.674 14.408 182.053 14.4573 182.422 14.5558V15.3126C182.058 15.1912 181.676 15.1297 181.293 15.1308C180.326 15.1339 179.401 15.5191 178.719 16.202C178.037 16.8849 177.653 17.8098 177.653 18.7741V24.2478H176.919V18.7741C176.922 17.6174 177.384 16.5089 178.203 15.691C179.023 14.8731 180.134 14.4122 181.293 14.4091ZM192.463 22.1299C192.017 22.8916 191.379 23.5239 190.613 23.9643C189.847 24.4047 188.979 24.6379 188.095 24.6409C187.424 24.6424 186.759 24.5116 186.138 24.256C185.517 24.0003 184.954 23.6248 184.479 23.1511C184.004 22.6774 183.628 22.1147 183.372 21.4955C183.116 20.8762 182.984 20.2126 182.986 19.5426C182.986 18.1905 183.524 16.8937 184.482 15.9376C185.441 14.9815 186.74 14.4443 188.095 14.4443C189.45 14.4443 190.75 14.9815 191.708 15.9376C192.666 16.8937 193.204 18.1905 193.204 19.5426V24.2771H192.475L192.463 22.1299ZM192.463 19.5192C192.464 18.8003 192.287 18.0924 191.948 17.4582C191.609 16.824 191.118 16.283 190.519 15.8832C189.921 15.4834 189.232 15.2372 188.515 15.1662C187.799 15.0953 187.075 15.2019 186.409 15.4766C185.744 15.7513 185.156 16.1856 184.699 16.7411C184.242 17.2965 183.929 17.9559 183.788 18.6609C183.647 19.3659 183.682 20.0946 183.891 20.7826C184.1 21.4706 184.476 22.0966 184.985 22.6051C185.597 23.2165 186.377 23.633 187.227 23.8021C188.076 23.9711 188.957 23.885 189.757 23.5548C190.557 23.2245 191.242 22.6648 191.723 21.9465C192.205 21.2282 192.463 20.3835 192.463 19.5192ZM194.856 24.2595V18.7741C194.856 17.6133 195.318 16.5001 196.141 15.6793C196.963 14.8585 198.079 14.3974 199.242 14.3974C200.405 14.3974 201.521 14.8585 202.343 15.6793C203.166 16.5001 203.628 17.6133 203.628 18.7741V24.2771H202.899V18.7741C202.919 18.2829 202.839 17.7929 202.664 17.3333C202.489 16.8737 202.223 16.4541 201.882 16.0997C201.541 15.7452 201.131 15.4632 200.678 15.2706C200.225 15.0779 199.738 14.9786 199.245 14.9786C198.752 14.9786 198.265 15.0779 197.812 15.2706C197.359 15.4632 196.949 15.7452 196.608 16.0997C196.267 16.4541 196.001 16.8737 195.826 17.3333C195.651 17.7929 195.571 18.2829 195.591 18.7741V24.2771L194.856 24.2595ZM214.481 12.127H215.21V19.5192C215.212 20.3595 215.007 21.1875 214.611 21.9295C214.216 22.6714 213.643 23.3045 212.944 23.7725C212.244 24.2405 211.44 24.5289 210.602 24.6121C209.764 24.6953 208.918 24.5707 208.14 24.2494C207.362 23.9281 206.675 23.42 206.141 22.7703C205.607 22.1206 205.241 21.3493 205.078 20.525C204.914 19.7006 204.957 18.8487 205.203 18.0448C205.448 17.2409 205.889 16.51 206.485 15.9169C207.277 15.1181 208.313 14.6049 209.43 14.4584C210.547 14.3118 211.68 14.5401 212.653 15.1073C213.407 15.5391 214.036 16.1574 214.481 16.9025V12.127ZM213.211 16.4273C212.599 15.8156 211.818 15.3989 210.968 15.2301C210.118 15.0612 209.237 15.1478 208.436 15.4788C207.636 15.8098 206.951 16.3704 206.47 17.0896C205.989 17.8088 205.732 18.6543 205.733 19.5192C205.733 20.2378 205.911 20.9452 206.251 21.5788C206.591 22.2124 207.082 22.7526 207.681 23.1517C208.279 23.5507 208.968 23.7963 209.684 23.8666C210.401 23.9369 211.124 23.8297 211.789 23.5547C212.455 23.2796 213.042 22.8451 213.499 22.2897C213.955 21.7342 214.268 21.0749 214.409 20.3701C214.549 19.6653 214.513 18.9368 214.305 18.2491C214.096 17.5614 213.72 16.9357 213.211 16.4273ZM216.645 23.5555L217.044 22.9688C217.853 23.5424 218.811 23.8705 219.802 23.9134C220.485 23.9528 221.156 23.7279 221.677 23.2857C221.868 23.1123 222.02 22.9 222.121 22.6631C222.223 22.4262 222.272 22.1703 222.265 21.9128C222.266 21.5861 222.185 21.2645 222.03 20.9767C221.875 20.6889 221.651 20.4441 221.377 20.2642C220.752 19.8687 220.081 19.5496 219.379 19.3138L218.867 19.1143L218.361 18.909C218.044 18.7735 217.743 18.6044 217.462 18.4045C217.194 18.234 216.972 17.9992 216.818 17.7215C216.664 17.4438 216.582 17.132 216.58 16.8145C216.563 16.4355 216.652 16.0593 216.835 15.7271C217.019 15.3949 217.291 15.1195 217.621 14.9313C218.17 14.5997 218.802 14.4308 219.443 14.4443C220.167 14.4331 220.887 14.5381 221.577 14.7553C221.763 14.8128 221.944 14.8854 222.118 14.9724L222.253 15.0486H222.289L221.871 15.6353H221.842L221.736 15.5766C221.589 15.51 221.438 15.4532 221.283 15.4065C220.683 15.2281 220.058 15.143 219.431 15.1542H219.296H219.026C218.778 15.1908 218.535 15.2557 218.303 15.3478C218.006 15.4464 217.75 15.638 217.572 15.8939C217.394 16.1498 217.304 16.4563 217.315 16.7676C217.324 16.9781 217.385 17.183 217.494 17.3634C217.603 17.5438 217.756 17.694 217.938 17.8002C218.476 18.1249 219.048 18.3904 219.643 18.5922L219.943 18.7037L220.243 18.821L220.831 19.0733C221.213 19.2413 221.574 19.454 221.907 19.7069C222.249 19.9527 222.526 20.2773 222.716 20.6533C222.905 21.0292 223.001 21.4452 222.994 21.8659C223.006 22.2152 222.945 22.5631 222.814 22.8874C222.684 23.2117 222.487 23.5052 222.236 23.7491C221.912 24.0547 221.529 24.2914 221.111 24.4447C220.692 24.598 220.247 24.6647 219.802 24.6409C218.666 24.5936 217.569 24.2163 216.645 23.5555Z" fill="white"/>
</g>
<defs>
<clipPath id="clip0_592_4000">
<rect width="223" height="40" fill="white"/>
</clipPath>
</defs>
</svg>
