<svg width="261" height="47" viewBox="0 0 261 47" fill="none" xmlns="http://www.w3.org/2000/svg">
<g clip-path="url(#clip0_32_3330)">
<path d="M94.0027 11.5604V11.3674H91.8765V11.5328V11.6707C91.8522 11.7818 91.8383 11.8949 91.8352 12.0085V18.061C91.6838 17.9094 91.5324 17.7715 91.381 17.6336L91.3053 17.5647C90.2708 16.6833 88.9947 16.1355 87.6441 15.9928C86.2935 15.8501 84.9314 16.1193 83.7361 16.765C82.4577 17.4513 81.425 18.5203 80.7823 19.8228C80.1396 21.1254 79.9189 22.5965 80.1511 24.0308C80.2945 25.0381 80.6637 25.9999 81.2309 26.8439C81.7982 27.688 82.5488 28.3924 83.4265 28.9045C84.4529 29.5643 85.6474 29.9137 86.867 29.911C87.4958 29.9087 88.1219 29.83 88.7318 29.6766C90.2252 29.3988 91.5714 28.5979 92.5294 27.4171C93.4875 26.2362 93.9951 24.7525 93.9614 23.2311C94.0509 20.5151 94.0302 17.7577 94.0096 15.083C94.0096 13.9111 94.0027 12.7392 94.0027 11.5604ZM91.9384 22.8727C91.9491 23.5319 91.8272 24.1866 91.5802 24.7976C91.3331 25.4087 90.9658 25.9638 90.5002 26.4297C90.0488 26.8795 89.5114 27.2334 88.9202 27.4703C88.329 27.7072 87.6962 27.8222 87.0597 27.8084C85.7712 27.7939 84.5409 27.2685 83.6382 26.3474C82.7354 25.4262 82.2337 24.1842 82.2429 22.8934C82.231 22.2522 82.3468 21.615 82.5836 21.0192C82.8203 20.4234 83.1732 19.8808 83.6217 19.4232C84.0702 18.9655 84.6052 18.6021 85.1955 18.354C85.7858 18.1059 86.4195 17.9782 87.0597 17.9783H87.101C87.7447 17.9598 88.3854 18.0742 88.9831 18.3144C89.5808 18.5546 90.1228 18.9155 90.5752 19.3746C91.0277 19.8337 91.381 20.3812 91.6132 20.983C91.8453 21.5848 91.9513 22.2281 91.9246 22.8727H91.9384Z" fill="#FF8C00"/>
<path d="M139.879 11.3674H137.732V18.0886L137.608 17.9645C137.515 17.8606 137.416 17.7616 137.312 17.6681C136.452 16.8817 135.397 16.3394 134.258 16.0971C133.119 15.8548 131.935 15.9211 130.83 16.2894C129.553 16.6948 128.419 17.4605 127.565 18.4948C126.71 19.5291 126.172 20.7882 126.013 22.1213C125.877 23.1381 125.973 24.1726 126.294 25.1469C126.614 26.1213 127.151 27.0101 127.865 27.7464C128.488 28.436 129.251 28.9845 130.103 29.3553C130.955 29.7262 131.876 29.9109 132.805 29.8972C133.188 29.8976 133.57 29.8677 133.947 29.8076C136.576 29.4284 138.379 28.1255 139.308 25.9403C139.655 25.2337 139.858 24.4651 139.906 23.6792C139.906 20.6874 139.906 17.6405 139.906 14.7177L139.879 11.3674ZM128.181 22.8727C128.172 21.7917 128.522 20.7385 129.176 19.8787C129.83 19.0189 130.751 18.4013 131.794 18.123C132.209 18.0267 132.633 17.9758 133.06 17.9714C133.7 17.9713 134.335 18.0993 134.926 18.3479C135.516 18.5964 136.052 18.9606 136.5 19.419C137.3 20.2034 137.772 21.263 137.821 22.3832C137.908 23.1207 137.826 23.8683 137.582 24.5694C137.337 25.2705 136.937 25.9066 136.411 26.4297C135.902 26.9459 135.28 27.3362 134.595 27.5695C133.909 27.8028 133.178 27.8729 132.461 27.774C131.376 27.6563 130.362 27.1727 129.587 26.4024C128.812 25.6321 128.321 24.6209 128.195 23.5345C128.181 23.3923 128.181 23.2492 128.195 23.1071C128.195 23.0312 128.195 22.9554 128.195 22.8796L128.181 22.8727Z" fill="#FF8C00"/>
<path d="M155.939 21.5905C155.895 21.5327 155.869 21.4632 155.864 21.3906C155.485 19.6677 154.465 18.1543 153.012 17.159C151.558 16.1637 149.78 15.7614 148.04 16.0343C147.213 16.1296 146.414 16.389 145.688 16.7974C144.963 17.2057 144.326 17.7548 143.815 18.4126C142.929 19.4012 142.354 20.6305 142.164 21.9457C141.975 23.2608 142.178 24.6028 142.748 25.8024C143.253 27.0305 144.112 28.08 145.215 28.8167C146.318 29.5535 147.616 29.944 148.941 29.9385C149.719 29.9344 150.493 29.8207 151.24 29.6008C153.407 28.9734 154.921 27.4155 155.747 24.9683C155.771 24.8823 155.789 24.7948 155.802 24.7064C155.802 24.5547 155.843 24.4513 155.919 24.3824L155.981 24.3272V21.6525L155.939 21.5905ZM153.841 22.914C153.864 23.557 153.758 24.198 153.53 24.7994C153.302 25.4008 152.956 25.9504 152.513 26.416C152.06 26.8638 151.522 27.2165 150.931 27.4532C150.34 27.69 149.708 27.8061 149.072 27.7947C148.439 27.8093 147.81 27.6938 147.223 27.4555C146.636 27.2172 146.104 26.861 145.66 26.4089C145.216 25.9568 144.869 25.4184 144.64 24.8268C144.412 24.2353 144.306 23.6031 144.331 22.9692C144.301 21.6997 144.772 20.4697 145.642 19.5458C146.511 18.6218 147.709 18.0784 148.976 18.0334H149.079C150.292 18.0369 151.456 18.5114 152.327 19.357C152.803 19.819 153.182 20.3716 153.442 20.9824C153.702 21.5933 153.838 22.25 153.841 22.914Z" fill="#FF8C00"/>
<path d="M77.2264 20.5427C77.1625 19.4897 76.7286 18.4933 76.0016 17.7301C75.4568 17.2106 74.8044 16.8177 74.0908 16.5794C73.3772 16.3411 72.62 16.2633 71.8729 16.3514C71.0049 16.4111 70.1646 16.683 69.4257 17.1433C68.6868 17.6035 68.0717 18.2382 67.6342 18.9916C67.3733 18.3892 66.9785 17.8544 66.4801 17.4279C65.9817 17.0015 65.3926 16.6946 64.7579 16.5306C63.5304 16.1246 62.1935 16.2111 61.0283 16.7719C60.0263 17.2662 59.1859 18.0366 58.6057 18.9927C58.0255 19.9488 57.7297 21.0509 57.7529 22.1695C57.7529 22.9278 57.7529 23.6999 57.7529 24.4444C57.7529 24.7201 57.7529 24.9959 57.7529 25.2716V26.4987C57.7529 27.4362 57.7529 28.3737 57.7529 29.3112C57.7455 29.3966 57.7551 29.4826 57.7811 29.5642C57.807 29.6459 57.8489 29.7216 57.9043 29.7869C58.0085 29.8784 58.1444 29.9255 58.2828 29.9179H58.3722C58.5372 29.9075 58.7027 29.9075 58.8677 29.9179H59.1085C59.7072 29.9179 59.7966 29.8282 59.7966 29.2285C59.7966 28.6288 59.7966 27.9739 59.7966 27.3397C59.7966 25.8576 59.7966 24.3203 59.7966 22.8106C59.7724 21.9454 59.9417 21.0857 60.2921 20.2945C60.5239 19.7071 60.9345 19.2079 61.4656 18.8676C61.9968 18.5273 62.6214 18.3632 63.2509 18.3988C63.9603 18.4187 64.6431 18.6738 65.1922 19.1242C65.7414 19.5745 66.1259 20.1946 66.2855 20.8873C66.4278 21.6441 66.4969 22.4128 66.4919 23.1829C66.4919 24.5616 66.4919 26.023 66.4919 27.4086C66.4919 27.9808 66.4919 28.546 66.4919 29.1113V29.2009C66.4988 29.2536 66.4988 29.3069 66.4919 29.3595C66.4786 29.4349 66.4836 29.5124 66.5065 29.5854C66.5294 29.6584 66.5696 29.7248 66.6237 29.779C66.6777 29.8331 66.744 29.8734 66.8169 29.8964C66.8898 29.9193 66.9672 29.9243 67.0424 29.911C67.2351 29.911 67.4346 29.911 67.6342 29.911H67.9438C68.5218 29.911 68.6319 29.7869 68.6319 29.2216V24.4168C68.5853 23.5122 68.6454 22.6051 68.8109 21.7146V21.625C68.902 20.9129 69.2012 20.2438 69.671 19.7017C70.7788 18.6125 71.8661 18.2196 73.1115 18.4677C73.5484 18.5301 73.9564 18.7224 74.2828 19.0199C74.6091 19.3174 74.8388 19.7062 74.9419 20.136C75.0718 20.7037 75.141 21.2838 75.1483 21.8662C75.1483 22.4522 75.1483 23.045 75.1483 23.6241V29.1389C75.1483 29.7593 75.2447 29.8282 75.8777 29.8282H76.6278C77.2608 29.8282 77.3572 29.7317 77.3572 29.1389V28.2152C77.3572 27.4775 77.3572 26.7124 77.3572 25.961C77.3572 25.3888 77.3572 24.8029 77.3572 24.2376C77.4061 23.0044 77.3624 21.7693 77.2264 20.5427Z" fill="#FF8C00"/>
<path d="M123.11 20.977C122.889 18.6746 121.795 17.2683 119.731 16.5445C118.327 16.0989 116.82 16.0989 115.417 16.5445C114.459 16.8234 113.602 17.3707 112.944 18.1219C112.287 18.873 111.858 19.7966 111.708 20.784C111.534 21.8548 111.463 22.9396 111.494 24.0239C111.536 25.2096 111.529 26.4229 111.494 27.5879C111.494 28.1049 111.494 28.6219 111.494 29.132C111.494 29.6421 111.604 29.8214 112.182 29.8214H112.967C113.559 29.8214 113.655 29.7111 113.655 29.132C113.655 28.229 113.655 27.319 113.655 26.4366C113.655 24.7753 113.655 23.0588 113.806 21.363C113.822 20.8006 114.007 20.2561 114.336 19.8C114.664 19.3439 115.123 18.9974 115.651 18.8055C116.655 18.4164 117.755 18.3442 118.802 18.5987C119.221 18.6467 119.618 18.8109 119.949 19.0727C120.279 19.3346 120.53 19.6837 120.674 20.0808C120.86 20.6148 120.956 21.1764 120.956 21.7422C120.956 22.597 120.956 23.4724 120.956 24.3203C120.956 24.6788 120.956 25.0097 120.956 25.3819V25.575V29.0217C120.956 29.7111 121.045 29.8214 121.74 29.8214H121.995C122.176 29.811 122.357 29.811 122.538 29.8214H122.607C122.753 29.8289 122.896 29.7795 123.006 29.6835C123.065 29.6174 123.109 29.5396 123.135 29.4552C123.161 29.3708 123.169 29.2817 123.158 29.1941C123.158 28.1807 123.158 27.126 123.158 26.154C123.247 24.4996 123.268 22.7486 123.11 20.977Z" fill="#FF8C00"/>
<path d="M108.363 19.5707V18.7779C108.363 18.1437 108.363 17.5095 108.363 16.8684C108.371 16.791 108.362 16.7128 108.337 16.639C108.313 16.5653 108.272 16.4978 108.219 16.441C108.162 16.3908 108.095 16.3531 108.023 16.3305C107.951 16.3079 107.874 16.301 107.799 16.3101H106.829C106.32 16.3101 106.21 16.4272 106.203 16.9236C106.203 17.7853 106.203 18.6539 106.203 19.5018C106.203 21.1907 106.203 22.9485 106.086 24.6581C106.071 25.1479 105.942 25.6274 105.709 26.0583C105.476 26.4892 105.145 26.8595 104.744 27.1398C104.252 27.4743 103.69 27.6932 103.102 27.7804C102.513 27.8675 101.913 27.8205 101.345 27.643C100.85 27.5401 100.388 27.3146 100.002 26.9871C99.6163 26.6596 99.3185 26.2404 99.1359 25.768C98.9373 25.2774 98.8345 24.7532 98.8332 24.2238C98.8332 23.3759 98.8332 22.5142 98.8332 21.6801V19.612C98.8332 18.709 98.8332 17.8059 98.8332 16.9029C98.841 16.8159 98.831 16.7282 98.8038 16.6453C98.7765 16.5623 98.7327 16.4857 98.6749 16.4203C98.612 16.3663 98.5384 16.3261 98.459 16.3024C98.3796 16.2786 98.2961 16.2718 98.2139 16.2825H97.5877C97.4707 16.2825 97.3606 16.2825 97.2436 16.2825C96.7344 16.2825 96.6243 16.3928 96.6243 16.896C96.6243 17.3992 96.6243 18.0817 96.6243 18.6745C96.6243 20.3014 96.6243 21.9834 96.6243 23.6448C96.6211 24.5334 96.7557 25.4171 97.0234 26.2643C97.2316 26.9907 97.6072 27.658 98.1199 28.2124C98.6327 28.7668 99.2682 29.1927 99.9754 29.456C100.749 29.7586 101.574 29.9107 102.404 29.9041C103.028 29.9036 103.649 29.8296 104.255 29.6835C105.089 29.5115 105.863 29.1238 106.5 28.559C107.138 27.9942 107.616 27.272 107.889 26.4642C108.212 25.4724 108.366 24.4329 108.343 23.3897C108.343 22.4935 108.343 21.5905 108.343 20.7081L108.363 19.5707Z" fill="#FF8C00"/>
<path d="M45.718 25.7335C45.6794 25.6804 45.6586 25.6165 45.6586 25.5508C45.6586 25.4852 45.6794 25.4212 45.718 25.3681C46.0857 24.8148 46.2819 24.1648 46.2819 23.5C46.2819 22.8352 46.0857 22.1852 45.718 21.6319C45.6794 21.5788 45.6586 21.5148 45.6586 21.4492C45.6586 21.3835 45.6794 21.3196 45.718 21.2665C45.9914 20.6743 46.0766 20.0122 45.9622 19.3698C45.8477 18.7275 45.5391 18.1359 45.078 17.675C45.0335 17.6339 45.0019 17.5807 44.9873 17.5219C44.9726 17.4631 44.9754 17.4013 44.9954 17.3441C45.1358 16.8383 45.1464 16.3051 45.0261 15.7941C44.9058 15.2832 44.6585 14.8109 44.3073 14.4212C44.1327 14.2115 43.9287 14.0281 43.7018 13.8766C43.6606 13.853 43.6278 13.817 43.608 13.7738C43.5883 13.7305 43.5826 13.6821 43.5917 13.6354C43.6623 12.995 43.5352 12.3484 43.2277 11.7826C42.9201 11.2169 42.4467 10.7592 41.8714 10.4713C41.7931 10.4406 41.7254 10.3878 41.6765 10.3192C41.6277 10.2507 41.5998 10.1694 41.5962 10.0852C41.5456 9.57102 41.3699 9.0771 41.0843 8.64682C40.7988 8.21654 40.4122 7.86304 39.9585 7.61734C39.7337 7.48611 39.49 7.39076 39.236 7.3347C39.1885 7.32409 39.1453 7.29931 39.1121 7.26362C39.0789 7.22793 39.0574 7.18302 39.0502 7.13479C38.9335 6.6441 38.7006 6.18876 38.3712 5.80722C38.0419 5.42567 37.6257 5.12914 37.1579 4.94265C36.8761 4.83157 36.5791 4.76416 36.2771 4.74274C36.228 4.74107 36.1805 4.72521 36.1402 4.69708C36.0999 4.66895 36.0686 4.62974 36.05 4.58419C35.8458 4.11683 35.5311 3.70629 35.1331 3.38802C34.735 3.06975 34.2657 2.85332 33.7655 2.75741C33.4672 2.70595 33.1623 2.70595 32.8641 2.75741C32.8155 2.76657 32.7653 2.76096 32.7199 2.74131C32.6745 2.72165 32.6361 2.68885 32.6095 2.64711C32.309 2.19837 31.8974 1.83543 31.4149 1.59377C30.9325 1.35211 30.3957 1.24 29.857 1.26841C29.6232 1.27408 29.3915 1.31355 29.1689 1.3856C29.1233 1.40799 29.0712 1.41335 29.022 1.40071C28.9729 1.38808 28.9298 1.35827 28.9006 1.31666C28.4484 0.824958 27.8502 0.492349 27.1944 0.368173C26.5387 0.243998 25.8605 0.33487 25.2605 0.62731C25.2285 0.650827 25.19 0.663511 25.1504 0.663511C25.1107 0.663511 25.0722 0.650827 25.0403 0.62731C24.6751 0.352227 24.255 0.159407 23.8085 0.0620417C23.7609 0.0455773 23.7148 0.0248114 23.6709 0L22.6594 0C22.6177 0.0333564 22.5678 0.0547937 22.5149 0.0620417C22.0859 0.15624 21.6822 0.341989 21.3314 0.60663C21.2939 0.635697 21.2479 0.651473 21.2006 0.651473C21.1533 0.651473 21.1073 0.635697 21.0699 0.60663C20.5129 0.332073 19.8859 0.23319 19.2716 0.323034C18.6573 0.412878 18.0847 0.687224 17.6293 1.10986C17.5537 1.19333 17.4562 1.25378 17.3479 1.28426C17.2395 1.31474 17.1248 1.31402 17.0169 1.28219C16.4079 1.13512 15.7685 1.18001 15.1859 1.41074C14.6033 1.64147 14.1061 2.04678 13.7621 2.57128C13.7253 2.62731 13.6736 2.67187 13.6128 2.69989C13.552 2.72792 13.4845 2.7383 13.4181 2.72983C12.9218 2.68271 12.4216 2.75796 11.961 2.94901C11.5004 3.14006 11.0935 3.44111 10.7758 3.8259C10.587 4.05673 10.4339 4.31467 10.3216 4.59108C10.3077 4.63368 10.2811 4.67101 10.2454 4.6981C10.2098 4.7252 10.1668 4.74077 10.122 4.74274C9.49947 4.77863 8.90258 5.00368 8.41086 5.38791C7.91915 5.77214 7.55594 6.29732 7.36961 6.89352C7.32926 7.02283 7.25705 7.13987 7.15963 7.23384C7.06222 7.32782 6.94275 7.3957 6.81224 7.43121C6.26344 7.6208 5.7789 7.96111 5.41389 8.41332C5.04888 8.86553 4.81811 9.41142 4.74791 9.98871C4.74456 10.0392 4.74456 10.0899 4.74791 10.1404C4.74764 10.2067 4.72704 10.2714 4.68889 10.3256C4.65074 10.3799 4.59688 10.4211 4.5346 10.4437C4.12856 10.6319 3.76707 10.9044 3.47406 11.2431C3.18105 11.5817 2.96321 11.9789 2.83497 12.4083C2.71626 12.7987 2.67191 13.2079 2.70423 13.6147C2.71503 13.6849 2.70438 13.7567 2.67368 13.8206C2.64297 13.8846 2.59365 13.9378 2.5322 13.9732C2.02313 14.3449 1.63608 14.8602 1.42039 15.4531C1.20471 16.0461 1.17015 16.69 1.32113 17.3027C1.34705 17.3758 1.35042 17.455 1.33078 17.53C1.31114 17.605 1.26941 17.6723 1.21103 17.7232C0.847068 18.0924 0.580909 18.5469 0.43671 19.0452C0.292512 19.5436 0.274839 20.0702 0.385296 20.5772C0.441038 20.8344 0.52648 21.0842 0.639897 21.3216C0.661499 21.3544 0.673017 21.3927 0.673017 21.4319C0.673017 21.4712 0.661499 21.5095 0.639897 21.5422C0.334496 21.973 0.132023 22.4683 0.0481225 22.9899C0.0384958 23.0347 0.0246726 23.0786 0.00683594 23.1209V23.8791C0.0246726 23.9214 0.0384958 23.9653 0.0481225 24.0101C0.132023 24.5317 0.334496 25.027 0.639897 25.4578C0.661499 25.4905 0.673017 25.5288 0.673017 25.5681C0.673017 25.6073 0.661499 25.6456 0.639897 25.6784C0.527484 25.9162 0.442083 26.1659 0.385296 26.4229C0.274839 26.9298 0.292512 27.4564 0.43671 27.9548C0.580909 28.4531 0.847068 28.9076 1.21103 29.2768C1.26923 29.3293 1.31071 29.3979 1.33028 29.4739C1.34986 29.5499 1.34668 29.63 1.32113 29.7042C1.15723 30.3248 1.18526 30.9807 1.40151 31.5851C1.61776 32.1895 2.01203 32.7139 2.5322 33.0889C2.59237 33.1256 2.64064 33.179 2.67117 33.2426C2.7017 33.3062 2.71318 33.3773 2.70423 33.4473C2.67158 33.8541 2.71594 34.2634 2.83497 34.6537C2.96861 35.0641 3.18468 35.4428 3.46987 35.7665C3.75507 36.0901 4.10336 36.3519 4.49331 36.5356C4.55559 36.5582 4.60945 36.5994 4.6476 36.6537C4.68575 36.7079 4.70635 36.7726 4.70662 36.839C4.70282 36.8894 4.70282 36.9401 4.70662 36.9906C4.77639 37.5689 5.00689 38.1159 5.37187 38.5692C5.73685 39.0226 6.22163 39.3642 6.77095 39.555C6.90233 39.5887 7.02273 39.656 7.12042 39.7502C7.21811 39.8445 7.28974 39.9625 7.32832 40.0927C7.51719 40.6874 7.8811 41.211 8.37229 41.5948C8.86348 41.9786 9.45902 42.2047 10.0808 42.2435C10.1251 42.2429 10.1685 42.2567 10.2045 42.2828C10.2404 42.3088 10.267 42.3458 10.2803 42.3882C10.3977 42.6681 10.5605 42.9267 10.762 43.1534C11.0806 43.5376 11.4874 43.8387 11.9476 44.0308C12.4078 44.2229 12.9077 44.3003 13.4043 44.2564C13.471 44.2443 13.5397 44.253 13.6013 44.2813C13.6628 44.3097 13.7142 44.3563 13.7484 44.4149C14.0933 44.9305 14.5872 45.3282 15.164 45.5549C15.7407 45.7815 16.3728 45.8264 16.9756 45.6833C17.0841 45.6515 17.1995 45.6514 17.308 45.6832C17.4165 45.715 17.5137 45.7772 17.588 45.8626C18.0447 46.2832 18.6176 46.5557 19.2316 46.6443C19.8456 46.7329 20.472 46.6334 21.0286 46.3589C21.0669 46.3319 21.1125 46.3174 21.1593 46.3174C21.2061 46.3174 21.2518 46.3319 21.2901 46.3589C21.645 46.6253 22.0535 46.8112 22.4874 46.9035C22.5402 46.9107 22.5902 46.9322 22.6319 46.9655H23.6709C23.7148 46.9407 23.7609 46.92 23.8085 46.9035C24.2544 46.8082 24.6745 46.6177 25.0403 46.3451C25.0722 46.3216 25.1107 46.3089 25.1504 46.3089C25.19 46.3089 25.2285 46.3216 25.2605 46.3451C25.8528 46.6467 26.5262 46.7499 27.1815 46.6395C27.8367 46.529 28.4393 46.2108 28.9006 45.7316C28.9321 45.693 28.9752 45.6655 29.0235 45.6531C29.0717 45.6407 29.1227 45.644 29.1689 45.6627C29.3915 45.7347 29.6232 45.7742 29.857 45.7799C30.3957 45.8083 30.9325 45.6961 31.4149 45.4545C31.8974 45.2128 32.309 44.8499 32.6095 44.4011C32.6338 44.3572 32.6719 44.3225 32.718 44.3025C32.7641 44.2826 32.8154 44.2785 32.8641 44.2908C33.1648 44.3251 33.4691 44.3112 33.7655 44.2495C34.2623 44.154 34.7283 43.9382 35.1229 43.621C35.5175 43.3038 35.8287 42.8948 36.0294 42.4296C36.0479 42.384 36.0792 42.3448 36.1195 42.3167C36.1598 42.2886 36.2074 42.2727 36.2564 42.271C36.5672 42.2492 36.872 42.1746 37.1579 42.0505C37.6334 41.8695 38.0579 41.5753 38.3947 41.1935C38.7316 40.8116 38.9707 40.3534 39.0915 39.8583C39.098 39.8106 39.1196 39.7662 39.153 39.7315C39.1863 39.6968 39.2299 39.6736 39.2773 39.6653C39.5294 39.6031 39.7723 39.5081 39.9998 39.3827C40.4527 39.136 40.8387 38.7823 41.1241 38.3522C41.4095 37.9221 41.5857 37.4286 41.6375 36.9148C41.6392 36.8302 41.6665 36.748 41.7156 36.6792C41.7647 36.6103 41.8334 36.5579 41.9127 36.5288C42.4879 36.2389 42.9609 35.7798 43.2684 35.213C43.5759 34.6463 43.7031 33.9989 43.633 33.3577C43.6238 33.311 43.6295 33.2626 43.6493 33.2194C43.669 33.1761 43.7018 33.1401 43.7431 33.1165C43.97 32.965 44.174 32.7816 44.3486 32.5719C44.6998 32.1822 44.9471 31.71 45.0674 31.199C45.1876 30.688 45.1771 30.1548 45.0367 29.649C45.0167 29.5918 45.0139 29.53 45.0285 29.4712C45.0432 29.4124 45.0748 29.3592 45.1193 29.3181C45.5721 28.8531 45.8721 28.2605 45.9791 27.6198C46.0862 26.979 45.995 26.3209 45.718 25.7335ZM9.37201 29.8696V35.2259C9.37201 35.5499 9.37201 35.5637 9.02107 35.5499C8.51972 35.5334 8.02646 35.4186 7.56916 35.2121C7.2457 35.0689 6.94259 34.8835 6.66774 34.6606C6.13698 34.2107 5.70974 33.651 5.41538 33.02C5.19488 32.526 5.03321 32.0077 4.9337 31.4758C4.9063 31.2791 4.9063 31.0796 4.9337 30.883C4.9337 30.0833 4.9337 29.2906 4.9337 28.4978C4.98482 27.9838 5.10998 27.4799 5.30528 27.0019C5.43636 26.676 5.60004 26.3642 5.79384 26.0713C6.0146 25.7411 6.28103 25.444 6.58516 25.1889C7.0911 24.738 7.70127 24.4205 8.36049 24.2652C8.49115 24.234 8.62532 24.2201 8.75959 24.2238C8.90409 24.2238 9.0486 24.2238 9.18622 24.2238C9.32384 24.2238 9.38577 24.2238 9.39265 24.4031V29.8696H9.37201ZM31.3296 33.8334C30.5896 35.0116 29.5648 35.9838 28.3501 36.6597C27.4487 37.1673 26.4735 37.5301 25.46 37.7351C24.7805 37.8703 24.0883 37.9304 23.3957 37.9143C21.8098 37.9489 20.2393 37.5964 18.8198 36.8872C17.4011 36.2029 16.2074 35.1266 15.3792 33.7851C14.9441 33.1019 14.6299 32.3487 14.4503 31.5585C14.3351 30.8755 14.3051 30.1809 14.3608 29.4905C14.3787 29.1926 14.4247 28.8972 14.4984 28.6081C14.4984 28.5598 14.4984 28.4771 14.5741 28.484C14.6498 28.4909 14.636 28.5667 14.6429 28.6219C14.7735 29.2691 14.9389 29.9089 15.1384 30.5383C15.2352 30.8784 15.3838 31.2016 15.5788 31.4965C15.9491 31.9809 16.491 32.3042 17.0926 32.3995C17.4823 32.4967 17.8816 32.5499 18.283 32.5581C18.7779 32.5731 19.273 32.5431 19.7625 32.4685C20.276 32.4013 20.7602 32.1904 21.1595 31.86C21.5587 31.5295 21.8568 31.0929 22.0195 30.6003C22.2052 30.0626 22.3773 29.518 22.5631 28.9735C22.6282 28.7569 22.7183 28.5487 22.8314 28.353C22.8802 28.2743 22.9475 28.2087 23.0275 28.1622C23.1075 28.1157 23.1977 28.0895 23.2902 28.0861C23.3826 28.0827 23.4745 28.1021 23.5577 28.1427C23.6409 28.1832 23.7129 28.2436 23.7673 28.3186C23.9021 28.5327 24.0064 28.7648 24.0769 29.0079C24.2489 29.518 24.4141 30.0282 24.5861 30.5314C24.7362 31.0371 25.028 31.4891 25.4268 31.8337C25.8257 32.1782 26.3148 32.401 26.8362 32.4754C27.388 32.5728 27.95 32.5983 28.5083 32.5512C29.1694 32.5411 29.8175 32.3657 30.3938 32.0411C30.8175 31.7665 31.1354 31.3557 31.2952 30.8761C31.537 30.2343 31.7213 29.5722 31.8457 28.8976C31.8457 28.7253 31.9282 28.5598 31.9764 28.3944C31.9764 28.353 31.9764 28.291 32.0452 28.291C32.114 28.291 32.1071 28.353 32.1209 28.4013C32.245 28.8513 32.3188 29.3137 32.3411 29.78C32.4403 31.1999 32.0861 32.6147 31.3296 33.8196V33.8334ZM31.0131 26.1678C31.0131 26.2229 30.9098 26.2092 30.8617 26.2023C30.2607 26.1368 29.6563 26.1092 29.0519 26.1195C28.1001 26.1047 27.149 26.1762 26.2101 26.3332C25.5966 26.4427 24.9952 26.6112 24.4141 26.8365C24.1716 26.9273 23.9202 26.992 23.664 27.0295C23.1699 27.0888 22.6688 27.0248 22.2053 26.8434C21.6492 26.6313 21.0759 26.4676 20.4919 26.3539C19.9827 26.2643 19.4735 26.216 18.9574 26.1678C18.2705 26.1161 17.5814 26.1023 16.893 26.1264C16.5184 26.1242 16.144 26.1426 15.7714 26.1816C15.6751 26.1816 15.6613 26.1816 15.7095 26.0782C15.7813 25.9658 15.8594 25.8576 15.9435 25.7542C16.5439 25.0189 17.2653 24.3917 18.0766 23.8998C18.9786 23.3473 19.9638 22.9446 20.9942 22.7072C21.9539 22.4965 22.9374 22.4153 23.9186 22.466C25.1627 22.5162 26.3861 22.8016 27.5243 23.307C28.8842 23.8994 30.069 24.8323 30.9649 26.0161C30.9649 26.0575 31.0475 26.0989 31.0131 26.154V26.1678ZM31.1713 28.0773C31.1713 28.1876 31.1713 28.2979 31.1713 28.4082C31.1495 29.2426 30.9722 30.0656 30.6484 30.8347C30.5628 31.0432 30.432 31.2299 30.2653 31.3814C30.0987 31.5328 29.9004 31.6451 29.685 31.7102C29.0036 31.9297 28.2861 32.014 27.5725 31.9583C27.1173 31.9386 26.6706 31.8285 26.2582 31.6344C25.8041 31.418 25.4444 31.0429 25.2467 30.5796C24.9048 29.8286 24.7265 29.0131 24.7237 28.1876C24.6944 27.9668 24.7488 27.743 24.8762 27.5605C25.0036 27.3779 25.1948 27.2499 25.4118 27.2018C25.962 27.0009 26.5354 26.8712 27.1184 26.8158C27.6139 26.7571 28.1126 26.7295 28.6116 26.7331C29.1706 26.7417 29.7269 26.8134 30.2699 26.9468C30.5285 26.9944 30.7616 27.1332 30.9269 27.338C31.0922 27.5428 31.1789 27.8002 31.1713 28.0635V28.0773ZM16.0329 27.0639C16.3577 26.9384 16.698 26.8572 17.0444 26.8227C17.4208 26.7711 17.8 26.7435 18.1798 26.74C19.0718 26.7461 19.9595 26.8642 20.8222 27.0915C21.048 27.1541 21.2636 27.2493 21.4621 27.3742C21.58 27.4463 21.6773 27.5476 21.7448 27.6683C21.8123 27.7891 21.8476 27.9251 21.8474 28.0635C21.8441 28.7686 21.7207 29.468 21.4827 30.1316C21.4197 30.3313 21.3391 30.5251 21.2419 30.7106C21.0917 30.9897 20.8829 31.2329 20.6299 31.4233C20.3769 31.6137 20.0856 31.7469 19.7762 31.8136C18.7989 32.0475 17.7755 31.9997 16.8242 31.6757C16.6033 31.5994 16.4029 31.4733 16.2382 31.3072C16.0736 31.1411 15.9492 30.9393 15.8746 30.7175C15.7425 30.3686 15.6412 30.0088 15.5719 29.6421C15.4345 29.067 15.3926 28.4731 15.448 27.8843C15.459 27.7019 15.5219 27.5264 15.6292 27.3786C15.7365 27.2308 15.8837 27.1169 16.0536 27.0502L16.0329 27.0639ZM37.0684 22.9554C36.9547 23.0419 36.8639 23.155 36.804 23.2848C36.744 23.4146 36.7166 23.5571 36.7244 23.6999C36.7244 27.5258 36.7244 31.3517 36.7244 35.1845C36.7244 35.543 36.7244 35.543 36.3734 35.543H35.0935C35.0221 35.538 34.9504 35.549 34.8838 35.5752C34.8171 35.6014 34.7571 35.6422 34.7082 35.6946C34.6286 35.7774 34.532 35.8419 34.4251 35.8835C34.3181 35.9252 34.2034 35.9431 34.0889 35.9359C33.892 35.9327 33.7037 35.8548 33.5619 35.7179C33.4202 35.581 33.3355 35.3953 33.3251 35.1983C33.3241 35.0734 33.2935 34.9505 33.2356 34.8398C33.1536 34.6877 33.1132 34.5164 33.1187 34.3435V25.4233C33.1178 25.2661 33.1479 25.1103 33.2073 24.9648C33.2667 24.8193 33.3543 24.687 33.4649 24.5756C33.5755 24.4641 33.7071 24.3756 33.8519 24.3153C33.9968 24.2549 34.1522 24.2238 34.3091 24.2238C34.6807 24.2238 34.7013 24.2721 34.6944 23.8378C34.7201 23.6747 34.701 23.5078 34.6392 23.3548C34.5773 23.2018 34.4751 23.0685 34.3435 22.9692C34.1367 22.7925 33.9729 22.5709 33.8644 22.3212C33.7559 22.0716 33.7056 21.8005 33.7173 21.5285C33.7173 21.1907 33.7173 20.8391 33.7173 20.5289C33.6918 20.2765 33.6528 20.0257 33.6003 19.7775C33.4979 19.1612 33.3437 18.5548 33.1393 17.9645C32.9148 17.3193 32.6266 16.6981 32.2792 16.1102C32.013 15.6492 31.7092 15.2111 31.3709 14.8004C30.793 14.0939 30.1322 13.4597 29.4029 12.9116C28.5112 12.265 27.5277 11.7562 26.4853 11.4019C25.9449 11.2279 25.3898 11.1033 24.827 11.0296C24.1788 10.9492 23.5256 10.9169 22.8727 10.9331C22.1066 10.9387 21.344 11.0383 20.602 11.2295C19.7622 11.4495 18.9531 11.7737 18.1936 12.1946C17.4494 12.6079 16.7565 13.1077 16.1292 13.6836C15.5314 14.236 15.0024 14.8586 14.5535 15.538C14.0925 16.2216 13.7137 16.9575 13.425 17.7301C13.2261 18.2597 13.0674 18.8035 12.9502 19.357C12.8477 19.7864 12.79 20.2254 12.7781 20.6668C12.7942 21.0193 12.7757 21.3725 12.7231 21.7215C12.6392 22.2701 12.3456 22.7646 11.9043 23.1002C11.8408 23.1432 11.7896 23.2021 11.7558 23.271C11.722 23.3399 11.7068 23.4165 11.7116 23.4931C11.7116 23.6654 11.7116 23.8447 11.7116 24.017C11.7116 24.1894 11.7597 24.2169 11.8905 24.21C12.1912 24.2047 12.4836 24.3086 12.7138 24.5025C12.944 24.6963 13.0964 24.9671 13.1428 25.2647C13.1532 25.3333 13.1532 25.403 13.1428 25.4715C13.1428 28.3944 13.1428 31.3104 13.1428 34.2332C13.1405 34.4217 13.0908 34.6067 12.9983 34.7709C12.9238 34.9168 12.8793 35.0762 12.8676 35.2397C12.8612 35.3746 12.8155 35.5046 12.7359 35.6137C12.6564 35.7228 12.5467 35.8061 12.4203 35.8532C12.2868 35.9186 12.1367 35.9425 11.9895 35.9216C11.8423 35.9007 11.7047 35.836 11.5946 35.736C11.5183 35.6601 11.4265 35.6017 11.3256 35.5648C11.2246 35.5279 11.1168 35.5134 11.0097 35.5223C10.6725 35.5223 10.3216 35.5223 9.98442 35.5223C9.76423 35.5223 9.75047 35.5223 9.75047 35.281V24.9407C9.75047 24.4237 9.70918 23.9067 9.75047 23.3897C9.75 23.3181 9.73067 23.2479 9.69442 23.1861C9.65817 23.1244 9.6063 23.0733 9.54403 23.0381C9.23399 22.8055 8.99553 22.4902 8.85592 22.1282C8.79448 21.9529 8.75968 21.7693 8.75271 21.5836C8.73552 21.0984 8.74931 20.6125 8.79399 20.1291C8.79399 19.7913 8.88345 19.4397 8.92474 19.1157C9.07768 18.2377 9.31504 17.3766 9.63349 16.5444C9.90591 15.7655 10.2491 15.0133 10.6588 14.2972C11.0753 13.5378 11.5663 12.822 12.1244 12.1602C12.7526 11.4259 13.4433 10.7478 14.1888 10.1335C14.8934 9.53961 15.662 9.02631 16.4802 8.60311C17.0566 8.28045 17.6598 8.0083 18.283 7.78967C18.7922 7.61734 19.3083 7.445 19.8244 7.30023C20.0866 7.22793 20.3533 7.17267 20.6226 7.13479C20.9322 7.08654 21.2419 7.05896 21.5515 7.00381C21.8128 6.95047 22.0771 6.91363 22.3429 6.89352C23.031 6.89352 23.7191 6.89352 24.4072 6.89352C24.6756 6.89352 24.9302 6.97624 25.1916 6.99692C26.2096 7.12117 27.2095 7.36409 28.1712 7.72074C28.867 7.96551 29.5394 8.27236 30.1804 8.63758C30.8187 8.99763 31.4304 9.40309 32.0108 9.85084C32.614 10.3336 33.1841 10.8564 33.7173 11.4157C34.2211 11.9304 34.6814 12.4861 35.0935 13.077C35.6695 13.9006 36.1606 14.7806 36.5592 15.7034C36.7792 16.1954 36.9498 16.708 37.0684 17.2338C37.2238 17.7451 37.3479 18.2653 37.44 18.7917C37.48 19.2411 37.5582 19.6862 37.674 20.1222C37.6772 20.1474 37.6772 20.1728 37.674 20.198C37.674 20.7219 37.7359 21.2527 37.674 21.7766C37.6286 22.2322 37.4121 22.6536 37.0684 22.9554ZM41.4173 31.0622C41.4114 31.2216 41.3954 31.3805 41.3691 31.5378C41.2931 31.9868 41.1613 32.4245 40.9769 32.8407C40.6891 33.5733 40.2146 34.2174 39.6007 34.7089C39.1374 35.0731 38.5992 35.3297 38.0249 35.4603C37.7976 35.5006 37.5676 35.5237 37.3368 35.5292C37.3194 35.5321 37.3017 35.5314 37.2847 35.5269C37.2676 35.5224 37.2518 35.5144 37.2381 35.5033C37.2244 35.4922 37.2133 35.4783 37.2054 35.4626C37.1975 35.4469 37.193 35.4296 37.1923 35.412C37.1923 35.3362 37.1923 35.2603 37.1923 35.1845V24.5065C37.1923 24.2238 37.1923 24.2238 37.4675 24.2238C38.1258 24.2299 38.7667 24.4367 39.3048 24.8167C39.8653 25.1615 40.3368 25.6338 40.681 26.1954C40.9509 26.6417 41.1614 27.1214 41.3072 27.6223C41.3671 27.8206 41.4108 28.0235 41.4379 28.229C41.4827 28.5694 41.5034 28.9127 41.4998 29.2561C41.4242 29.8489 41.4379 30.4556 41.4173 31.0622Z" fill="#FF8C00"/>
<path d="M167.754 17.8266C167.628 17.8198 167.502 17.8198 167.376 17.8266C166.015 17.8303 164.712 18.3732 163.75 19.3369C162.788 20.3005 162.246 21.6064 162.242 22.9692V24.2031H167.747V25.0579H162.242V32.6408H161.389V22.9899C161.393 21.401 162.025 19.8784 163.147 18.7556C164.269 17.6327 165.79 17.0012 167.376 16.9994H167.754V17.8266ZM171.098 27.1674C169.979 26.0442 169.35 24.5219 169.35 22.9347C169.35 21.3476 169.979 19.8253 171.098 18.7021C171.936 17.8676 173.002 17.2999 174.161 17.0704C175.32 16.8409 176.522 16.9597 177.614 17.412C178.705 17.8643 179.64 18.6299 180.299 19.6125C180.957 20.5952 181.312 21.751 181.317 22.9347C181.315 24.1199 180.963 25.278 180.304 26.2628C179.646 27.2475 178.711 28.0148 177.618 28.4676C176.524 28.9205 175.322 29.0387 174.161 28.8072C173.001 28.5758 171.935 28.0052 171.098 27.1674ZM171.704 19.3018C170.744 20.2648 170.204 21.5702 170.204 22.9313C170.204 24.2924 170.744 25.5978 171.704 26.5607C172.42 27.2791 173.334 27.7686 174.328 27.9672C175.322 28.1658 176.352 28.0647 177.289 27.6766C178.226 27.2885 179.027 26.6309 179.591 25.7868C180.155 24.9428 180.456 23.9503 180.457 22.9347C180.457 21.9186 180.157 20.9251 179.594 20.08C179.03 19.2349 178.23 18.5763 177.292 18.1873C176.355 17.7984 175.324 17.6967 174.329 17.8951C173.335 18.0935 172.421 18.583 171.704 19.3018ZM188.033 16.9305C188.477 16.9296 188.918 16.9875 189.347 17.1028V17.9921C188.707 17.7844 188.027 17.7314 187.362 17.8374C186.697 17.9434 186.067 18.2054 185.523 18.602C184.979 18.9987 184.536 19.5187 184.231 20.1195C183.925 20.7204 183.766 21.3851 183.766 22.0593V28.4909H182.913V22.0593C182.913 20.699 183.453 19.3945 184.413 18.4327C185.373 17.4708 186.675 16.9305 188.033 16.9305ZM194.363 19.8602C194.882 18.9831 195.62 18.2562 196.503 17.7508C197.412 17.2334 198.44 16.9632 199.485 16.9671C200.53 16.971 201.555 17.2488 202.46 17.773C203.365 18.2972 204.116 19.0495 204.641 19.955C205.165 20.8606 205.444 21.8879 205.449 22.9347C205.476 23.739 205.341 24.5405 205.053 25.2915C204.765 26.0425 204.328 26.7277 203.77 27.3063C203.212 27.8849 202.543 28.345 201.803 28.6592C201.064 28.9735 200.269 29.1354 199.466 29.1354C198.662 29.1354 197.867 28.9735 197.128 28.6592C196.388 28.345 195.72 27.8849 195.161 27.3063C194.603 26.7277 194.167 26.0425 193.878 25.2915C193.59 24.5405 193.455 23.739 193.483 22.9347V14.2489H194.336L194.363 19.8602ZM194.363 22.9347C194.364 23.7791 194.572 24.6103 194.97 25.3548C195.367 26.0993 195.942 26.7341 196.643 27.203C197.344 27.6718 198.15 27.9603 198.988 28.0429C199.827 28.1255 200.673 27.9997 201.452 27.6765C202.231 27.3533 202.918 26.8428 203.452 26.1901C203.987 25.5374 204.353 24.7627 204.518 23.9346C204.682 23.1065 204.64 22.2505 204.396 21.4424C204.151 20.6344 203.712 19.8991 203.116 19.3018C202.399 18.583 201.486 18.0935 200.491 17.8951C199.496 17.6967 198.465 17.7984 197.528 18.1873C196.591 18.5763 195.79 19.2349 195.226 20.08C194.663 20.9251 194.363 21.9186 194.363 22.9347ZM212.185 16.9305C212.631 16.9291 213.076 16.9871 213.507 17.1028V17.9921C213.081 17.8493 212.634 17.7772 212.185 17.7784C211.054 17.782 209.971 18.2347 209.173 19.0371C208.374 19.8395 207.926 20.9263 207.926 22.0593V28.4909H207.066V22.0593C207.07 20.7001 207.61 19.3977 208.569 18.4367C209.529 17.4756 210.829 16.9341 212.185 16.9305ZM225.26 26.0023C224.737 26.8974 223.991 27.6403 223.094 28.1578C222.198 28.6752 221.182 28.9493 220.147 28.9528C219.361 28.9546 218.583 28.8009 217.856 28.5005C217.13 28.2001 216.47 27.7589 215.915 27.2023C215.359 26.6456 214.919 25.9845 214.619 25.2569C214.319 24.5293 214.165 23.7495 214.167 22.9623C214.167 21.3735 214.797 19.8498 215.919 18.7264C217.04 17.603 218.561 16.9718 220.147 16.9718C221.733 16.9718 223.254 17.603 224.375 18.7264C225.497 19.8498 226.127 21.3735 226.127 22.9623V28.5254H225.273L225.26 26.0023ZM225.26 22.9347C225.26 22.0901 225.053 21.2583 224.656 20.5131C224.259 19.7679 223.685 19.1322 222.984 18.6625C222.283 18.1927 221.478 17.9034 220.639 17.8201C219.8 17.7367 218.953 17.862 218.174 18.1848C217.395 18.5075 216.707 19.0179 216.172 19.6705C215.637 20.3231 215.271 21.0979 215.106 21.9263C214.941 22.7546 214.982 23.6109 215.227 24.4193C215.471 25.2277 215.911 25.9632 216.507 26.5607C217.223 27.2791 218.136 27.7686 219.131 27.9672C220.125 28.1658 221.155 28.0647 222.092 27.6766C223.029 27.2885 223.83 26.6309 224.394 25.7868C224.957 24.9428 225.259 23.9503 225.26 22.9347ZM228.06 28.5047V22.0593C228.06 20.6954 228.601 19.3873 229.564 18.4229C230.526 17.4585 231.832 16.9167 233.193 16.9167C234.555 16.9167 235.861 17.4585 236.823 18.4229C237.786 19.3873 238.327 20.6954 238.327 22.0593V28.5254H237.473V22.0593C237.497 21.4822 237.403 20.9064 237.199 20.3664C236.994 19.8264 236.683 19.3333 236.283 18.9169C235.884 18.5004 235.405 18.169 234.874 17.9426C234.344 17.7163 233.773 17.5996 233.197 17.5996C232.62 17.5996 232.05 17.7163 231.519 17.9426C230.989 18.169 230.51 18.5004 230.11 18.9169C229.711 19.3333 229.4 19.8264 229.195 20.3664C228.991 20.9064 228.897 21.4822 228.92 22.0593V28.5254L228.06 28.5047ZM251.029 14.2489H251.882V22.9347C251.885 23.9222 251.644 24.895 251.182 25.7668C250.719 26.6387 250.048 27.3826 249.23 27.9324C248.411 28.4823 247.469 28.8212 246.489 28.9189C245.508 29.0167 244.518 28.8703 243.607 28.4928C242.696 28.1152 241.893 27.5183 241.268 26.7549C240.642 25.9914 240.215 25.0852 240.024 24.1166C239.832 23.148 239.882 22.1469 240.17 21.2024C240.457 20.2578 240.973 19.399 241.671 18.7021C242.598 17.7635 243.811 17.1605 245.117 16.9883C246.424 16.8161 247.751 17.0843 248.889 17.7508C249.771 18.2582 250.508 18.9847 251.029 19.8602V14.2489ZM249.543 19.3018C248.826 18.583 247.912 18.0935 246.917 17.8951C245.923 17.6967 244.891 17.7984 243.954 18.1873C243.017 18.5763 242.216 19.2349 241.653 20.08C241.09 20.9251 240.79 21.9186 240.79 22.9347C240.791 23.7791 240.999 24.6103 241.397 25.3548C241.794 26.0993 242.369 26.7341 243.07 27.203C243.771 27.6718 244.576 27.9603 245.415 28.0429C246.254 28.1255 247.1 27.9997 247.879 27.6765C248.657 27.3533 249.345 26.8428 249.879 26.1901C250.414 25.5374 250.78 24.7627 250.944 23.9346C251.109 23.1065 251.067 22.2505 250.823 21.4424C250.578 20.6344 250.139 19.8991 249.543 19.3018ZM253.561 27.6775L254.029 26.9881C254.976 27.6621 256.097 28.0475 257.257 28.098C258.056 28.1443 258.842 27.8801 259.452 27.3604C259.675 27.1567 259.852 26.9072 259.971 26.6289C260.09 26.3506 260.147 26.0499 260.14 25.7473C260.14 25.3634 260.046 24.9855 259.864 24.6473C259.683 24.3092 259.421 24.0216 259.101 23.8102C258.368 23.3454 257.583 22.9705 256.761 22.6935L256.163 22.4591L255.571 22.2178C255.2 22.0586 254.847 21.8599 254.518 21.625C254.204 21.4247 253.945 21.1488 253.765 20.8225C253.584 20.4961 253.488 20.1298 253.486 19.7568C253.466 19.3115 253.57 18.8694 253.785 18.4791C253.999 18.0887 254.317 17.7652 254.704 17.544C255.346 17.1543 256.086 16.9559 256.837 16.9718C257.684 16.9586 258.527 17.0819 259.335 17.3372C259.552 17.4048 259.764 17.4901 259.968 17.5923L260.126 17.6819H260.167L259.679 18.3712H259.644L259.52 18.3023C259.348 18.224 259.171 18.1572 258.991 18.1024C258.288 17.8928 257.557 17.7928 256.823 17.806H256.665H256.348C256.058 17.8489 255.774 17.9252 255.502 18.0334C255.155 18.1493 254.855 18.3743 254.647 18.675C254.439 18.9757 254.333 19.3359 254.346 19.7017C254.356 19.949 254.428 20.1897 254.556 20.4017C254.683 20.6138 254.862 20.7902 255.075 20.9149C255.705 21.2965 256.374 21.6085 257.071 21.8456L257.422 21.9765L257.773 22.1144L258.461 22.4108C258.908 22.6083 259.331 22.8582 259.72 23.1553C260.121 23.4441 260.446 23.8256 260.667 24.2673C260.889 24.709 261.001 25.1978 260.993 25.6921C261.007 26.1026 260.935 26.5114 260.782 26.8924C260.629 27.2734 260.399 27.6183 260.105 27.905C259.726 28.264 259.278 28.5421 258.789 28.7222C258.299 28.9023 257.778 28.9808 257.257 28.9528C255.927 28.8972 254.643 28.4539 253.561 27.6775Z" fill="black"/>
</g>
<defs>
<clipPath id="clip0_32_3330">
<rect width="261" height="47" fill="white"/>
</clipPath>
</defs>
</svg>
