<svg width="99" height="22" viewBox="0 0 99 22" fill="none" xmlns="http://www.w3.org/2000/svg">
<g clip-path="url(#clip0_710_543)">
<path d="M0.0252926 11.8038C0.118559 11.7911 0.192856 11.7736 0.268734 11.7704C1.05913 11.7385 2.6573 11.7592 2.97504 11.807C2.99624 11.8648 3.0116 11.9246 3.02089 11.9855C3.07147 12.8889 3.53306 13.5327 4.27445 13.99C4.74008 14.2743 5.27293 14.4273 5.8173 14.4329C6.2792 14.4577 6.74176 14.3988 7.1831 14.2593C7.85019 14.0266 8.36237 13.6219 8.63268 12.9415C8.903 12.2611 8.7797 11.6126 8.29439 11.0533C7.98178 10.7063 7.58116 10.4518 7.13568 10.3172C6.6978 10.1738 6.25202 10.0559 5.80623 9.93638C5.28457 9.79616 4.75817 9.67347 4.23651 9.53006C3.572 9.35547 2.93392 9.09123 2.33957 8.74452C1.82339 8.44568 1.36714 8.05227 0.994316 7.58453C0.481282 6.91619 0.188843 6.10265 0.158079 5.25817C0.108558 4.61241 0.195689 3.96341 0.413704 3.35415C0.631719 2.74488 0.975644 2.18924 1.42271 1.72402C2.03028 1.08829 2.78466 0.614202 3.61842 0.344143C4.30645 0.108653 5.02907 -0.00771621 5.75565 -2.98633e-05C6.76262 -0.0149457 7.75793 0.218635 8.65481 0.68035C10.1329 1.47705 10.9928 2.70874 11.2078 4.38659C11.241 4.6495 11.2441 4.91559 11.2552 5.18328C11.2493 5.23367 11.2365 5.28299 11.2173 5.32988C11.1774 5.34561 11.1361 5.35735 11.094 5.36493C10.2224 5.36493 9.35141 5.36493 8.48093 5.36493C8.42778 5.36126 8.37495 5.35381 8.32285 5.34262C8.25935 5.19494 8.2286 5.03507 8.23274 4.87416C8.20627 4.4934 8.0718 4.12832 7.84536 3.82239C7.61892 3.51646 7.31003 3.28255 6.95547 3.14852C6.52841 2.96306 6.06585 2.87543 5.60114 2.89196C5.13643 2.9085 4.68115 3.02877 4.26813 3.24412C4.02079 3.3716 3.79807 3.54267 3.61052 3.74923C3.45623 3.91257 3.33746 4.10659 3.26182 4.31885C3.18618 4.53112 3.15534 4.75697 3.17126 4.98194C3.18718 5.20691 3.24952 5.42606 3.35428 5.62535C3.45904 5.82465 3.60393 5.9997 3.77966 6.13932C4.03902 6.34631 4.33518 6.50152 4.65226 6.59662C5.22134 6.75596 5.79359 6.9153 6.36583 7.07464C7.07196 7.24054 7.7664 7.45346 8.44457 7.712C8.96051 7.91699 9.45161 8.18054 9.90838 8.49754C10.7383 9.09507 11.3501 9.85352 11.6283 10.8605C11.7156 11.1813 11.7649 11.5113 11.7753 11.8437C11.8313 12.7921 11.6232 13.7375 11.1746 14.5732C10.6702 15.4743 9.8954 16.1912 8.96149 16.6207C8.29326 16.9339 7.57789 17.1326 6.84481 17.2086C5.76745 17.3435 4.67373 17.224 3.65004 16.8597C2.57832 16.4977 1.6411 15.8159 0.9627 14.9046C0.432451 14.2039 0.111139 13.3655 0.0363581 12.4874C0.0268734 12.3552 0 12.2229 0 12.0906C0.00211783 11.9946 0.0105673 11.8988 0.0252926 11.8038Z" fill="#696871"/>
<path d="M52.7982 0.224668C52.8883 0.224668 52.98 0.210327 53.0717 0.210327C55.3132 0.210327 57.5559 0.210327 59.7995 0.210327C60.514 0.211797 61.2197 0.36831 61.8688 0.669225C62.4076 0.9104 62.893 1.25822 63.2959 1.69206C63.6989 2.12589 64.0113 2.6369 64.2147 3.19476C64.8596 4.86623 64.8644 6.55363 64.1546 8.20279C63.4559 9.82487 62.1833 10.714 60.4603 10.9705C60.0286 11.0281 59.5932 11.0531 59.1577 11.0454C58.1955 11.0454 57.2323 11.0454 56.268 11.0454C56.1258 11.0454 55.9819 11.0454 55.8207 11.055C55.798 11.1333 55.7811 11.2132 55.7701 11.294C55.7622 11.4262 55.7701 11.5601 55.7701 11.6923C55.7701 13.3155 55.7701 14.9381 55.7701 16.5601C55.7888 16.7144 55.772 16.8708 55.7211 17.0175C55.4049 17.0477 55.073 17.0286 54.7457 17.0318C54.4185 17.035 54.0866 17.0318 53.7562 17.0318C53.4258 17.0318 53.1033 17.0477 52.8077 17.019C52.7713 16.9808 52.7587 16.9728 52.7539 16.9617C52.7477 16.9499 52.7444 16.9368 52.7445 16.9234C52.7445 11.4454 52.7408 5.96673 52.7334 0.487578C52.7353 0.421426 52.7411 0.355447 52.7508 0.289997C52.7508 0.280437 52.765 0.270876 52.7982 0.224668ZM55.7685 3.07684C55.7685 4.74194 55.7685 6.36242 55.7685 7.98131C55.7733 8.05243 55.7823 8.12319 55.7954 8.19323C55.9408 8.20279 56.0704 8.21554 56.1985 8.21554C56.7913 8.21554 57.3857 8.21554 57.9785 8.21554C58.4653 8.21554 58.9538 8.21554 59.4407 8.20598C60.4318 8.17411 61.1068 7.67219 61.4625 6.7544C61.618 6.364 61.6913 5.94533 61.678 5.52487C61.6647 5.10441 61.5649 4.69132 61.3851 4.31172C61.0104 3.48635 60.3639 3.05135 59.4502 3.05135C58.3563 3.05135 57.2624 3.05135 56.1685 3.05135C56.0594 3.05294 55.9424 3.06728 55.7733 3.07684H55.7685Z" fill="#696871"/>
<path d="M15.3447 16.2988C15.309 16.6775 15.299 17.0581 15.3146 17.4381C15.3146 17.8094 15.3146 18.1822 15.3146 18.5535V19.7103C15.3146 20.0832 15.3146 20.456 15.3146 20.8257C15.3146 21.1953 15.3304 21.565 15.3004 21.957C15.0224 21.9956 14.7412 22.0068 14.461 21.9904C14.1975 21.9904 13.9341 21.9904 13.6706 21.9904C13.3937 22.0041 13.1162 21.9956 12.8407 21.965C12.8038 21.8037 12.7921 21.6375 12.8059 21.4726C12.8059 19.5605 12.8059 17.6447 12.8059 15.7252C12.8059 14.1414 12.7949 12.5591 12.8059 10.9753C12.8036 9.67225 13.245 8.40786 14.0563 7.39336C14.8788 6.33432 16.0533 5.61056 17.3633 5.35541C18.6217 5.06881 19.9364 5.17041 21.1367 5.647C23.1348 6.46282 24.3125 7.96698 24.6697 10.1085C24.9214 11.4544 24.7212 12.8465 24.1007 14.0649C23.2581 15.6981 21.9271 16.7083 20.1487 17.1115C18.8929 17.4085 17.5763 17.3003 16.3848 16.8024C16.105 16.686 15.8426 16.5283 15.5723 16.3929C15.5075 16.3594 15.4364 16.3371 15.3447 16.2988ZM19.1812 14.3597C19.9448 14.3422 20.8853 13.8514 21.4544 12.7663C21.6725 12.3616 21.8016 11.9144 21.8329 11.455C21.8643 10.9955 21.7972 10.5347 21.6362 10.1037C21.4855 9.65463 21.2255 9.25076 20.88 8.92899C20.5346 8.60723 20.1147 8.37784 19.6586 8.26176C19.2267 8.13534 18.7729 8.10329 18.3276 8.16775C17.1404 8.32709 16.3216 8.97401 15.8885 10.1037C15.7449 10.5046 15.6836 10.9307 15.7083 11.3561C15.7588 13.0451 17.0108 14.3756 19.1812 14.3597Z" fill="#696871"/>
<path d="M67.7083 12.3536C67.6435 12.4906 67.7083 12.5846 67.7589 12.6723C67.9325 13.0632 68.1928 13.4086 68.5198 13.6821C68.8467 13.9556 69.2316 14.1498 69.6448 14.2497C70.813 14.5397 71.8705 14.3151 72.7352 13.418C72.8 13.3511 72.8522 13.2746 72.9091 13.2045C73.9919 13.2045 75.0447 13.2045 76.0707 13.2045C76.1734 13.3272 76.1149 13.41 76.0817 13.4929C75.8102 14.2316 75.3888 14.905 74.8444 15.4702C74.3 16.0354 73.6447 16.4799 72.9202 16.7753C72.1677 17.1061 71.3564 17.2793 70.5355 17.2845C69.7146 17.2897 68.9012 17.1268 68.1446 16.8055C66.3046 16.0455 65.168 14.6481 64.7017 12.7137C64.3812 11.4387 64.4658 10.0944 64.9435 8.87044C65.2395 8.0608 65.7213 7.33325 66.3497 6.74726C66.978 6.16127 67.735 5.73346 68.5588 5.49881C69.9298 5.05688 71.4086 5.0945 72.7558 5.60557C74.7412 6.35765 75.9347 7.8172 76.3774 9.90774C76.5103 10.6152 76.5353 11.339 76.4517 12.054C76.446 12.108 76.4354 12.1614 76.42 12.2134C76.4084 12.2436 76.3936 12.2724 76.3758 12.2994C76.2285 12.3421 76.074 12.3535 75.9221 12.3329H68.554C68.3422 12.3329 68.132 12.3329 67.9217 12.3329C67.8503 12.3358 67.779 12.3427 67.7083 12.3536ZM67.7842 9.91411C67.9187 9.9557 68.0606 9.96712 68.1999 9.94757C69.3602 9.94757 70.5205 9.94757 71.6777 9.94757C72.1266 9.94757 72.5756 9.94757 73.0229 9.94757C73.0972 9.94757 73.181 9.96829 73.2458 9.85675C73.231 9.80221 73.212 9.74893 73.1889 9.69741C73.0012 9.31509 72.7212 8.98638 72.3748 8.74137C71.3425 8.02912 70.2455 7.95742 69.1089 8.44659C68.5834 8.67579 68.1478 9.07349 67.8696 9.5779C67.8158 9.66713 67.7225 9.76433 67.7842 9.91411Z" fill="#696871"/>
<path d="M98.9699 17.0732C98.1193 17.1307 97.2659 17.1307 96.4153 17.0732C96.3315 16.7354 96.4359 16.3721 96.341 15.9929C96.2383 16.0439 96.1561 16.0774 96.0818 16.1204C95.7498 16.3116 95.4273 16.5187 95.089 16.6988C94.2025 17.1845 93.1824 17.3636 92.1851 17.2087C91.0535 17.0645 89.9859 16.5986 89.1073 15.8654C88.1748 15.0862 87.5168 14.0244 87.2309 12.838C86.8405 11.3995 86.9699 9.86792 87.5961 8.5167C88.3043 6.98704 89.493 5.99595 91.0865 5.48925C91.8722 5.25379 92.6943 5.16682 93.5114 5.23271C94.8684 5.29445 96.1598 5.83863 97.1567 6.76874C98.0382 7.58471 98.6367 8.66434 98.8639 9.84877C98.98 10.3815 99.0215 10.9281 98.9873 11.4724C98.9778 11.5904 98.9873 11.7115 98.9873 11.831C98.9873 13.4127 98.9873 14.9954 98.9873 16.5793C98.9825 16.7402 98.9746 16.898 98.9699 17.0732ZM96.0849 11.1538C96.0849 11.0645 96.0739 10.945 96.0596 10.8255C95.9316 9.76273 95.4273 8.95647 94.4678 8.46411C93.887 8.16911 93.2293 8.06438 92.5866 8.16456C91.5164 8.31115 90.7213 8.85609 90.2518 9.84559C89.9736 10.4414 89.8873 11.11 90.0052 11.7577C90.1791 12.8061 90.7087 13.6028 91.6745 14.0745C92.1899 14.3203 92.7627 14.4179 93.3296 14.3565C93.7651 14.3296 94.1888 14.203 94.5685 13.9863C94.9482 13.7695 95.2738 13.4684 95.5206 13.1057C95.9072 12.5308 96.1047 11.848 96.0849 11.1538Z" fill="#696871"/>
<path d="M31.7595 5.22315C32.5194 5.19939 33.2765 5.32775 33.9869 5.60079C36.0561 6.40545 37.2781 7.92555 37.6543 10.1244C37.8539 11.2036 37.7617 12.3171 37.3871 13.3479C36.6473 15.3555 35.2262 16.6223 33.1569 17.1035C31.6535 17.4829 30.0626 17.2608 28.7181 16.4837C27.1547 15.5898 26.2283 14.2163 25.8869 12.4508C25.661 11.3505 25.732 10.2093 26.0924 9.14609C26.7627 7.18303 28.1158 5.9593 30.0934 5.41277C30.6369 5.26969 31.198 5.20584 31.7595 5.22315ZM31.7437 14.3629C32.3474 14.3814 32.9421 14.2119 33.4467 13.8774C33.9514 13.543 34.3415 13.0598 34.5638 12.4938C34.8512 11.801 34.8931 11.0296 34.6824 10.3093C34.5554 9.8177 34.3011 9.36896 33.9456 9.00893C33.5901 8.64891 33.1461 8.39051 32.659 8.26016C32.1649 8.10895 31.6414 8.08322 31.1351 8.18527C30.0128 8.40835 29.2382 9.05367 28.8525 10.1547C28.7148 10.5716 28.661 11.012 28.6944 11.4501C28.7845 13.0658 30.0033 14.3852 31.7437 14.3629Z" fill="#696871"/>
<path d="M85.9474 8.94692C85.9061 8.96933 85.8619 8.98594 85.8162 8.99631C85.011 8.99631 84.2059 8.99631 83.4007 8.99631C83.3309 8.99022 83.2616 8.9785 83.1937 8.96126C83.1728 8.89975 83.1559 8.83695 83.1431 8.77324C83.1203 8.5592 83.0297 8.35825 82.8848 8.20013C82.7399 8.04201 82.5483 7.93512 82.3384 7.89528C81.8083 7.75735 81.2464 7.81852 80.7577 8.06736C80.3277 8.27132 80.1333 9.0234 80.6865 9.3851C80.9197 9.53679 81.176 9.64876 81.4453 9.71653C82.0586 9.87587 82.672 10.0352 83.2853 10.1945C83.8384 10.3258 84.365 10.5516 84.8424 10.8622C85.2022 11.0886 85.5114 11.388 85.7503 11.7413C85.9893 12.0946 86.1527 12.4941 86.2303 12.9145C86.4343 14.0187 86.2446 15.0337 85.4795 15.8925C85.1342 16.2808 84.7047 16.5834 84.2243 16.7769C82.8016 17.3521 81.3568 17.4636 79.8977 16.9362C78.9684 16.6332 78.1812 15.9978 77.6846 15.15C77.3954 14.625 77.233 14.0388 77.2104 13.4387C77.2093 13.3986 77.2131 13.3584 77.2214 13.3192C77.2334 13.2876 77.2482 13.2572 77.2657 13.2284C77.3231 13.2159 77.3811 13.2069 77.4396 13.2013C77.9755 13.1726 79.6132 13.1933 79.9151 13.2347C79.9436 13.3224 79.9799 13.4196 80.0036 13.52C80.0538 13.7377 80.1549 13.9403 80.2984 14.1107C80.4419 14.2812 80.6238 14.4146 80.8288 14.4999C80.9366 14.5507 81.0495 14.5897 81.1655 14.6162C81.668 14.7366 82.1924 14.7284 82.691 14.5923C82.9082 14.5341 83.1086 14.4249 83.2759 14.2736C83.3678 14.1967 83.4407 14.0993 83.4888 13.9891C83.5369 13.8789 83.5589 13.7589 83.5531 13.6387C83.5473 13.5184 83.5138 13.4012 83.4552 13.2962C83.3967 13.1913 83.3147 13.1015 83.2158 13.034C82.9684 12.8553 82.6894 12.7261 82.3938 12.6532C81.9464 12.5384 81.4975 12.4333 81.0485 12.3249C80.559 12.2163 80.0821 12.0561 79.6258 11.8469C79.3861 11.7355 79.1542 11.6078 78.9319 11.4645C78.5573 11.2365 78.2386 10.9263 77.9997 10.5568C77.7607 10.1874 77.6076 9.76834 77.5518 9.33093C77.4159 8.33346 77.6056 7.41885 78.2853 6.65402C78.5396 6.36475 78.836 6.11601 79.1642 5.91628C79.8197 5.51168 80.5654 5.27938 81.3331 5.24068C82.1638 5.17144 82.9996 5.28619 83.7817 5.57689C85.0653 6.08837 85.9822 7.28182 85.9474 8.94692Z" fill="#696871"/>
<path d="M46.1589 0.262918C46.5004 0.200775 48.5918 0.188028 49.0534 0.237424C49.1624 0.358522 49.1182 0.511487 49.1182 0.651706C49.1182 2.08576 49.1182 3.51982 49.1182 4.96184C49.1182 5.10684 49.1182 5.25184 49.1277 5.37293C49.2492 5.45244 49.3956 5.48367 49.5387 5.46057C50.0935 5.46057 50.6452 5.46057 51.2016 5.46057C51.3439 5.46057 51.4862 5.47172 51.6458 5.4781C51.6669 5.5594 51.6833 5.64186 51.6949 5.72507C51.736 6.56001 51.7107 7.66424 51.6411 7.97335C51.5463 7.98132 51.4451 7.99885 51.3439 7.99885C50.7495 7.99885 50.1552 7.99885 49.5608 7.99885C49.4327 7.99885 49.3031 8.01 49.1529 8.01638C49.1369 8.09741 49.1258 8.17936 49.1198 8.26176C49.1198 9.73883 49.1198 11.2159 49.1198 12.6914C49.1243 12.8909 49.1486 13.0895 49.1925 13.2841C49.3 13.8227 49.6667 14.1031 50.1773 14.1764C50.5156 14.2226 50.8618 14.2195 51.2032 14.2386C51.3666 14.2231 51.5315 14.2399 51.6885 14.288C51.705 14.361 51.7171 14.435 51.7249 14.5095C51.7612 15.3699 51.7391 16.6749 51.6806 17.0031C51.6227 17.0148 51.5641 17.0228 51.5052 17.027C51.0167 17.027 50.5282 17.027 50.0398 17.0175C49.5645 17.0039 49.093 16.9273 48.6376 16.7896C48.1842 16.6628 47.765 16.4345 47.4114 16.1216C47.0577 15.8088 46.7788 15.4194 46.5952 14.9827C46.4195 14.5803 46.3008 14.1549 46.2427 13.7191C46.1897 13.339 46.1617 12.9557 46.1589 12.5719C46.1589 8.60752 46.1589 4.64316 46.1589 0.678794V0.262918Z" fill="#696871"/>
<path d="M38.7863 16.9983C38.7768 16.8725 38.7594 16.7562 38.7578 16.6398C38.7578 14.3645 38.7578 12.0891 38.7578 9.81373C38.7488 9.10871 38.8627 8.40756 39.0945 7.74232C39.2304 7.33015 39.4492 6.9507 39.7372 6.62771C40.0253 6.30473 40.3764 6.04517 40.7686 5.8653C41.0689 5.72079 41.3883 5.62096 41.7171 5.56893C42.0557 5.51438 42.3972 5.48032 42.7398 5.46695C43.4259 5.45102 44.112 5.46695 44.7949 5.46695C44.8992 5.46695 45.0019 5.48288 45.1015 5.49085C45.1237 5.54503 45.1521 5.58008 45.1521 5.61673C45.1521 6.34863 45.1521 7.08 45.1521 7.81083C45.1452 7.86829 45.1325 7.92488 45.1142 7.97973C45.0177 7.98929 44.9292 8.00523 44.8407 8.00523C44.2858 8.00523 43.7341 8.00523 43.1777 8.00523C42.9665 8.00149 42.756 8.02996 42.5533 8.08968C42.3538 8.143 42.1742 8.25415 42.0368 8.40937C41.8994 8.56458 41.8102 8.75703 41.7803 8.96286C41.7279 9.26433 41.7015 9.56981 41.7013 9.87587C41.7013 12.0843 41.7013 14.2928 41.7013 16.5012V16.9792C41.6471 17.0022 41.5903 17.0183 41.5321 17.027C40.6611 17.027 39.7932 17.027 38.9191 17.027C38.8741 17.0209 38.8297 17.0113 38.7863 16.9983Z" fill="#696871"/>
</g>
<defs>
<clipPath id="clip0_710_543">
<rect width="99" height="22" fill="white"/>
</clipPath>
</defs>
</svg>
