<svg width="58" height="58" viewBox="0 0 58 58" fill="none" xmlns="http://www.w3.org/2000/svg">
<path d="M28.9994 58C13.0091 58 0 44.9909 0 28.9994C0 13.008 13.0091 0 28.9994 0C44.9897 0 58 13.0091 58 28.9994C58 44.9897 44.9909 58 28.9994 58ZM28.9994 6.28146C16.4733 6.28146 6.28146 16.4733 6.28146 28.9994C6.28146 41.5255 16.4733 51.7174 28.9994 51.7174C41.5255 51.7174 51.7174 41.5267 51.7174 28.9994C51.7174 16.4721 41.5267 6.28146 28.9994 6.28146ZM26.0895 38.8209C25.6846 38.8241 25.2831 38.7471 24.9081 38.5943C24.5331 38.4416 24.1921 38.2161 23.9047 37.9309L17.5556 31.5818C16.9865 30.9969 16.6681 30.213 16.6681 29.397C16.6681 28.5809 16.9865 27.7971 17.5556 27.2122C18.1397 26.6417 18.9239 26.3223 19.7404 26.3223C20.5569 26.3223 21.341 26.6417 21.9252 27.2122L26.0895 31.3765L35.5455 21.9204C36.1298 21.3506 36.9136 21.0317 37.7297 21.0317C38.5459 21.0317 39.3297 21.3506 39.9139 21.9204C40.4836 22.5051 40.8024 23.289 40.8024 24.1053C40.8024 24.9215 40.4836 25.7055 39.9139 26.2901L28.2743 37.9309C27.987 38.2162 27.646 38.4418 27.271 38.5946C26.896 38.7474 26.4944 38.8243 26.0895 38.8209Z" fill="#FF8C00"/>
</svg>
